<?xml version="1.0" encoding="utf-8"?>
<!-- Generator: Adobe Illustrator 23.1.1, SVG Export Plug-In . SVG Version: 6.00 Build 0)  -->
<svg version="1.1" id="geoblocking_2_" xmlns="http://www.w3.org/2000/svg" x="0px"
     y="0px" viewBox="0 0 24 24" xml:space="preserve">
<g id="geoblocking_1_">
	<g id="Info-Label" transform="translate(-255 -1045)">
		<g id="geoblocking" transform="translate(59 984)">
			<g id="placeholder" transform="translate(196 61)">
				<g fill="currentColor">
					<path d="M12,1C7.7859,1,4.3611,4.4669,4.3611,8.7329c0,1.4392,0.3947,2.8483,1.1416,4.0683l6.0644,9.8938
						C11.6817,22.884,11.8897,23,12.1061,23h0.0042c0.2207,0,0.4286-0.1203,0.5432-0.3136l5.9074-9.9883
						c0.7045-1.1943,1.0779-2.5647,1.0779-3.9609C19.6389,4.4669,16.2141,1,12,1z M17.4703,12.0322l-5.3727,9.0818l-5.5127-8.9959
						c-0.6196-1.0139-0.9591-2.1867-0.9591-3.3853C5.6258,5.18,8.4904,2.2802,12,2.2802s6.37,2.8998,6.37,6.4526
						C18.37,9.8971,18.0559,11.0398,17.4703,12.0322z"/>
					<path d="M12,4.6667c-2.1891,0-3.9722,1.6459-3.9722,3.6667C8.0278,10.3419,9.78,12,12,12c2.2465,0,3.9722-1.6785,3.9722-3.6667
						C15.9722,6.3126,14.1891,4.6667,12,4.6667z M12,10.7859c-1.4697,0-2.657-1.1-2.657-2.4526c0-1.3485,1.1961-2.4526,2.657-2.4526
						s2.6526,1.1041,2.6526,2.4526C14.6526,9.6656,13.4918,10.7859,12,10.7859z"/>
				</g>
			</g>
		</g>
	</g>
</g>
</svg>
