<svg id="Ebene_1" xmlns="http://www.w3.org/2000/svg" viewBox="0 0 48 48">
  <style>
    .st2{fill-rule:evenodd;clip-rule:evenodd;fill:#fff;stroke:#fff;stroke-width:.2}
  </style>
  <g id="icon-audio">
    <circle fill="currentColor" id="Oval-1" cx="24" cy="24" r="22.7" fill-rule="evenodd" clip-rule="evenodd" fill-opacity=".32" stroke="#fff" stroke-width="1.6" stroke-opacity=".8"/>
    <g transform="translate(13 14)">
      <path id="Fill-1581" d="M11.7 1.3c-.2-.1-.3 0-.5.1L5.4 7.1H2.6c-.9 0-1.7.7-1.7 1.7v2.5c0 .9.8 1.7 1.7 1.7h2.8l5.8 5.7c.1.1.2.1.3.1h.2c.2-.1.3-.2.3-.4V1.7c-.1-.2-.2-.3-.3-.4" fill-rule="evenodd" clip-rule="evenodd" fill="#fff"/>
      <path id="Fill-1582" class="st2" d="M16.1 4.2c-.2-.2-.4-.2-.6 0-.1.2-.1.4.1.6C17 6 18 7.9 18 9.5c0 1.7-.9 3.5-2.4 4.7-.2.1-.2.4-.1.6.1.1.2.2.3.2.1 0 .2 0 .3-.1 1.6-1.3 2.7-3.5 2.7-5.4 0-1.9-1.1-4-2.7-5.3"/>
      <path id="Fill-1583" class="st2" d="M14.4 6.3c-.2-.1-.5-.1-.6.1-.1.2-.1.5.1.6.7.5 1.5 1.4 1.5 2.6 0 1.2-.8 2.1-1.5 2.6-.2.1-.2.4-.1.6.1.1.2.2.3.2.1 0 .2 0 .2-.1 1.2-.9 1.9-2 1.9-3.3.1-1.3-.6-2.5-1.8-3.3"/>
    </g>
  </g>
</svg>
