<?xml version="1.0" encoding="utf-8"?>
<!-- Generator: Adobe Illustrator 24.1.0, SVG Export Plug-In . SVG Version: 6.00 Build 0)  -->
<svg version="1.1" id="Ebene_1" xmlns="http://www.w3.org/2000/svg" xmlns:xlink="http://www.w3.org/1999/xlink" x="0px" y="0px"
	 viewBox="0 0 24 24" xml:space="preserve">
<desc>Created with Sketch.</desc>
<path fill="currentColor" d="M12,23.5C5.7,23.5,0.5,18.3,0.5,12C0.5,5.7,5.7,0.5,12,0.5c6.3,0,11.5,5.2,11.5,11.5
	C23.5,18.3,18.3,23.5,12,23.5z M12,1.5C6.2,1.5,1.5,6.2,1.5,12S6.2,22.5,12,22.5S22.5,17.8,22.5,12S17.8,1.5,12,1.5z"/>
<g id="speaker" transform="translate(5.000000, 6.000000)">
	<path id="Fill-1581" fill="currentColor" d="M6.6,0.3L3.1,4.1l-1.9,0c-0.6,0-1,0.4-1,1V7c0,0.6,0.4,1,1,1h1.9l3.5,3.8
		c0,0.1,0.1,0.1,0.2,0.1c0,0,0.1,0,0.1,0c0.1,0,0.2-0.1,0.2-0.3v-11c0-0.1-0.1-0.2-0.2-0.3C6.8,0.2,6.6,0.3,6.6,0.3z"/>
	<g id="Fill-1582">
		<path fill="currentColor" d="M12.5,6c0,1.3-0.7,2.8-1.9,3.8c-0.1,0.1-0.2,0.1-0.3,0.1c-0.2,0-0.3-0.1-0.4-0.2C9.7,9.5,9.8,9.1,10,9
			c0.9-0.7,1.5-1.9,1.5-3c0-1.1-0.6-2.2-1.5-3C9.9,3,9.8,2.8,9.8,2.7c0-0.1,0-0.3,0.1-0.4c0.1-0.1,0.2-0.2,0.3-0.2
			c0.1,0,0.3,0,0.4,0.1C11.8,3.2,12.5,4.6,12.5,6z"/>
	</g>
	<g id="Fill-1583">
		<path fill="currentColor" d="M10.4,6c0,0.9-0.5,1.7-1.3,2.4C9,8.4,8.9,8.5,8.8,8.5c-0.2,0-0.3-0.1-0.4-0.2C8.3,8.1,8.3,8,8.3,7.9
			c0-0.1,0.1-0.2,0.2-0.3C8.9,7.2,9.4,6.7,9.4,6c0-0.7-0.5-1.2-0.9-1.5C8.2,4.3,8.2,4,8.4,3.7c0.1-0.1,0.3-0.2,0.4-0.2
			c0.1,0,0.2,0,0.3,0.1C10,4.2,10.4,5.1,10.4,6z"/>
	</g>
</g>
</svg>
