<?xml version="1.0" encoding="utf-8"?>
<!-- Generator: Adobe Illustrator 24.3.0, SVG Export Plug-In . SVG Version: 6.00 Build 0)  -->
<svg version="1.1" id="Ebene_1" xmlns="http://www.w3.org/2000/svg" x="0px" y="0px"
     viewBox="0 0 24 24" style="enable-background:new 0 0 24 24;" xml:space="preserve">
<style type="text/css">
	.st0{fill:currentColor;}
</style>
  <g>
		<path class="st0" d="M19,21.5H5c-1.4,0-2.5-1.1-2.5-2.5V5c0-1.4,1.1-2.5,2.5-2.5h14c1.4,0,2.5,1.1,2.5,2.5v14
			C21.5,20.4,20.4,21.5,19,21.5z M5,3.5C4.2,3.5,3.5,4.2,3.5,5v14c0,0.8,0.7,1.5,1.5,1.5h14c0.8,0,1.5-0.7,1.5-1.5V5
			c0-0.8-0.7-1.5-1.5-1.5H5z"/>
	</g>
  <polygon class="st0" points="10,17 5,12 6.4,10.6 10,14.2 17.6,6.6 19,8 	"/>
</svg>
