<?xml version="1.0" encoding="utf-8"?>
<!-- Generator: Adobe Illustrator 25.0.1, SVG Export Plug-In . SVG Version: 6.00 Build 0)  -->
<svg version="1.1" id="Layer_1" xmlns="http://www.w3.org/2000/svg" xmlns:xlink="http://www.w3.org/1999/xlink" x="0px" y="0px"
	 viewBox="0 0 24 24" style="enable-background:new 0 0 24 24;" xml:space="preserve">
<style type="text/css">
	.st0{fill-rule:evenodd;clip-rule:evenodd;}
</style>
<path class="st0" d="M20.5,1h-17C2.1,1,1,2.1,1,3.5v12C1,16.9,2.1,18,3.5,18H10v2.9L7,23h10l-3-2.1V18h6.5c1.4,0,2.5-1.1,2.5-2.5
	v-12C23,2.1,21.9,1,20.5,1z M11,15c0-0.6,0.4-1,1-1s1,0.4,1,1s-0.4,1-1,1S11,15.6,11,15z M22,13H2V3.5C2,2.7,2.7,2,3.5,2h17
	C21.3,2,22,2.7,22,3.5V13z"/>
</svg>
