<svg xmlns="http://www.w3.org/2000/svg" width="24" height="24" viewBox="0 0 24 24">
    <g fill="none" fill-rule="evenodd">
        <g>
            <g>
                <path d="M0 0H24V24H0z" transform="translate(-955 -1760) translate(955 1760)"/>
                <g fill="#2A2A2A">
                    <path d="M8 0v12H5v-.083C2.162 11.441 0 8.973 0 6S2.162.559 5 .083V0h3z" transform="translate(-955 -1760) translate(955 1760) translate(2 6)"/>
                    <path d="M20 0v12h-3v-.083c-2.838-.476-5-2.944-5-5.917S14.162.559 17 .083V0h3z" transform="translate(-955 -1760) translate(955 1760) translate(2 6) matrix(-1 0 0 1 32 0)"/>
                </g>
            </g>
        </g>
    </g>
</svg>
