<?xml version="1.0" encoding="utf-8"?>
<!-- Generator: Adobe Illustrator 24.1.0, SVG Export Plug-In . SVG Version: 6.00 Build 0)  -->
<svg version="1.1" id="Ebene_1" xmlns="http://www.w3.org/2000/svg" x="0px" y="0px"
     viewBox="0 0 24 24" style="enable-background:new 0 0 24 24;" xml:space="preserve">

<g id="download2">
	<g  transform="translate(7 6)">
			<path fill="currentColor"  d="M9.2,4.5H6.8V1H3.2v3.5H0.8l4.2,4L9.2,4.5z M0.8,10.2V11h8.4v-0.8H0.8z"/>
	</g>
	<path fill="currentColor" d="M12,23C5.9,23,1,18.1,1,12C1,5.9,5.9,1,12,1c6.1,0,11,4.9,11,11C23,18.1,18.1,23,12,23z M12,2.7
		c-5.1,0-9.3,4.2-9.3,9.3s4.2,9.3,9.3,9.3s9.3-4.2,9.3-9.3S17.1,2.7,12,2.7z"/>
</g>
</svg>
