<svg xmlns="http://www.w3.org/2000/svg" width="25" height="24" viewBox="0 0 25 24">
    <g fill="none" fill-rule="evenodd">
        <g>
            <g>
                <g transform="translate(-672 -180) translate(175 154) translate(458.494 26)">
                    <g>
                        <path d="M0 0L24 0 24 24 0 24z" transform="translate(38.968)"/>
                        <path fill="currentColor" fill-rule="nonzero" d="M17.833 12c-.46 0-.833.373-.833.833V19.5c0 .46-.373.833-.833.833H4.5c-.46 0-.833-.374-.833-.833V7.833c0-.459.373-.833.833-.833h6.667c.46 0 .833-.373.833-.833 0-.46-.373-.834-.833-.834H4.5c-1.378 0-2.5 1.122-2.5 2.5V19.5C2 20.878 3.122 22 4.5 22h11.667c1.378 0 2.5-1.122 2.5-2.5v-6.667c0-.46-.373-.833-.834-.833z" transform="translate(38.968)"/>
                        <path fill="currentColor" fill-rule="nonzero" d="M9.813 11.24c-.058.06-.097.133-.114.213L9.11 14.4c-.027.137.016.277.114.377.08.079.186.121.295.121.027 0 .054-.002.082-.008l2.946-.59c.081-.016.155-.055.213-.113l6.593-6.594-2.946-2.946-6.594 6.594zM21.39 2.61c-.813-.812-2.134-.812-2.946 0l-1.153 1.153 2.946 2.946 1.153-1.153c.393-.393.61-.916.61-1.473 0-.556-.217-1.08-.61-1.473z" transform="translate(38.968)"/>
                    </g>
                </g>
            </g>
        </g>
    </g>
</svg>
