<?xml version="1.0" encoding="utf-8"?>
<!-- Generator: Adobe Illustrator 27.4.1, SVG Export Plug-In . SVG Version: 6.00 Build 0)  -->
<svg version="1.1" id="Ebene_1" xmlns="http://www.w3.org/2000/svg" x="0px" y="0px"
     viewBox="0 0 48 48" xml:space="preserve">
<path fill="currentColor" d="M8,44h23.8c1,0,2.1-0.4,2.8-1.2c0.7-0.7,1.2-1.7,1.2-2.8V16.3c0-1-0.4-2.1-1.2-2.8c-0.7-0.7-1.7-1.2-2.8-1.2H8
	c-1,0-2.1,0.4-2.8,1.2S4,15.2,4,16.3V40c0,1,0.4,2.1,1.2,2.8C5.9,43.6,6.9,44,8,44z M11.9,26.2h5.9v-5.9h4v5.9h5.9v4h-5.9v5.9h-4
	v-5.9h-5.9V26.2z"/>
<path fill="currentColor" d="M40,4H15.7v4H40v24.3h4V8C44,5.8,42.2,4,40,4z"/>
</svg>
