<?xml version="1.0" encoding="utf-8"?>
<!-- Generator: Adobe Illustrator 24.3.0, SVG Export Plug-In . SVG Version: 6.00 Build 0)  -->
<svg version="1.1" id="Ebene_1" xmlns="http://www.w3.org/2000/svg" x="0px" y="0px"
     viewBox="0 0 24 24" style="enable-background:new 0 0 24 24;" xml:space="preserve">
<path fill="currentColor" d="M20.5,14.6c-0.3,0-0.5,0.2-0.5,0.5v4.4c0,0.8-0.7,1.5-1.5,1.5h-14c-0.8,0-1.5-0.7-1.5-1.5v-13c0-0.8,0.7-1.5,1.5-1.5h4.4
	c0.3,0,0.5-0.2,0.5-0.5S9.2,3.9,8.9,3.9H4.5c-1.4,0-2.5,1.1-2.5,2.5v13c0,1.4,1.1,2.5,2.5,2.5h14c1.4,0,2.5-1.1,2.5-2.5v-4.4
	C21,14.8,20.8,14.6,20.5,14.6z"/>
<path fill="currentColor" d="M20.8,2.7c-0.9-0.9-2.3-0.9-3.2,0l-8.9,8.9c-0.1,0.1-0.1,0.1-0.1,0.2l-1.2,4.2c-0.1,0.2,0,0.4,0.1,0.5
	c0.1,0.1,0.3,0.2,0.5,0.1l4.2-1.2c0.1,0,0.2-0.1,0.2-0.1l8.9-8.9c0.9-0.9,0.9-2.3,0-3.2L20.8,2.7z M9.8,11.9l7.3-7.3L19.4,7
	l-7.3,7.3L9.8,11.9z M9.3,12.9l1.9,1.9l-2.6,0.7L9.3,12.9z M20.7,5.7l-0.5,0.5l-2.4-2.4l0.5-0.5c0.5-0.5,1.3-0.5,1.8,0L20.7,4
	C21.2,4.4,21.2,5.2,20.7,5.7z"/>
</svg>
