<?xml version="1.0" encoding="utf-8"?>
<!-- Generator: Adobe Illustrator 24.2.1, SVG Export Plug-In . SVG Version: 6.00 Build 0)  -->
<svg version="1.1" id="Ebene_1" xmlns="http://www.w3.org/2000/svg" x="0px" y="0px"
     viewBox="0 0 24 24" style="enable-background:new 0 0 24 24;" xml:space="preserve">
<style type="text/css">
	.st0{fill:currentColor;}
	.st1{fill-rule:evenodd;clip-rule:evenodd;fill:#515151;}
</style>
	<g transform="translate(-726.000000, -266.000000)">
		<g transform="translate(104.000000, 120.000000)">
			<g transform="translate(622.000000, 146.000000)">
				<g>
					<path  class="st0" d="M10.145,1.5258c-5.2689,0-9.5402,4.2713-9.5402,9.5402s4.2713,9.5402,9.5402,9.5402
						s9.5402-4.2713,9.5402-9.5402C19.6796,5.7995,15.4115,1.5315,10.145,1.5258z M10.145,19.2433
						c-4.5162,0-8.1773-3.6611-8.1773-8.1773s3.6611-8.1773,8.1773-8.1773s8.1773,3.6611,8.1773,8.1773
						C18.3174,15.5802,14.6592,19.2385,10.145,19.2433z"/>
					<path class="st0" d="M10.516,5.2359c-0.3805,0-0.689,0.3085-0.689,0.689v4.8231H5.0039
						c-0.3805,0-0.689,0.3085-0.689,0.689s0.3085,0.689,0.689,0.689h5.5121c0.3805,0,0.689-0.3085,0.689-0.689V5.9249
						C11.205,5.5444,10.8965,5.2359,10.516,5.2359z"/>
				</g>
				<g transform="translate(23.000000, 19.000000)">
					<circle class="st1" cx="-4.9049" cy="-2.1039" r="5.3001"/>
					<path class="st0" d="M-4.9049-5.8139c-0.2927,0-0.53,0.253-0.53,0.5652v3.6397
						c0,0.3122,0.2373,0.5652,0.53,0.5652c0.2927,0,0.53-0.253,0.53-0.5652v-3.6397C-4.3749-5.5609-4.6122-5.8139-4.9049-5.8139z"/>
					<circle class="st0" cx="-4.9049" cy="1.0762" r="0.53"/>
				</g>
			</g>
		</g>
</g>
</svg>
