<?xml version="1.0" encoding="utf-8"?>
<!-- Generator: Adobe Illustrator 23.1.1, SVG Export Plug-In . SVG Version: 6.00 Build 0)  -->
<svg version="1.1" id="Ebene_1" xmlns="http://www.w3.org/2000/svg" x="0px" y="0px"
     viewBox="0 0 24 24" xml:space="preserve">
<g>
	<g id="social-media-facebook" transform="translate(6.000000, 0.000000)">
		<g id="Shape">
			<path fill="#3464A5" d="M7.53,21.9248H3.3947c-0.2481,0-0.4135-0.1654-0.4135-0.4135V12H0.9135C0.6654,12,0.5,11.8346,0.5,11.5865
				V8.2782c0-0.2481,0.1654-0.4135,0.4135-0.4135h2.0677V6.5414c0-1.0752,0.3308-4.4662,4.3007-4.4662h3.5564
				c0.2481,0,0.4135,0.1654,0.4135,0.4135V5.797c0,0.0827-0.0827,0.2481-0.0827,0.3309c-0.0827,0.0827-0.2481,0.0827-0.3309,0.0827
				c0,0-2.1503,0-2.4812,0c-0.1654,0-0.2481,0-0.3309,0.1654C7.9436,6.5414,7.9436,6.5414,7.9436,6.6241v1.2406h3.1428
				c0.0827,0,0.2481,0.0827,0.3309,0.1654C11.5,8.1128,11.5,8.1955,11.5,8.3609l-0.3309,3.3083
				c0,0.2481-0.1654,0.3309-0.4135,0.3309H7.9436v9.5113C7.9436,21.7594,7.7781,21.9248,7.53,21.9248z M3.8082,21.0977h3.3083
				v-9.5112c0-0.2481,0.1654-0.4135,0.4135-0.4135h2.8121l0.2481-2.4812H7.53c-0.2481,0-0.4135-0.1654-0.4135-0.4135V6.7068
				C7.0338,6.376,7.1992,6.0451,7.4473,5.797c0.2481-0.2481,0.579-0.4135,0.9097-0.4135c0.2481,0,1.406,0,2.0677,0V2.9023H7.2819
				c-3.0602,0-3.4737,2.2331-3.4737,3.6391v1.7368c0,0.2481-0.1654,0.4135-0.4135,0.4135H1.327v2.4812h2.0677
				c0.2481,0,0.4135,0.1654,0.4135,0.4135C3.8082,11.5864,3.8082,21.0977,3.8082,21.0977z"/>
		</g>
	</g>
</g>
</svg>
