<?xml version="1.0" encoding="utf-8"?>
<!-- Generator: Adobe Illustrator 23.1.1, SVG Export Plug-In . SVG Version: 6.00 Build 0)  -->
<svg version="1.1" id="Ebene_1" xmlns="http://www.w3.org/2000/svg" x="0px" y="0px"
     viewBox="0 0 24 24" xml:space="preserve">
<g id="Group" transform="translate(2.000000, 2.000000)">
	<path fill="currentColor" d="M20.9983,8.9508c0.4662-0.4329,0.5995-1.0991,0.4329-1.6986c-0.1999-0.5995-0.6994-1.0325-1.3322-1.1324
		l-5.5621-0.7993c-0.2332-0.0333-0.4329-0.1666-0.5329-0.3997l-2.5313-4.9959c-0.2665-0.5662-0.8327-0.9326-1.4654-0.9326
		c-0.6327,0-1.1991,0.3662-1.4654,0.9324L6.0438,4.954C5.9439,5.1538,5.744,5.3204,5.5109,5.3537L-0.0846,6.153
		c-0.6328,0.1-1.1324,0.5329-1.3322,1.1325s-0.0333,1.2324,0.4329,1.6986l4.03,3.9301c0.1666,0.1666,0.2665,0.3996,0.1999,0.6328
		l-0.9659,5.5289c-0.0999,0.6328,0.1332,1.2324,0.6661,1.5987c0.4996,0.3664,1.1658,0.4329,1.7319,0.1332l4.9626-2.5979
		c0.1999-0.0999,0.4662-0.0999,0.6661,0l4.9626,2.5979c0.2332,0.1332,0.4996,0.1999,0.766,0.1999
		c0.3331,0,0.6661-0.0999,0.9659-0.2998c0.4996-0.3664,0.766-0.9992,0.6661-1.5987l-0.9659-5.5289
		c-0.0333-0.2332,0.0333-0.4662,0.1999-0.6328L20.9983,8.9508z M15.0697,13.1474l0.8327,4.7627
		c0.0333,0.2332-0.0666,0.4662-0.2665,0.5995c-0.1999,0.1332-0.4329,0.1666-0.6661,0.0333l-4.2965-2.2315
		c-0.1999-0.0999-0.4329-0.1666-0.6661-0.1666c-0.2332,0-0.4662,0.0666-0.6661,0.1666l-4.2965,2.2315
		c-0.2332,0.0999-0.4662,0.0999-0.6661-0.0333c-0.1999-0.1332-0.2998-0.3664-0.2665-0.5995l0.8327-4.7628
		c0.0666-0.4662-0.0666-0.9326-0.3997-1.2657L1.0479,8.5177C0.8813,8.3512,0.8147,8.1181,0.8813,7.885
		c0.0666-0.2332,0.2665-0.3998,0.4996-0.4331l4.8293-0.6994c0.4664-0.0666,0.866-0.3664,1.0659-0.766l2.1649-4.3298
		c0.0999-0.2332,0.3331-0.3331,0.5662-0.3331c0.2332,0,0.4662,0.1332,0.5662,0.3331l2.1649,4.3298
		c0.1999,0.4329,0.5995,0.6994,1.0658,0.766l4.8294,0.6994c0.2332,0.0333,0.4329,0.1999,0.4996,0.4329
		c0.0666,0.2332,0,0.4662-0.1666,0.6328l-3.4639,3.3972C15.1364,12.2148,15.0031,12.681,15.0697,13.1474z"/>
</g>
<path fill="currentColor" opacity="0.15" d="M17.1126,15.1497l0.8327,4.7628c0.0333,0.2332-0.0666,0.4662-0.2665,0.5995
	c-0.1999,0.1333-0.4329,0.1666-0.6661,0.0333l-4.3298-2.2648c-0.1999-0.0999-0.4329-0.1666-0.6661-0.1666
	s-0.4662,0.0666-0.6661,0.1666l-4.3298,2.2648c-0.2332,0.0999-0.4662,0.0999-0.6661-0.0333
	c-0.1999-0.1332-0.2998-0.3664-0.2665-0.5995l0.8327-4.7628c0.0666-0.4662-0.0666-0.9326-0.3997-1.2657L3.024,10.5201
	c-0.1666-0.1666-0.2332-0.3998-0.1666-0.6328C2.924,9.6541,3.1239,9.4876,3.3571,9.4543l4.8627-0.6994
	c0.4662-0.0666,0.866-0.3664,1.0658-0.766l2.1649-4.3298c0.0999-0.2332,0.3331-0.3331,0.5662-0.3331s0.4662,0.1332,0.5662,0.3331
	l2.1649,4.3298c0.1999,0.4329,0.5995,0.6994,1.0658,0.766l4.8294,0.6994c0.2332,0.0333,0.4329,0.1999,0.4996,0.4329
	c0.0666,0.2332,0,0.4662-0.1666,0.6328l-3.4639,3.3639C17.1791,14.2171,17.0126,14.6833,17.1126,15.1497z"/>
</svg>
