<?xml version="1.0" encoding="utf-8"?>
<!-- Generator: Adobe Illustrator 23.1.1, SVG Export Plug-In . SVG Version: 6.00 Build 0)  -->
<svg version="1.1" id="Ebene_1" xmlns="http://www.w3.org/2000/svg" xmlns:xlink="http://www.w3.org/1999/xlink" x="0px" y="0px"
	 viewBox="0 0 24 24" xml:space="preserve">

<g>
	<path fill="currentColor" id="Shape" d="M22.9983,10.9508c0.4662-0.4329,0.5995-1.0991,0.4329-1.6986c-0.1999-0.5995-0.6994-1.0325-1.3322-1.1324
		l-5.5622-0.7993c-0.2332-0.0333-0.4329-0.1666-0.5329-0.3997l-2.5313-4.9959c-0.2665-0.5662-0.8327-0.9326-1.4654-0.9326
		s-1.1991,0.3664-1.4654,0.9326L8.0438,6.954C7.9439,7.1538,7.744,7.3204,7.5108,7.3537L1.9154,8.153
		c-0.6328,0.1-1.1324,0.5329-1.3322,1.1325c-0.1998,0.5995-0.0333,1.2323,0.4331,1.6986l4.03,3.9301
		c0.1666,0.1666,0.2665,0.3997,0.1999,0.6328l-0.9659,5.5289c-0.0999,0.6328,0.1332,1.2324,0.6661,1.5987
		c0.4996,0.3664,1.1658,0.4329,1.7319,0.1332l4.9626-2.5979c0.1999-0.0999,0.4662-0.0999,0.6661,0l4.9626,2.5979
		c0.2332,0.1332,0.4996,0.1999,0.766,0.1999c0.3331,0,0.6661-0.0999,0.9659-0.2998c0.4996-0.3664,0.766-0.9992,0.6661-1.5987
		l-0.9659-5.5289c-0.0333-0.2332,0.0333-0.4662,0.1999-0.6328L22.9983,10.9508z"/>
</g>
</svg>
