<?xml version="1.0" encoding="utf-8"?>
<!-- Generator: Adobe Illustrator 23.1.1, SVG Export Plug-In . SVG Version: 6.00 Build 0)  -->
<svg version="1.1" id="Ebene_1" xmlns="http://www.w3.org/2000/svg" x="0px" y="0px"
     viewBox="0 0 24 24" xml:space="preserve">
<g>
	<g transform="translate(1 14)">
		<g>
			<path fill="currentColor" d="M21.3933,3.0574H19.066c-0.0597,0-0.1194,0.0098-0.1691,0.0298C18.6284,0.939,16.8481-0.722,14.6998-0.722
				c-2.1383,0-3.9087,1.651-4.1872,3.7794h-9.906C0.2785,3.0574,0,3.3359,0,3.6641s0.2785,0.6067,0.6067,0.6067h9.906
				c0.2785,2.1284,2.0488,3.7794,4.1872,3.7794c2.1483,0,3.9286-1.6609,4.1971-3.8092c0.0497,0.0199,0.1094,0.0298,0.1691,0.0298
				h2.3273C21.7215,4.2708,22,3.9923,22,3.6641S21.7215,3.0574,21.3933,3.0574z M14.6998,6.8368
				c-1.6709,0-3.0335-1.4222-3.0335-3.1727s1.3626-3.1727,3.0335-3.1727c1.671,0,3.0335,1.4222,3.0335,3.1727
				S16.3707,6.8368,14.6998,6.8368z"/>
		</g>
	</g>
	<g transform="matrix(-1 0 0 1 23 2)">
		<g>
			<path fill="currentColor" d="M0.6067,3.7193h9.906c0.2785-2.1284,2.0488-3.7694,4.1872-3.7694c2.1483,0,3.9286,1.651,4.1971,3.7992
				c0.0497-0.0199,0.1094-0.0298,0.1691-0.0298h2.3273C21.7215,3.7192,22,3.9976,22,4.3259c0,0.3282-0.2785,0.5967-0.6067,0.5967
				H19.066c-0.0597,0-0.1194-0.0099-0.1691-0.0298c-0.2685,2.1483-2.0488,3.8192-4.1971,3.8192
				c-2.1383,0-3.9185-1.651-4.1971-3.7893h-9.896C0.2785,4.9226,0,4.6541,0,4.3259C0,3.9976,0.2785,3.7193,0.6067,3.7193z
				 M14.6998,7.5086c1.671,0,3.0335-1.4322,3.0335-3.1826s-1.3626-3.1826-3.0335-3.1826s-3.0335,1.4322-3.0335,3.1826
				S13.0289,7.5086,14.6998,7.5086z"/>
		</g>
	</g>
</g>
</svg>
