<?xml version="1.0" encoding="utf-8"?>
<!-- Generator: Adobe Illustrator 24.3.0, SVG Export Plug-In . SVG Version: 6.00 Build 0)  -->
<svg version="1.1" id="Ebene_1" xmlns="http://www.w3.org/2000/svg" xmlns:xlink="http://www.w3.org/1999/xlink" x="0px" y="0px"
	 viewBox="0 0 24 24" style="enable-background:new 0 0 24 24;" xml:space="preserve">
<style type="text/css">
	.st0{fill:none;}
</style>
<path class="st0" d="M0,0h24v24H0V0z"/>
<path d="M20,6h-2.2C17.9,5.7,18,5.3,18,5c0-1.7-1.3-3-3-3c-1.1,0-2,0.5-2.5,1.3L12,4l-0.5-0.7C11,2.5,10.1,2,9,2C7.3,2,6,3.3,6,5
	c0,0.3,0.1,0.7,0.2,1H4C2.9,6,2,6.9,2,8l0,11c0,1.1,0.9,2,2,2h16c1.1,0,2-0.9,2-2V8C22,6.9,21.1,6,20,6z M15,4c0.6,0,1,0.4,1,1
	s-0.4,1-1,1s-1-0.4-1-1S14.4,4,15,4z M9,4c0.6,0,1,0.4,1,1S9.6,6,9,6S8,5.6,8,5S8.4,4,9,4z M20,19H4v-2h16V19z M20,14H4V8h5.1
	L7,10.8L8.6,12L11,8.8l1-1.4l1,1.4l2.4,3.2l1.6-1.2L14.9,8H20V14z"/>
</svg>
