<?xml version="1.0" encoding="utf-8"?>
<!-- Generator: Adobe Illustrator 23.1.1, SVG Export Plug-In . SVG Version: 6.00 Build 0)  -->
<svg version="1.1" id="vorlage" xmlns="http://www.w3.org/2000/svg" x="0px" y="0px"
     viewBox="0 0 24 24" xml:space="preserve">
<path fill="currentColor" d="M13.5714,2.5714c-5.2067,0-9.4286,4.2219-9.4286,9.4286H1l4.0752,4.0752l0.0733,0.1467L9.381,12H6.2381
	c0-4.0543,3.279-7.3333,7.3333-7.3333S20.9048,7.9457,20.9048,12s-3.279,7.3333-7.3333,7.3333
	c-2.0219,0-3.8552-0.8276-5.1752-2.1581l-1.4876,1.4876c1.7076,1.7076,4.0543,2.7657,6.6629,2.7657
	C18.7781,21.4286,23,17.2067,23,12S18.7781,2.5714,13.5714,2.5714z M12.5238,7.8095v5.2381l4.4838,2.661l0.7543-1.2676
	l-3.6667-2.179V7.8095H12.5238z"/>
</svg>
