<?xml version="1.0" encoding="utf-8"?>
<!-- Generator: Adobe Illustrator 24.3.0, SVG Export Plug-In . SVG Version: 6.00 Build 0)  -->
<svg version="1.1" id="Ebene_1" xmlns="http://www.w3.org/2000/svg" x="0px" y="0px"
     viewBox="0 0 24 24" style="enable-background:new 0 0 24 24;" xml:space="preserve">
<style type="text/css">
	.st0{fill:currentColor;}
</style>
  <g id="Tabs-leftsidenavi-typo" transform="translate(-24.000000, -281.000000)">
		<g id="_x2F__x2F_-TABS" transform="translate(11.000000, 3.000000)">
			<g id="ico-info" transform="translate(13.000000, 278.000000)">
				<g>
					<path id="Path" class="st0" d="M12.7,6.5c0,0.6-0.5,1.1-1.1,1.1c-0.6,0-1.1-0.5-1.1-1.1s0.5-1.1,1.1-1.1
						C12.3,5.4,12.7,5.9,12.7,6.5z"/>
          <path id="Path_1_" class="st0" d="M12.1,17.9c-0.4,0-0.6-0.3-0.6-0.6v-6.8h-0.9c-0.4,0-0.6-0.3-0.6-0.6c0-0.4,0.3-0.6,0.6-0.6
						h1.6c0.4,0,0.6,0.3,0.6,0.6v7.5C12.7,17.6,12.5,17.9,12.1,17.9z"/>
          <path id="Shape" class="st0" d="M12,23C6,23,1,18.1,1,12S6,1,12,1s11,5,11,11S18.1,23,12,23z M12,2.4c-5.3,0-9.6,4.3-9.6,9.6
						s4.3,9.6,9.6,9.6s9.6-4.3,9.6-9.6S17.3,2.4,12,2.4z"/>
          <path id="Path_2_" class="st0" d="M14.2,18.6H9.8c-0.4,0-0.7-0.4-0.7-0.7c0-0.4,0.4-0.7,0.7-0.7h4.4c0.4,0,0.7,0.4,0.7,0.7
						C14.9,18.2,14.6,18.6,14.2,18.6z"/>
				</g>
			</g>
		</g>
</g>
</svg>
