<?xml version="1.0" encoding="utf-8"?>
<!-- Generator: Adobe Illustrator 23.1.1, SVG Export Plug-In . SVG Version: 6.00 Build 0)  -->
<svg version="1.1" id="Ebene_1" xmlns="http://www.w3.org/2000/svg" xmlns:xlink="http://www.w3.org/1999/xlink" x="0px" y="0px"
	 viewBox="0 0 24 24" xml:space="preserve">
<style type="text/css">
	.st1{fill:url(#SVGID_1_);}
	.st2{fill:url(#SVGID_2_);}
	.st3{fill:#C837AB;}
</style>
<g>
	<g id="social-instagram">
		<g id="Rectangle-path">

				<radialGradient id="SVGID_1_" cx="1.3648" cy="1.6824" r="0.3879" gradientTransform="matrix(23 0 0 23 -21.5 -21.5)" gradientUnits="userSpaceOnUse">
				<stop  offset="0" style="stop-color:#FFDD55"/>
				<stop  offset="0.1" style="stop-color:#FFDD55"/>
				<stop  offset="0.5" style="stop-color:#FF543E"/>
				<stop  offset="1" style="stop-color:#C837AB"/>
			</radialGradient>
			<path class="st1" d="M16.125,21H7.8749c-2.7,0-4.875-2.175-4.875-4.875V7.8749c0-2.7,2.175-4.875,4.875-4.875h8.25
				c2.7,0,4.875,2.175,4.875,4.875v8.25C21,18.8251,18.8251,21,16.125,21z M7.8749,3.75c-2.25,0-4.1251,1.875-4.1251,4.1251v8.25
				c0,2.25,1.875,4.1251,4.1251,4.1251h8.25c2.25,0,4.1251-1.875,4.1251-4.1251V7.8749c0-2.25-1.875-4.1251-4.1251-4.1251
				L7.8749,3.75L7.8749,3.75z"/>
		</g>
		<g id="Oval">

				<radialGradient id="SVGID_2_" cx="1.3215" cy="1.6511" r="0.4026" gradientTransform="matrix(12 0 0 12 -5 -5)" gradientUnits="userSpaceOnUse">
				<stop  offset="0" style="stop-color:#FFDD55"/>
				<stop  offset="0.1" style="stop-color:#FFDD55"/>
				<stop  offset="0.5" style="stop-color:#FF543E"/>
				<stop  offset="1" style="stop-color:#C837AB"/>
			</radialGradient>
			<path class="st2" d="M12,16.875c-2.7,0-4.875-2.175-4.875-4.875S9.3,7.125,12,7.125S16.875,9.3,16.875,12S14.7,16.875,12,16.875z
				 M12,7.8749C9.75,7.8749,7.8749,9.75,7.8749,12S9.75,16.1251,12,16.1251S16.125,14.25,16.125,12S14.25,7.8749,12,7.8749z"/>
		</g>
		<g>
			<path class="st3" d="M17.2501,8.25c-0.825,0-1.5-0.675-1.5-1.5s0.675-1.5,1.5-1.5s1.5,0.675,1.5,1.5S18.075,8.25,17.2501,8.25z
				 M17.2501,6c-0.45,0-0.75,0.3-0.75,0.75c0,0.45,0.3,0.7499,0.75,0.7499s0.75-0.3,0.75-0.75C18.0001,6.2999,17.7001,6,17.2501,6z"
				/>
		</g>
	</g>
</g>
</svg>
