<svg width="25" height="24" viewBox="0 0 25 24" fill="none" xmlns="http://www.w3.org/2000/svg">
<path d="M11.5 17H7.5C6.11667 17 4.9375 16.5125 3.9625 15.5375C2.9875 14.5625 2.5 13.3833 2.5 12C2.5 10.6167 2.9875 9.4375 3.9625 8.4625C4.9375 7.4875 6.11667 7 7.5 7H11.5V9H7.5C6.66667 9 5.95833 9.29167 5.375 9.875C4.79167 10.4583 4.5 11.1667 4.5 12C4.5 12.8333 4.79167 13.5417 5.375 14.125C5.95833 14.7083 6.66667 15 7.5 15H11.5V17ZM8.5 13V11H16.5V13H8.5ZM13.5 17V15H17.5C18.3333 15 19.0417 14.7083 19.625 14.125C20.2083 13.5417 20.5 12.8333 20.5 12C20.5 11.1667 20.2083 10.4583 19.625 9.875C19.0417 9.29167 18.3333 9 17.5 9H13.5V7H17.5C18.8833 7 20.0625 7.4875 21.0375 8.4625C22.0125 9.4375 22.5 10.6167 22.5 12C22.5 13.3833 22.0125 14.5625 21.0375 15.5375C20.0625 16.5125 18.8833 17 17.5 17H13.5Z" fill="currentColor"/>
</svg>
