<?xml version="1.0" encoding="utf-8"?>
<!-- Generator: Adobe Illustrator 24.3.0, SVG Export Plug-In . SVG Version: 6.00 Build 0)  -->
<svg version="1.1" id="Ebene_1" xmlns="http://www.w3.org/2000/svg" x="0px" y="0px"
     viewBox="0 0 24 24" style="enable-background:new 0 0 24 24;" xml:space="preserve">
		<path fill="currentColor" d="M18,9.3334h-0.6667V6.6667c0-2.9413-2.392-5.3333-5.3333-5.3333s-5.3333,2.392-5.3333,5.3333
			v2.6667H6c-1.1022,0-2,0.8969-2,2v9.3333c0,1.1031,0.8978,2,2,2h12c1.1022,0,2-0.8969,2-2v-9.3333
			C20,10.2303,19.1022,9.3334,18,9.3334z M8.6667,6.762c0-1.8909,1.6445-3.4286,3.6667-3.4286s2.9755,1.5377,2.9755,3.4286v2.5714
			H8.6667V6.762z M13.1667,16.5237v1.9526c0,0.4731-0.3725,0.8571-0.8333,0.8571s-0.8333-0.384-0.8333-0.8571v-1.9526
			c-0.4958-0.2974-0.8333-0.8443-0.8333-1.476c0-0.9454,0.7475-1.7143,1.6667-1.7143s1.6667,0.7689,1.6667,1.7143
			C14,15.6794,13.6625,16.2262,13.1667,16.5237z"/>
</svg>
