<?xml version="1.0" encoding="utf-8"?>
<!-- Generator: Adobe Illustrator 23.1.1, SVG Export Plug-In . SVG Version: 6.00 Build 0)  -->
<svg version="1.1" id="vorlage" xmlns="http://www.w3.org/2000/svg" x="0px" y="0px"
     viewBox="0 0 24 24" xml:space="preserve">
<style type="text/css">
	.st0{fill:currentColor;}
</style>
<g id="logout" transform="translate(-1572.000000, -333.000000)">
	<g transform="translate(1548.000000, 310.000000)">
		<g transform="translate(24.000000, 23.000000)">
			<path class="st0" d="M16.7,15.8c-0.2,0.3-0.2,0.7,0.1,1c0.3,0.3,0.7,0.2,1-0.1l3.4-4.2c0.2-0.3,0.2-0.7,0-0.9l-3.4-4.2
				c-0.3-0.3-0.7-0.3-1-0.1s-0.3,0.6-0.1,0.9l2.4,3.1H6.9c-0.4,0-0.7,0.3-0.7,0.7s0.3,0.7,0.7,0.7h12.3L16.7,15.8z M3.5,2.8h13.3
				c0.4,0,0.7,0.3,0.7,0.7s-0.3,0.7-0.7,0.7H4.2v15.6h12.6c0.4,0,0.7,0.3,0.7,0.7c0,0.4-0.3,0.7-0.7,0.7H3.5c-0.4,0-0.7-0.3-0.7-0.7
				v-17C2.8,3.1,3.1,2.8,3.5,2.8z"/>
		</g>
	</g>
</g>
</svg>
