<?xml version="1.0" encoding="utf-8"?>
<!-- Generator: Adobe Illustrator 23.1.1, SVG Export Plug-In . SVG Version: 6.00 Build 0)  -->
<svg version="1.1" id="Ebene_1" xmlns="http://www.w3.org/2000/svg" x="0px" y="0px"
     viewBox="0 0 24 24" xml:space="preserve">
<g>
	<g id="email-action-unread" transform="translate(0.000000, 4.000000)">
		<g id="Rectangle-path">
			<path fill="currentColor" d="M19.92,0.92H4.08C2.92,0.92,2,1.83,2,3v10c0,1.17,0.92,2.08,2.08,2.08h15.84c1.16,0,2.08-0.91,2.08-2.08V3
				C22,1.83,21.08,0.92,19.92,0.92z M4.08,1.75h15.84c0.26,0,0.5,0.09,0.71,0.24L12,9.08L3.37,1.99C3.58,1.84,3.82,1.75,4.08,1.75z
				 M21.17,13c0,0.67-0.59,1.25-1.25,1.25H4.08c-0.66,0-1.25-0.58-1.25-1.25V3c0-0.11,0.02-0.22,0.05-0.32L11.75,10
				c0.08,0.08,0.17,0.08,0.25,0.08s0.17-0.08,0.25-0.16l8.87-7.25c0.03,0.11,0.05,0.22,0.05,0.33V13z"/>
		</g>
	</g>
</g>
</svg>
