<?xml version="1.0" encoding="utf-8"?>
<!-- Generator: Adobe Illustrator 24.3.0, SVG Export Plug-In . SVG Version: 6.00 Build 0)  -->
<svg version="1.1" id="Ebene_1" xmlns="http://www.w3.org/2000/svg" x="0px" y="0px"
     viewBox="0 0 24 24" style="enable-background:new 0 0 24 24;" xml:space="preserve">
	<g id="Tabs-leftsidenavi-typo" transform="translate(-30.000000, -12.000000)">
		<g id="_x2F__x2F_-TABS" transform="translate(11.000000, 3.000000)">
			<g id="Group" transform="translate(8.000000, 0.000000)">
				<g id="Group-3" transform="translate(11.000000, 9.000000)">
					<path fill="currentColor" d="M5.7,20.9c-0.4-0.2-0.7-0.6-0.7-1V4.2c0-0.4,0.3-0.8,0.7-1c0.4-0.3,0.9-0.2,1.2,0L18.5,11
						c0.3,0.3,0.5,0.6,0.5,1s-0.2,0.7-0.5,1c0,0-8.7,5.9-11.6,7.8C6.7,20.9,6.3,21.2,5.7,20.9z M7,6v12l9-6L7,6z"/>
				</g>
			</g>
		</g>
</g>
</svg>
