<?xml version="1.0" encoding="utf-8"?>
<svg version="1.1" id="Ebene_1" xmlns="http://www.w3.org/2000/svg" x="0px" y="0px"
     viewBox="0 0 56 56" style="enable-background:new 0 0 56 56;" xml:space="preserve">

	<g id="Alert-new-Feature-S" transform="translate(-284.000000, -537.000000)">
		<g id="megaphone" transform="translate(284.000000, 537.000000)">
			<path id="Path_1_" fill="#2F4859" d="M14.031,21.8846c-0.1658,0-0.3002,0.196-0.3002,0.4376v4.5606
				c0,0.2417,0.1344,0.4376,0.3002,0.4376h1.0587v-5.4359H14.031L14.031,21.8846z"/>
			<path id="Path_2_" fill="#64798A" d="M39.5513,21.8846v6.7949c2.2516,0,4.0769-1.5211,4.0769-3.3974
				C43.6282,23.4058,41.8029,21.8846,39.5513,21.8846z"/>
			<rect id="Rectangle" x="38.1923" y="12.3718" fill="#D15241" width="1.359" height="25.8205"/>
			<path id="Path_3_" fill="#EBF0F3" d="M36.8333,12.3718v25.8205c0,0-4.4525-6.4902-12.2308-8.3534v-9.1139
				C32.3808,18.862,36.8333,12.3718,36.8333,12.3718z"/>
			<path id="Path_4_" fill="#3A556A" d="M23.865,20.5256h-9.3966c-0.4074,0-0.7376,0.3145-0.7376,0.7024v8.1081
				c0,0.3879,0.3302,0.7024,0.7376,0.7024h9.3966c0.4074,0,0.7376-0.3145,0.7376-0.7024V21.228
				C24.6026,20.8402,24.2723,20.5256,23.865,20.5256z"/>
			<path id="Path_5_" fill="#D15241" d="M24.7199,41.0372l-2.0139-9.6397h-6.2573l1.9465,11.7515
				c0.0387,0.2753,0.2661,0.4792,0.534,0.4792h5.7838h0.0069v-0.0007c0.6863-0.0038,1.2417-0.5818,1.2417-1.2952
				C25.9615,41.6191,25.4061,41.0411,24.7199,41.0372z"/>
			<g id="Group" transform="translate(15.794872, 22.974359)">
				<rect id="Rectangle_1_" x="0.7324" y="0.274" fill="#64798A" width="8.0085" height="0.9464"/>
				<rect id="Rectangle_2_" x="0.7324" y="2.5957" fill="#64798A" width="8.0085" height="0.9464"/>
				<rect id="Rectangle_3_" x="0.7324" y="4.915" fill="#64798A" width="8.0085" height="0.9464"/>
			</g>
		</g>
	</g>
</svg>
