<?xml version="1.0" encoding="utf-8"?>
<!-- Generator: Adobe Illustrator 25.0.1, SVG Export Plug-In . SVG Version: 6.00 Build 0)  -->
<svg version="1.1" id="Layer_1" xmlns="http://www.w3.org/2000/svg" xmlns:xlink="http://www.w3.org/1999/xlink" x="0px" y="0px"
	 viewBox="0 0 24 24" style="enable-background:new 0 0 24 24;" xml:space="preserve">
<style type="text/css">
	.st0{fill-rule:evenodd;clip-rule:evenodd;}
</style>
<g>
	<g>
		<g>
			<path class="st0" d="M16.5,1h-9C6.1,1,5,2.1,5,3.5v17C5,21.9,6.1,23,7.5,23h9c1.4,0,2.5-1.1,2.5-2.5v-17C19,2.1,17.9,1,16.5,1z
				 M11,20c0-0.6,0.4-1,1-1s1,0.4,1,1s-0.4,1-1,1S11,20.6,11,20z M18,18H6V3.5C6,2.7,6.7,2,7.5,2h9C17.3,2,18,2.7,18,3.5V18z"/>
		</g>
	</g>
</g>
</svg>
