<?xml version="1.0" encoding="utf-8"?>
<!-- Generator: Adobe Illustrator 24.1.0, SVG Export Plug-In . SVG Version: 6.00 Build 0)  -->
<svg version="1.1" id="vorlage" xmlns="http://www.w3.org/2000/svg" x="0px" y="0px"
     viewBox="0 0 24 24" xml:space="preserve">
<g>
	<g>
		<g>
			<path fill="currentColor" d="M16.1,12h-2.4c-0.3,0-0.6,0.3-0.6,0.6v4.8c0,0.3,0.3,0.6,0.6,0.6h2.4c0.7,0,1.2-0.5,1.2-1.2v-3.6
				C17.3,12.6,16.8,12,16.1,12z M16.1,16.8h-1.8v-3.6h1.8V16.8z"/>
			<path fill="currentColor" d="M21.5,13.2V12h-3c-0.3,0-0.6,0.3-0.6,0.6V18h1.2v-2.4h2.4v-1.2h-2.4v-1.2H21.5z"/>
			<path fill="currentColor" d="M3.6,19.8V4.3c0-0.3,0.3-0.6,0.6-0.6h8.9v2.4c0,0.7,0.5,1.2,1.2,1.2h2.4v1.8h1.2V6.7c0-0.2-0.1-0.3-0.2-0.4l-3.6-3.6
				c-0.1-0.1-0.3-0.2-0.4-0.2H4.2c-1,0-1.8,0.8-1.8,1.8v15.5c0,1,0.8,1.8,1.8,1.8h4.2v-1.2H4.2C3.9,20.4,3.6,20.1,3.6,19.8z"/>
			<path fill="currentColor" d="M11.4,12H9c-0.3,0-0.6,0.3-0.6,0.6V18h1.2v-1.8h1.8c0.7,0,1.2-0.5,1.2-1.2v-1.8C12.6,12.6,12,12,11.4,12z M11.4,15H9.6
				v-1.8h1.8V15z"/>
		</g>
	</g>
</g>
</svg>
