<?xml version="1.0" encoding="utf-8"?>
<!-- Generator: Adobe Illustrator 23.1.1, SVG Export Plug-In . SVG Version: 6.00 Build 0)  -->
<svg version="1.1" id="Ebene_1" xmlns="http://www.w3.org/2000/svg" x="0px" y="0px"
     viewBox="0 0 24 24" xml:space="preserve">
<g>
	<g id="phone">
		<g id="Shape">
			<path fill="currentColor" d="M16.5696,21c-0.8399,0-1.6797-0.229-2.4432-0.7635l0,0c-4.123-2.7487-7.6352-6.2609-10.3839-10.3839
				C2.5971,8.0202,2.8263,5.6532,4.3532,4.1262l0.6109-0.6109c0.6871-0.6871,1.8325-0.6871,2.5196,0l2.5196,2.5196
				c0.3054,0.3054,0.5345,0.7635,0.5345,1.298s-0.229,0.9162-0.5345,1.2216c-0.4581,0.3817-0.4581,1.069,0,1.4507l3.9703,3.9703
				c0.3817,0.3817,1.069,0.3817,1.4507,0c0.6871-0.6871,1.8325-0.6871,2.5196,0l2.5196,2.5196c0.6871,0.6871,0.6871,1.8325,0,2.5196
				l-0.6109,0.6109C18.9366,20.5419,17.7912,21,16.5696,21z M14.5081,19.6257L14.5081,19.6257
				c1.5271,0.9926,3.5122,0.7635,4.8102-0.5345l0.6109-0.6109c0.3817-0.3817,0.3817-1.069,0-1.4507L17.4096,14.51
				c-0.3817-0.3817-1.069-0.3817-1.4507,0c-0.6871,0.6871-1.8325,0.6871-2.5196,0l-3.9704-3.9703
				c-0.6871-0.6871-0.6871-1.8325,0-2.5196c0.229-0.229,0.3054-0.4581,0.3054-0.7635c0-0.3054-0.0764-0.5345-0.3054-0.7636
				L6.9493,4.1262c-0.3817-0.4581-1.069-0.4581-1.4507,0L4.8877,4.6607c-1.298,1.298-1.4506,3.2831-0.5345,4.8102
				C7.1019,13.5175,10.5378,16.877,14.5081,19.6257z"/>
		</g>
	</g>
</g>
</svg>
