<?xml version="1.0" encoding="utf-8"?>
<!-- Generator: Adobe Illustrator 23.1.1, SVG Export Plug-In . SVG Version: 6.00 Build 0)  -->
<svg version="1.1" id="Ebene_1" xmlns="http://www.w3.org/2000/svg" x="0px" y="0px"
     viewBox="0 0 40 40" style="enable-background:new 0 0 40 40;" xml:space="preserve">
<g transform="translate(-1521.000000, -484.000000)">
	<g  transform="translate(1522.000000, 485.000000)">
		<path fill="currentColor" d="M19,38C8.5048,38,0,29.4952,0,19S8.5048,0,19,0s19,8.5048,19,19S29.4952,38,19,38z M19,1.8095
			C9.5,1.8095,1.8095,9.5,1.8095,19S9.5,36.1905,19,36.1905S36.1905,28.5,36.1905,19S28.5,1.8095,19,1.8095z"/>
		<g transform="translate(11.000000, 9.000000)">
			<path fill="currentColor" d="M8,10.181c-2.8048,0-5.1571-2.3524-5.1571-5.1571S5.1952-0.1333,8-0.1333s5.1571,2.3524,5.1571,5.1571
				S10.8048,10.181,8,10.181z M8,1.4952c-1.9905,0-3.5286,1.6286-3.5286,3.5286S6.0095,8.5524,8,8.5524s3.5286-1.6286,3.5286-3.5286
				S9.9905,1.4952,8,1.4952z"/>
			<path fill="currentColor" d="M15.5095,19.8619c-0.4524,0-0.8143-0.3619-0.8143-0.8143c0-3.7095-2.9857-6.6952-6.6952-6.6952
				s-6.6952,2.9857-6.6952,6.6952c0,0.4524-0.3619,0.8143-0.8143,0.8143S-0.3238,19.5-0.3238,19.0476
				c0-4.6143,3.7095-8.3238,8.3238-8.3238s8.3238,3.7095,8.3238,8.3238C16.3238,19.5,15.9619,19.8619,15.5095,19.8619z"/>
		</g>
	</g>
</g>
</svg>
