<?xml version="1.0" encoding="utf-8"?>
<!-- Generator: Adobe Illustrator 24.3.0, SVG Export Plug-In . SVG Version: 6.00 Build 0)  -->
<svg version="1.1" id="Ebene_1" xmlns="http://www.w3.org/2000/svg" x="0px" y="0px"
     viewBox="0 0 24 24" style="enable-background:new 0 0 24 24;" xml:space="preserve">
	<g id="PAC-user-view-locked-sections" transform="translate(-1163.000000, -28.000000)">
		<g id="Publizieren" transform="translate(1147.000000, 20.000000)">
			<g id="upload" transform="translate(16.000000, 8.000000)">
				<path fill="currentColor" d="M20.5,8.7c0.1-0.3,0.1-0.7,0.1-1C20.6,4.6,18,2,14.8,2c-2.4,0-4.5,1.5-5.3,3.7
					C8,5.2,6.3,5.9,5.7,7.3c0,0.2-0.1,0.2-0.1,0.4C3.3,8.1,1.7,10.2,2,12.5c0.3,2.1,2.1,3.7,4.3,3.7h3.6c0.4,0,0.8-0.3,0.8-0.7
					s-0.3-0.7-0.8-0.7H6.2c-1.6,0-2.8-1.2-2.8-2.8s1.3-2.8,2.8-2.8C6.6,9.1,7,8.8,7,8.4C7,7.6,7.6,7,8.4,7c0.3,0,0.8,0.2,1,0.4
					c0.3,0.2,0.8,0.2,1,0c0.1-0.1,0.2-0.2,0.2-0.4c0.4-2.3,2.6-3.9,4.9-3.5s3.9,2.6,3.5,4.9c0,0.2-0.1,0.2-0.1,0.4
					c-0.1,0.3,0,0.6,0.3,0.7c1.3,0.8,1.7,2.7,0.8,4c-0.5,0.8-1.4,1.2-2.3,1.2h-2.2c-0.4,0-0.8,0.3-0.8,0.7s0.3,0.7,0.8,0.7h2.2
					c2.3,0,4.3-1.9,4.3-4.3C22,10.7,21.4,9.5,20.5,8.7z"/>
        <path fill="currentColor" d="M16.8,12.2l-3.6-3.6c-0.1-0.1-0.2-0.1-0.3-0.2c-0.2-0.1-0.3-0.1-0.6,0c-0.1,0-0.2,0.1-0.3,0.2
					l-3.5,3.6c-0.3,0.2-0.3,0.7,0,1c0.3,0.2,0.8,0.2,1,0l2.3-2.3v10.4c0,0.4,0.3,0.7,0.8,0.7c0.4,0,0.8-0.3,0.8-0.7V10.8l2.3,2.3
					c0.3,0.2,0.8,0.2,1,0C17.1,12.9,17.1,12.5,16.8,12.2z"/>
			</g>
		</g>
	</g>
</svg>
