<?xml version="1.0" encoding="UTF-8"?>
<svg width="37px" height="24px" viewBox="0 0 35 24" version="1.1" xmlns="http://www.w3.org/2000/svg" xmlns:xlink="http://www.w3.org/1999/xlink">Ø
	<g id="Page-1" stroke="none" stroke-width="1" fill="none" fill-rule="evenodd">
		<g id="PAC-Welcome" transform="translate(-814.000000, -350.000000)">
			<g id="Group-3" transform="translate(562.000000, 193.000000)">
				<g id="logo-play-rsi-header" transform="translate(252.000000, 157.000000)">
					<g id="Group" fill="#AF001E">
						<path d="M0.117443038,24 L34.117443,24 L34.117443,0 L0.117443038,0 C0.117443038,0 0.117443038,24 0.117443038,24 Z" id="Path">
						</path>
					</g>
					<path d="M28,17.4043433 C28,17.7766287 27.8900749,17.9007239 27.5342157,17.9007239 L25.8667081,17.9007239 C25.5108489,17.9007239 25.4009238,17.7766287 25.4009238,17.4043433 L25.4009238,6.63288521 C25.4009238,6.26059979 25.5108489,6.13650465 25.8667081,6.13650465 L27.5342157,6.13650465 C27.8900749,6.13650465 28,6.27300931 28,6.63288521 L28,17.4043433 Z M18.3610604,18 C17.0727012,18 15.7610527,17.914088 15.2337849,17.8386763 C14.9878508,17.8004932 14.8658153,17.6897622 14.9021465,17.4167528 L15.1229282,16.0144778 C15.1974537,15.6173733 15.3194892,15.5562803 15.7973838,15.5677353 C16.2510577,15.6059184 17.5636378,15.7166494 18.3237977,15.7166494 C19.9913054,15.7166494 20.6788029,15.5429162 20.6788029,14.5129266 C20.6788029,13.8179938 20.2130187,13.4953464 19.10911,13.1975181 L17.7723091,12.8500517 C16.0060552,12.4033092 15.0008928,11.2864529 15.0008928,9.40020683 C15.0008928,7.31540848 16.4476187,6 19.4277064,6 C20.8995847,6 22.0528665,6.0868666 22.5801343,6.16132368 C22.8130264,6.1995068 22.9350619,6.31023785 22.8987307,6.58324716 L22.677949,7.96070321 C22.6034235,8.37117174 22.4692776,8.41985522 22.0034934,8.38262668 C21.101735,8.3063559 20.1974615,8.26502267 19.292629,8.25853154 C18.4588751,8.25853154 17.5878586,8.43226474 17.5878586,9.38779731 C17.5878586,10.0579111 18.0052013,10.3557394 18.912549,10.5915202 L20.2493498,10.9389866 C22.6406863,11.5594623 23.3281838,12.7507756 23.3281838,14.3391934 C23.3281838,17.0444674 21.2302915,18 18.3610604,18 Z M13.0380779,17.8883144 L11.0631526,17.8883144 C10.6346311,17.8883144 10.4874432,17.7642192 10.3029927,17.4539814 L8.15759034,13.5449845 C8.02251291,13.3216132 7.97313977,13.1851086 7.97313977,12.9989659 C7.97313977,12.9369183 7.99736056,12.8252327 8.04766526,12.6018614 L8.23118426,11.8324716 C8.40259287,11.1375388 8.57400147,11.3733195 9.08915887,11.1499483 C9.50650157,10.9762151 9.9229127,10.6783868 9.9229127,9.74767322 C9.9229127,8.71768356 9.39564492,8.32057911 8.31688856,8.32057911 L6.60000776,8.32057911 L6.60000776,17.4043433 C6.60000776,17.7766287 6.48915111,17.9007239 6.1342235,17.9007239 L4.46578426,17.9007239 C4.10992509,17.9007239 4,17.7766287 4,17.4043433 L4,6.63288521 C4,6.26059979 4.10992509,6.13650465 4.46578426,6.13650465 L8.50040756,6.13650465 C11.2848659,6.13650465 12.5480728,7.41563917 12.5480728,9.69708058 C12.5480728,11.4601861 11.5540892,12.2668046 10.6709622,12.8376422 L13.3073012,17.2668841 C13.6026084,17.7269907 13.2961223,17.8873598 13.0380779,17.8873598 L13.0380779,17.8883144 Z" id="Shape" fill="#FFFFFF">
					</path>
				</g>
			</g>
		</g>
	</g>
</svg>
