<?xml version="1.0" encoding="UTF-8"?>
<svg width="37px" height="24px" viewBox="0 0 37 24" version="1.1" xmlns="http://www.w3.org/2000/svg" xmlns:xlink="http://www.w3.org/1999/xlink">
    <g id="Page-1" stroke="none" stroke-width="1" fill="none" fill-rule="evenodd">
        <g id="PAC-Welcome" transform="translate(-769.000000, -350.000000)">
            <g id="Group-3" transform="translate(562.000000, 193.000000)">
                <g id="logo-play-rtr-header" transform="translate(207.000000, 157.000000)">
                    <g id="Group" fill="#AF001E">
                        <path d="M0.07955,24 L36.39505,24 L36.39505,0 L0.07955,0 C0.07955,0 0.07955,24 0.07955,24 Z" id="Path"></path>
                    </g>
                    <path d="M33.6101947,17.9873551 L31.6387854,17.9873551 C31.2110268,17.9873551 31.064101,17.8609062 30.8809088,17.544784 L28.7383961,13.5616438 C28.6035591,13.3340358 28.5552038,13.194942 28.5552038,13.0052687 C28.5552038,12.9420443 28.5793815,12.8282403 28.6286667,12.6006322 L28.811859,11.8166491 C28.9708736,11.0958904 29.1549958,11.3487882 29.669236,11.1211802 C30.0849058,10.9441517 30.5015055,10.6406744 30.5015055,9.69230769 C30.5015055,8.64278188 29.9751764,8.23814542 28.8974107,8.23814542 L27.1835866,8.23814542 L27.1835866,17.4815595 C27.1835866,17.8609062 27.085946,17.9873551 26.7186315,17.9873551 L25.0540926,17.9873551 C24.698867,17.9873551 24.5891376,17.8609062 24.5891376,17.4815595 L24.5891376,6.50579557 C24.5891376,6.12644889 24.698867,6 25.0540926,6 L29.080603,6 C31.860104,6 33.121062,7.3024236 33.121062,9.62908325 C33.121062,11.4373024 32.128848,12.2592202 31.2482232,12.8408851 L33.8798686,17.3551106 C34.1737201,17.8229715 33.8677797,17.9873551 33.6101947,17.9873551 Z M23.1319686,7.7829294 C23.1319686,8.16227608 23.0222392,8.28872497 22.6670136,8.28872497 L19.5945909,8.28872497 L19.5945909,17.4942044 C19.5945909,17.8735511 19.4839316,18 19.1296359,18 L17.465097,18 C17.1098714,18 17.000142,17.8735511 17.000142,17.4942044 L17.0113009,17.4942044 L17.0113009,8.28872497 L13.9398081,8.28872497 C13.5845825,8.28872497 13.4748531,8.14963119 13.4748531,7.7829294 L13.4748531,6.51844046 C13.4748531,6.13909378 13.5724937,6.01264489 13.9398081,6.01264489 L22.6679435,6.01264489 C23.0231692,6.01264489 23.1328985,6.15173867 23.1328985,6.51844046 L23.1328985,7.7829294 L23.1319686,7.7829294 Z M13.021057,17.9873551 L11.0496478,17.9873551 C10.6218892,17.9873551 10.4749634,17.8609062 10.2908412,17.544784 L8.14925848,13.5616438 C8.01442153,13.3340358 7.9651363,13.194942 7.9651363,13.0052687 C7.9651363,12.9420443 7.99024387,12.8282403 8.0395291,12.6006322 L8.22272137,11.8166491 C8.39382482,11.0958904 8.56492826,11.3487882 9.0791685,11.1211802 C9.49576818,10.9441517 9.91143796,10.6406744 9.91143796,9.69230769 C9.91143796,8.64278188 9.38510889,8.23814542 8.30827309,8.23814542 L6.59444894,8.23814542 L6.59444894,17.4815595 C6.59444894,17.8609062 6.49680839,17.9873551 6.12949393,17.9873551 L4.46495501,17.9873551 C4.10972938,17.9873551 4,17.8609062 4,17.4815595 L4,6.50579557 C4,6.12644889 4.10972938,6 4.46495501,6 L8.49146537,6 C11.2709664,6 12.5319244,7.3024236 12.5319244,9.62908325 C12.5319244,11.4373024 11.5397104,12.2592202 10.6581557,12.8408851 L13.289801,17.3551106 C13.5836526,17.8229715 13.2777122,17.9873551 13.021057,17.9873551 Z" id="Shape" fill="#FFFFFF"></path>
                </g>
            </g>
        </g>
    </g>
</svg>
