<?xml version="1.0" encoding="UTF-8"?>
<svg width="37px" height="24px" viewBox="0 0 37 24" version="1.1" xmlns="http://www.w3.org/2000/svg" xmlns:xlink="http://www.w3.org/1999/xlink">
    <g id="Page-1" stroke="none" stroke-width="1" fill="none" fill-rule="evenodd">
        <g id="PAC-Welcome" transform="translate(-724.000000, -350.000000)">
            <g id="Group-3" transform="translate(562.000000, 193.000000)">
                <g id="logo-play-rts-header" transform="translate(162.000000, 157.000000)">
                    <g id="Group" fill="#AF001E">
                        <path d="M0.07955,24 L36.39505,24 L36.39505,0 L0.07955,0 C0.07955,0 0.07955,24 0.07955,24 Z" id="Path"></path>
                    </g>
                    <path d="M27.1012599,18 C25.8366776,18 24.5356976,17.9092934 24.0195987,17.8357734 C23.7881475,17.798536 23.6640224,17.6887333 23.6994867,17.4156588 L23.9132058,16.0063654 C23.9841344,15.6034373 24.1091927,15.5490134 24.5720952,15.5862508 C25.0172655,15.6225334 26.3173122,15.7313813 27.0657956,15.7313813 C28.7046197,15.7313813 29.3812413,15.5490134 29.3812413,14.5245067 C29.3812413,13.829408 28.9183388,13.5 27.8320112,13.2068746 L26.5132991,12.8593253 C24.7858143,12.4019733 23.7881475,11.28676 23.7881475,9.40197327 C23.7881475,7.31667728 25.2132524,6 28.1521232,6 C29.5949603,6 30.7354176,6.09070656 31.2515166,6.16422661 C31.4829678,6.20050923 31.6080261,6.3103119 31.5716286,6.58434118 L31.3588427,7.9563972 C31.2869809,8.35932527 31.1628558,8.41470401 30.6999533,8.37651178 C29.8111993,8.29907702 28.9199253,8.25677912 28.0279981,8.2495226 C27.2076528,8.2495226 26.3527765,8.43284532 26.3527765,9.38383195 C26.3527765,10.0607893 26.7634158,10.3529599 27.6537564,10.5907066 L28.9715352,10.9392107 C31.3233784,11.5598345 32,12.7495226 32,14.341184 C32,17.0480586 29.9337378,18 27.1012599,18 Z M22.8875408,7.86569064 C22.8875408,8.23138129 22.7802147,8.35932527 22.4237051,8.35932527 L19.3961736,8.35932527 L19.3961736,17.3956079 C19.3961736,17.7622533 19.2888474,17.8901973 18.9323378,17.8901973 L17.294447,17.8901973 C16.9379375,17.8901973 16.8306113,17.7622533 16.8306113,17.3956079 L16.8306113,8.36028008 L13.8030798,8.36028008 C13.4465702,8.36028008 13.3392441,8.23233609 13.3392441,7.86664545 L13.3392441,6.62253342 C13.3392441,6.25684278 13.4465702,6.12794398 13.8030798,6.12794398 L22.4237051,6.12794398 C22.7802147,6.12794398 22.8875408,6.25684278 22.8875408,6.62253342 L22.8875408,7.86664545 L22.8875408,7.86569064 Z M12.9062063,17.8901973 L10.9650023,17.8901973 C10.5375642,17.8901973 10.3947737,17.7622533 10.2165189,17.4509866 L8.09799347,13.5362826 C7.97293514,13.3166773 7.91880541,13.170592 7.91880541,12.9872693 C7.91880541,12.914704 7.93747084,12.8049013 7.98973402,12.585296 L8.16892207,11.8166773 C8.32851143,11.1215786 8.50676622,11.3593253 9.02286514,11.1397199 C9.43350443,10.957352 9.84227718,10.6642266 9.84227718,9.73233609 C9.84227718,8.7068746 9.32617825,8.30490134 8.25758283,8.30490134 L6.5655623,8.30490134 L6.5655623,17.3956079 C6.5655623,17.7622533 6.45916939,17.8901973 6.10172655,17.8901973 L4.46290247,17.8901973 C4.10732618,17.8901973 4,17.7622533 4,17.3956079 L4,6.62253342 C4,6.25684278 4.10732618,6.12794398 4.46290247,6.12794398 L8.43490434,6.12794398 C11.1787214,6.12794398 12.4255716,7.40929344 12.4255716,9.69605347 C12.4255716,11.4700827 11.445637,12.2749841 10.5730285,12.8421388 L13.1740551,17.2686187 C13.4587028,17.7269255 13.1553896,17.8911521 12.9062063,17.8911521 L12.9062063,17.8901973 Z" id="Shape" fill="#FFFFFF"></path>
                </g>
            </g>
        </g>
    </g>
</svg>
