<?xml version="1.0" encoding="utf-8"?>
<!-- Generator: Adobe Illustrator 23.1.1, SVG Export Plug-In . SVG Version: 6.00 Build 0)  -->
<svg version="1.1" id="vorlage" xmlns="http://www.w3.org/2000/svg" x="0px" y="0px"
     viewBox="0 0 24 24" xml:space="preserve">
<g id="Search">
	<g transform="translate(1.000000, 1.000000)">
		<g>
			<g id="Group" transform="translate(0.525000, 0.523810)">
				<g id="Stroke-4374">
					<path fill="currentColor" d="M21.3175,21.1349l-5.1456-5.1456c1.8902-1.7852,3.0453-4.3055,3.0453-7.1408c0-5.4606-4.4105-9.8711-9.8711-9.8711
						S-0.525,3.3879-0.525,8.8485s4.4105,9.8711,9.8711,9.8711c2.2053,0,4.3055-0.7351,5.9857-1.9952l5.2506,5.1456
						c0.105,0.105,0.21,0.105,0.315,0.105c0.105,0,0.315,0,0.42-0.105C21.5275,21.66,21.5275,21.3449,21.3175,21.1349z
						 M9.3461,17.6695c-4.9356,0-8.821-3.9905-8.821-8.821s3.9905-8.821,8.821-8.821s8.821,3.9905,8.821,8.821
						C18.2721,13.6791,14.2817,17.6695,9.3461,17.6695z"/>
				</g>
			</g>
		</g>
	</g>
</g>
</svg>
