<?xml version="1.0" encoding="utf-8"?>
<!-- Generator: Adobe Illustrator 24.3.0, SVG Export Plug-In . SVG Version: 6.00 Build 0)  -->
<svg version="1.1" id="Ebene_1" xmlns="http://www.w3.org/2000/svg" x="0px" y="0px"
     viewBox="0 0 24 24" style="enable-background:new 0 0 24 24;" xml:space="preserve">
<style type="text/css">
	.st0{fill:currentColor;}
</style>
    <g id="Tabs-leftsidenavi-typo" transform="translate(-27.000000, -80.000000)">
		<g id="_x2F__x2F_-TABS" transform="translate(11.000000, 3.000000)">
			<g id="ico-shows" transform="translate(8.000000, 69.000000)">
				<g>
					<g id="Group-3" transform="translate(8.000000, 8	.000000)">
						<path id="Rectangle" class="st0"
                              d="M4.5,3h5c1.1,0,2,0.9,2,2v4c0,1.1-0.9,2-2,2h-5c-1.1,0-2-0.9-2-2V5C2.5,3.9,3.4,3,4.5,3z"
                        />
                        <path id="Rectangle-Copy-20" class="st0" d="M4.5,13h5c1.1,0,2,0.9,2,2v4c0,1.1-0.9,2-2,2h-5c-1.1,0-2-0.9-2-2v-4
							C2.5,13.9,3.4,13,4.5,13z"/>
                        <path id="Rectangle-Copy-19" class="st0" d="M14.5,3h5c1.1,0,2,0.9,2,2v4c0,1.1-0.9,2-2,2h-5c-1.1,0-2-0.9-2-2V5
							C12.5,3.9,13.4,3,14.5,3z"/>
                        <path id="Rectangle-Copy-21" class="st0" d="M14.5,13h5c1.1,0,2,0.9,2,2v4c0,1.1-0.9,2-2,2h-5c-1.1,0-2-0.9-2-2v-4
							C12.5,13.9,13.4,13,14.5,13z"/>
					</g>
				</g>
		</g>
	</g>
</g>
</svg>
