<?xml version="1.0" encoding="utf-8"?>
<svg version="1.1" xmlns="http://www.w3.org/2000/svg"
     viewBox="0 0 24 24" style="enable-background:new 0 0 24 24;">
    <style type="text/css">
        .st0{fill:currentColor;}
    </style>
    <path class="st0"
          d="M4.7,7.5h14.5c0.5,0,0.9-0.4,0.9-0.9c0-0.5-0.4-0.9-0.9-0.9H4.7C4.2,5.6,3.8,6,3.8,6.5C3.8,7,4.2,7.5,4.7,7.5z"
    />
    <path class="st0"
          d="M7.5,3.8h9.1c0.5,0,0.9-0.4,0.9-0.9C17.5,2.4,17,2,16.5,2H7.5C7,2,6.5,2.4,6.5,2.9C6.5,3.4,7,3.8,7.5,3.8z"/>
    <path class="st0" d="M20.2,9.3H3.8c-1,0-1.8,0.8-1.8,1.8v9.1c0,1,0.8,1.8,1.8,1.8h16.4c1,0,1.8-0.8,1.8-1.8v-9.1
	C22,10.1,21.2,9.3,20.2,9.3z M20.2,20.2H3.8v-9.1h16.4V20.2z"/>
</svg>
