<svg xmlns="http://www.w3.org/2000/svg" width="24" height="24" viewBox="0 0 24 24">
    <g fill="none" fill-rule="evenodd">
        <g>
            <g>
                <g fill="#231F20">
                    <path d="M10.104 13.438c.198.014.396.048.593.04 2.086-.082 4.171-.18 6.257-.247.24-.008.564.08.706.251.153.185.237.557.166.784-.07.222-.354.48-.577.52-.66.119-1.337.15-2.01.192-1.427.088-2.855.156-4.283.242-.249.015-.496.077-.744.117l-.013.198c.181.03.362.084.543.085 1.76.005 3.519-.004 5.278.003.533.002.831.268.857.717.03.496-.284.852-.805.914-.066.007-.132.005-.198.006-1.561.04-3.122.077-4.684.119-.476.012-.953.032-1.429.062-.149.01-.295.066-.443.101l-.013.2c.196.045.39.126.587.128 1.134.015 2.269.01 3.403.015.164 0 .372-.048.483.037.23.177.52.398.582.655.088.363-.188.635-.54.74-.171.052-.356.07-.536.078-2.447.107-4.893.241-7.342.3-1.119.026-2.221-.197-3.262-.674C.443 17.996-.48 15.887.24 13.448c.347-1.17.99-2.158 1.706-3.105 1.386-1.833 2.7-3.72 3.744-5.794.18-.356.363-.338.61-.118.37.33.523.778.426 1.249-.115.562-.319 1.106-.508 1.65-.167.48-.421.934-.542 1.425-.399 1.63.48 2.777 2.092 2.702 1.493-.07 2.983-.212 4.475-.322 1.114-.083 2.228-.173 3.344-.245.528-.034.834.24.878.743.05.55-.18.879-.74.936-1.357.14-2.717.243-4.076.362-.393.035-.787.058-1.177.114-.14.02-.27.123-.406.188l.038.205" transform="translate(-770 -1760) translate(770 1760) translate(3 2)"/>
                    <path d="M8.122 10.516c-.196 0-.393.016-.586-.003-.835-.084-1.389-.78-1.174-1.575.156-.575.44-1.117.69-1.663.037-.08.207-.144.312-.14.81.036 1.38-.348 1.868-.96 1.514-1.898 3.049-3.778 4.576-5.665.071-.088.138-.182.22-.26.342-.322.818-.333 1.146-.032.31.285.331.65.029 1.045-1.01 1.32-2.028 2.632-3.043 3.948-.02.025-.051.047-.06.076-.064.193-.123.388-.184.582.179-.1.402-.16.527-.305 1.25-1.44 2.482-2.894 3.72-4.343.084-.1.169-.198.257-.294.456-.498.933-.59 1.318-.255.367.318.336.78-.098 1.292-1.305 1.542-2.617 3.078-3.912 4.628-.123.148-.15.377-.221.568.17-.092.38-.149.506-.283.947-1.01 1.877-2.036 2.814-3.057.242-.264.477-.536.732-.786.353-.346.8-.35 1.13-.033.335.324.349.753.015 1.128-1.342 1.51-2.692 3.013-4.027 4.529-.129.145-.17.367-.251.553.183-.092.407-.144.544-.282.803-.81 1.582-1.643 2.38-2.459.143-.147.33-.339.504-.347.243-.011.586.059.715.226.124.162.137.577.013.733-.747.946-1.543 1.852-2.335 2.76-.084.096-.248.161-.38.17-2.062.143-4.124.274-6.186.408-.52.034-1.04.071-1.559.106v-.01" transform="translate(-770 -1760) translate(770 1760) translate(3 2)"/>
                </g>
                <path d="M0 0H24V24H0z" transform="translate(-770 -1760) translate(770 1760)"/>
            </g>
        </g>
    </g>
</svg>
