<?xml version="1.0" encoding="UTF-8"?>
<svg width="37px" height="24px" viewBox="0 0 37 24" version="1.1" xmlns="http://www.w3.org/2000/svg" xmlns:xlink="http://www.w3.org/1999/xlink">
    <g id="Page-1" stroke="none" stroke-width="1" fill="none" fill-rule="evenodd">
        <g id="PAC-Welcome" transform="translate(-679.000000, -350.000000)">
            <g id="Group-3" transform="translate(562.000000, 193.000000)">
                <g id="logo-play-srf-header" transform="translate(117.000000, 157.000000)">
                    <g id="Group" fill="#AF001E">
                        <path d="M0.07955,24 L36.39505,24 L36.39505,0 L0.07955,0 C0.07955,0 0.07955,24 0.07955,24 Z" id="Path"></path>
                    </g>
                    <g id="Group" transform="translate(4.000000, 6.000000)" fill="#FFFFFF">
                        <path d="M29.32275,2.5025 C29.32275,2.7599 29.112,2.96864286 28.852125,2.96864286 L24.1111875,2.96864286 L24.1111875,5.40614286 L28.3993125,5.40614286 C28.67025,5.40614286 28.8886875,5.62342857 28.8886875,5.89085714 L28.8886875,7.163 C28.8886875,7.4204 28.6779375,7.62914286 28.4180625,7.62914286 L24.1111875,7.62914286 L24.1111875,11.8058571 C24.1107188,12.0629786 23.9001563,12.2710725 23.6405625,12.2710725 L21.9943125,12.2710725 C21.7245938,12.2716286 21.5055,12.0553643 21.5049375,11.7882143 C21.5049375,11.7879357 21.5049375,11.7875643 21.5049375,11.7872857 L21.5049375,1.21271429 C21.5049375,0.954571429 21.715875,0.745642857 21.9755625,0.745642857 L28.8343125,0.745642857 C29.1043125,0.745642857 29.32275,0.962928571 29.32275,1.22942857 L29.32275,2.50342857 L29.32275,2.5025 Z" id="Path"></path>
                        <path d="M19.3411875,12.2710722 L17.3686875,12.2710722 C16.934625,12.2710722 16.788375,12.1466429 16.608375,11.8411429 L14.455875,8.00614286 C14.328375,7.79071429 14.274,7.64678571 14.274,7.46757143 C14.274,7.39607143 14.29275,7.28835714 14.3461875,7.07385714 L14.527125,6.32078571 C14.69025,5.63921429 14.8711875,5.87228571 15.3961875,5.65778571 C15.8124375,5.47857143 16.2286875,5.19164286 16.2286875,4.277 C16.2286875,3.27414286 15.7036875,2.87857143 14.6180625,2.87857143 L12.8986875,2.87857143 L12.8986875,11.8049286 C12.8986875,12.0623286 12.6879375,12.2710722 12.4280625,12.2710722 L10.7818125,12.2710722 C10.5120937,12.2715357 10.293,12.0553643 10.2924375,11.7882143 C10.2924375,11.7879357 10.2924375,11.7875643 10.2924375,11.7872857 L10.2924375,1.21271429 C10.2924375,0.954571429 10.503375,0.745642857 10.7630625,0.745642857 L14.799,0.745642857 C17.5861875,0.745642857 18.85275,2.00107143 18.85275,4.24171429 C18.85275,5.98 17.8561875,6.76835714 16.97025,7.32457143 L19.6130625,11.6619286 C19.9018125,12.1104286 19.5943125,12.2710722 19.3411875,12.2710722 Z" id="Path"></path>
                        <path d="M3.7430625,12.3787857 C2.4586875,12.3787857 1.1386875,12.2896429 0.61275,12.2172143 C0.378375,12.181 0.250875,12.0742143 0.2874375,11.8049286 L0.504,10.4250714 C0.577125,10.0304286 0.70275,9.97657143 1.1743125,10.0127857 C1.627125,10.049 2.9480625,10.1557857 3.7074375,10.1557857 C5.3715,10.1557857 6.0605625,9.97657143 6.0605625,8.97371429 C6.0605625,8.29214286 5.5899375,7.97085714 4.4855625,7.683 L3.1468125,7.34221429 C1.390875,6.89371429 0.378375,5.80078571 0.378375,3.95478571 C0.378375,1.911 1.8249375,0.621214286 4.810875,0.621214286 C6.277125,0.621214286 7.435875,0.710357143 7.959,0.782785714 C8.19525,0.818071429 8.3218125,0.925785714 8.287125,1.19414286 L8.0686875,2.53871429 C7.9955625,2.93335714 7.8699375,2.98721429 7.3993125,2.951 C6.4963125,2.87476429 5.59059375,2.83297857 4.6843125,2.82564286 C3.85275,2.82564286 2.9836875,3.00485714 2.9836875,3.93714286 C2.9836875,4.60014286 3.3999375,4.88707143 4.304625,5.11921429 L5.6443125,5.46 C8.0330625,6.07007143 8.7193125,7.23357143 8.7193125,8.79357143 C8.7193125,11.4465 6.6211875,12.3787857 3.7430625,12.3787857 Z" id="Path"></path>
                    </g>
                </g>
            </g>
        </g>
    </g>
</svg>
