<?xml version="1.0" encoding="UTF-8"?>
<svg width="37px" height="24px" viewBox="0 0 37 24" version="1.1" xmlns="http://www.w3.org/2000/svg" xmlns:xlink="http://www.w3.org/1999/xlink">
    <g id="Page-1" stroke="none" stroke-width="1" fill="none" fill-rule="evenodd">
        <g id="PAC-Welcome" transform="translate(-857.000000, -350.000000)">
            <g id="Group-3" transform="translate(562.000000, 193.000000)">
                <g id="logo-play-swi-header" transform="translate(295.000000, 157.000000)">
                    <g id="Group" fill="#AF001E">
                        <path d="M0.07955,24 L36.39505,24 L36.39505,0 L0.07955,0 C0.07955,0 0.07955,24 0.07955,24 Z" id="Path"></path>
                    </g>
                    <path d="M4.23246186,16.0020116 L4.0066053,17.4169439 C3.96896254,17.6899033 4.09412471,17.8013153 4.33315624,17.839381 C4.87427091,17.9136557 6.21999958,18 7.54126045,18 C10.4839832,18 12.6352669,17.0446422 12.6352669,14.3391876 C12.6352669,12.7515667 11.9304062,11.5594584 9.47798044,10.939265 L8.10684291,10.5920309 C7.17518461,10.3562089 6.74793928,10.0581818 6.74793928,9.387853 C6.74793928,8.43156673 7.64195483,8.25887814 8.48421158,8.25887814 C9.64172645,8.25887814 10.7992413,8.34522244 11.2641294,8.38235977 C11.7421924,8.4194971 11.8805296,8.37029014 11.9558151,7.96085106 L12.1816717,6.58305609 C12.2193144,6.31009671 12.0941523,6.19868472 11.8428868,6.16154739 C11.3017722,6.08727273 10.1197895,6 8.62254872,6 C5.56595662,6 4.08189082,7.31558994 4.08189082,9.39992263 C4.08189082,11.286499 5.1264774,12.4034043 6.91168529,12.8629787 L8.28282282,13.2102128 C9.41492882,13.5073114 9.89299187,13.8304062 9.89299187,14.5258027 C9.89299187,15.5554352 9.18813119,15.7290522 7.47820882,15.7290522 C6.69806263,15.7290522 5.35139289,15.6176402 4.88650481,15.5805029 C4.43385062,15.5433656 4.30774738,15.6055706 4.23246186,16.0020116 M32.5219369,6.12348162 C32.8870717,6.12348162 33,6.24789168 33,6.62019342 L33,17.3918762 C33,17.7521083 32.8870717,17.888588 32.5219369,17.888588 L30.8110735,17.888588 C30.4468798,17.888588 30.3330105,17.7641779 30.3330105,17.3918762 L30.3330105,6.62019342 C30.3330105,6.26088975 30.4459387,6.12441006 30.8110735,6.12441006 L32.522878,6.12441006 L32.5219369,6.12348162 Z M16.9246594,17.888588 C16.6348102,17.888588 16.345902,17.665764 16.2828504,17.3918762 L13.5405753,6.62019342 C13.4652898,6.34723404 13.6535036,6.12441006 13.9311189,6.12441006 L15.9054817,6.12441006 C16.1943899,6.12441006 16.4720052,6.34723404 16.5218819,6.63319149 L17.9805388,14.1906383 L19.8429144,6.63319149 C19.9210231,6.3505764 20.1749235,6.14994197 20.4715485,6.13647969 L22.0054909,6.13647969 C22.2953402,6.13647969 22.5720145,6.35930368 22.6473,6.63319149 L24.5219094,14.1906383 L25.9683325,6.63319149 C26.0191502,6.36023211 26.2958245,6.12441006 26.5724988,6.12441006 L28.4339332,6.12441006 C28.7228414,6.12441006 28.8988213,6.34723404 28.8235358,6.62019342 L26.043618,17.3918762 C25.9683325,17.6648356 25.6794243,17.888588 25.40275,17.888588 L23.616601,17.888588 C23.3267518,17.888588 23.0500775,17.665764 22.974792,17.3918762 L21.1632342,9.89663443 L19.3140336,17.3918762 C19.2359249,17.6744913 18.9820244,17.8751257 18.6853995,17.888588 L16.9246594,17.888588 L16.9246594,17.888588 Z" id="Shape" fill="#FFFFFF"></path>
                </g>
            </g>
        </g>
    </g>
</svg>
