<?xml version="1.0" encoding="utf-8"?>
<!-- Generator: Adobe Illustrator 23.1.1, SVG Export Plug-In . SVG Version: 6.00 Build 0)  -->
<svg version="1.1" id="vorlage" xmlns="http://www.w3.org/2000/svg" x="0px" y="0px"
     viewBox="0 0 24 24" xml:space="preserve">
<g>
	<g id="social-media-twitter" transform="translate(1.000000, 3.000000)">
		<g id="Shape">
			<path fill="#5AA8DF" d="M8.3399,17c-1.9423,0-4.2224-0.4222-6.8403-1.6045c-0.1689-0.0844-0.2533-0.2533-0.2533-0.5067
				c0.0844-0.1689,0.2533-0.3378,0.4222-0.3378c1.4356,0,2.8712-0.3378,4.2224-1.0134c-1.4356-0.2533-2.5335-0.6756-3.2935-2.1957
				C2.513,11.2575,2.513,11.173,2.513,11.0886s0.1689-0.1689,0.2533-0.2533l0.9289-0.3378c-1.689-0.6756-2.1957-2.1957-2.449-3.3779
				c0-0.1689,0-0.2533,0.0844-0.3378S1.584,6.6129,1.6685,6.6973l1.3512,0.2533C2.344,5.5995,2.1751,4.0794,2.5129,2.2215
				c0-0.1689,0.1689-0.2533,0.3378-0.3378c0.1689-0.0844,0.3378,0,0.4222,0.1689c2.5335,2.8712,4.8136,4.0535,7.2626,3.7157V5.2617
				c0-1.689,1.0134-3.209,2.5335-3.8846c1.4356-0.6756,3.1246-0.4222,4.3913,0.5911l1.8579-0.5067
				c0.1689-0.0844,0.3378,0,0.4222,0.1689s0.1689,0.3378,0.0844,0.4222l-0.5911,1.1823l1.1823,0.2533
				c0.1689,0,0.2533,0.1689,0.3378,0.3378c0,0.1689,0,0.3378-0.1689,0.4222L19.0648,5.515v0.929
				c0,3.5468-1.7734,6.9248-4.7291,8.7826C12.9001,16.24,10.9578,17,8.3399,17z M3.5263,15.311
				c4.9825,1.689,8.276,0.6756,10.3027-0.6756c2.7023-1.7734,4.3069-4.8136,4.3069-8.107V5.4306
				c0-0.0844,0.0844-0.2533,0.1689-0.3378l1.0134-0.8445L18.4737,3.995c-0.0844,0-0.2533-0.0844-0.2533-0.2533
				s-0.0844-0.2533,0-0.3378l0.4222-0.8445l-1.1823,0.3378c-0.1689,0-0.2533,0-0.4222-0.0844
				c-1.0134-0.9289-2.449-1.1823-3.6313-0.5911C12.1401,2.7282,11.38,3.995,11.38,5.3461v0.8445
				c0,0.1689-0.1689,0.3378-0.3378,0.4222C8.4243,7.1195,5.8064,6.0217,3.1885,3.3194c-0.1689,1.689,0.2533,2.9557,1.2667,3.8002
				C4.6241,7.204,4.6241,7.4573,4.5397,7.6262c0,0.0844-0.2533,0.2533-0.4222,0.1689L2.2596,7.4573
				c0.4222,1.5201,1.3512,2.2801,2.8712,2.449c0.1689,0,0.3378,0.1689,0.3378,0.3378s-0.0844,0.3378-0.2533,0.4222l-1.689,0.6756
				c0.6756,1.0978,1.689,1.3512,3.6313,1.5201c0.1689,0,0.3378,0.1689,0.3378,0.3378c0.0844,0.1689,0.0844,0.3378-0.0844,0.4222
				C6.2287,14.4665,4.8775,15.0577,3.5263,15.311z"/>
		</g>
	</g>
</g>
</svg>
