<?xml version="1.0" encoding="utf-8"?>
<!-- Generator: Adobe Illustrator 24.3.0, SVG Export Plug-In . SVG Version: 6.00 Build 0)  -->
<svg version="1.1" id="Ebene_1" xmlns="http://www.w3.org/2000/svg" x="0px" y="0px"
     viewBox="0 0 24 24" style="enable-background:new 0 0 24 24;" xml:space="preserve">
<path fill="currentColor" d="M18,9.3333h-0.6667h-2.0245h-1.052H8.6667V6.7619c0-1.8909,1.6445-3.4286,3.6666-3.4286
	c1.3346,0,2.1943,0.6768,2.631,1.6758h2.0789C16.3416,2.8824,14.3591,1.3333,12,1.3333c-2.9413,0-5.3333,2.392-5.3333,5.3333v2.6667
	H6c-1.1022,0-2,0.8969-2,2v9.3333c0,1.1031,0.8978,2,2,2h12c1.1022,0,2-0.8969,2-2v-9.3333C20,10.2303,19.1022,9.3333,18,9.3333z
	 M13.1667,16.5237v1.9526c0,0.4731-0.3726,0.8571-0.8334,0.8571S11.5,18.9494,11.5,18.4762v-1.9526
	c-0.4958-0.2974-0.8333-0.8443-0.8333-1.476c0-0.9454,0.7475-1.7143,1.6666-1.7143c0.9192,0,1.6667,0.7689,1.6667,1.7143
	C14,15.6794,13.6625,16.2262,13.1667,16.5237z"/>
</svg>
