<?xml version="1.0" encoding="utf-8"?>
<!-- Generator: Adobe Illustrator 24.3.0, SVG Export Plug-In . SVG Version: 6.00 Build 0)  -->
<svg version="1.1" id="Ebene_1" xmlns="http://www.w3.org/2000/svg" x="0px" y="0px"
     viewBox="0 0 36 36" style="enable-background:new 0 0 36 36;" xml:space="preserve">
<style type="text/css">
	.st0{fill:#D2D2D2;}
	.st1{fill:currentColor;}
</style>
    <g id="test01b" transform="translate(-142.000000, -531.000000)">
		<g id="upload" transform="translate(142.000000, 531.000000)">
			<circle id="Oval" class="st0" cx="18" cy="18" r="17"/>
            <path id="Path" class="st1" d="M26,20.8v4.6c0,0.4-0.3,0.7-0.7,0.7H10.8c-0.4,0-0.7-0.3-0.7-0.7v-4.6H8.6v4.6c0,1.1,1,2,2.2,2
				h14.5c1.2,0,2.2-0.9,2.2-2v-4.6H26z"/>
            <polygon id="Path_1_" class="st1" points="18,8.6 13.3,13.1 14.4,14.1 17.2,11.3 17.2,22.7 18.8,22.7 18.8,11.3 21.6,14.1
				22.7,13.1 			"/>
		</g>
	</g>
</svg>
