<?xml version="1.0" encoding="utf-8"?>
<svg version="1.1" id="vorlage" xmlns="http://www.w3.org/2000/svg" x="0px" y="0px"
     viewBox="0 0 24 24" style="enable-background:new 0 0 24 24;" xml:space="preserve">
<style type="text/css">
	.st0{opacity:0.15;}
</style>
    <path fill="currentColor" d="M12,23C5.9,23,1,18.1,1,12C1,5.9,5.9,1,12,1c6.1,0,11,4.9,11,11C23,18.1,18.1,23,12,23z M12,2.7c-5.1,0-9.3,4.2-9.3,9.3
	s4.2,9.3,9.3,9.3s9.3-4.2,9.3-9.3S17.1,2.7,12,2.7z"/>
    <circle fill="currentColor" class="st0" cx="12" cy="12" r="9.3"/>
    <path fill="currentColor" d="M9.3,15.7c-0.2,0.1-0.4,0-0.4-0.2v-7c0-0.3,0.2-0.4,0.4-0.2l5.7,3.5c0.2,0.1,0.2,0.4,0,0.5
	C15,12.3,9.3,15.7,9.3,15.7z"/>
</svg>
