<?xml version="1.0" encoding="utf-8"?>
<!-- Generator: Adobe Illustrator 23.1.1, SVG Export Plug-In . SVG Version: 6.00 Build 0)  -->
<svg version="1.1" id="vorlage" xmlns="http://www.w3.org/2000/svg" xmlns:xlink="http://www.w3.org/1999/xlink" x="0px" y="0px"
	 viewBox="0 0 24 24" xml:space="preserve">
<g id="Symbols">
	<path fill="currentColor" d="M12,1C5.9243,1,1,5.9243,1,12s4.9243,11,11,11s11-4.9253,11-11S18.0748,1,12,1z M12.7599,13.3448
		c-0.0009,0.0284-0.0055,0.0577-0.0092,0.0871c-0.0028,0.022-0.0046,0.044-0.0092,0.0651c-0.0055,0.022-0.0138,0.044-0.0202,0.066
		c-0.0083,0.0275-0.0165,0.0532-0.0275,0.0788c-0.0028,0.0046-0.0028,0.0092-0.0055,0.0138
		c-0.0165,0.0357-0.0358,0.0688-0.0568,0.0999c-0.0018,0.0018-0.0037,0.0046-0.0046,0.0055
		c-0.0238,0.0358-0.0513,0.0669-0.0807,0.0972c-0.0073,0.0083-0.0165,0.0156-0.0248,0.0238
		c-0.0257,0.0248-0.0513,0.0468-0.0807,0.066c-0.0083,0.0055-0.0165,0.0128-0.0266,0.0183
		c-0.0367,0.0238-0.0743,0.0449-0.1146,0.0614c-0.0082,0.0046-0.0174,0.0055-0.0266,0.0092
		c-0.0339,0.0128-0.0678,0.0238-0.1027,0.0321c-0.0128,0.0037-0.0247,0.0055-0.0385,0.0073
		c-0.0449,0.0083-0.0907,0.0138-0.1366,0.0138c-0.0092,0-0.0183-0.0027-0.0275-0.0037c-0.044-0.0018-0.088-0.0055-0.1292-0.0147
		c-0.0138-0.0028-0.0266-0.0083-0.0385-0.0119c-0.0385-0.011-0.0779-0.0229-0.1146-0.0385
		c-0.0046-0.0028-0.0083-0.0028-0.0128-0.0046L7.454,12.0275c-0.3795-0.1797-0.5436-0.6325-0.3639-1.0129
		c0.1797-0.3795,0.6325-0.5436,1.0129-0.3639l3.1322,1.4777V5.5632c0-0.4207,0.341-0.7608,0.7608-0.7608
		c0.4207,0,0.7608,0.341,0.7608,0.7608v7.766l0,0C12.7608,13.3356,12.7599,13.3402,12.7599,13.3448z"/>
</g>
</svg>
