<?xml version="1.0" encoding="utf-8"?>
<!-- Generator: Adobe Illustrator 23.1.1, SVG Export Plug-In . SVG Version: 6.00 Build 0)  -->
<svg version="1.1" id="Ebene_1" xmlns="http://www.w3.org/2000/svg" xmlns:xlink="http://www.w3.org/1999/xlink" x="0px" y="0px"
	 viewBox="0 0 24 24" xml:space="preserve">
<g>
	<g id="messaging-whatsapp">
		<g id="Shape">
			<path fill="currentColor" d="M12,21.9153c-1.8644,0-3.6441-0.5085-5.339-1.5255l-3.4745,1.1017c-0.1695,0.0847-0.339,0-0.4237-0.0847
				c-0.0847-0.1695-0.1695-0.339-0.0847-0.5085l1.1017-3.3051C2.5932,15.9831,2,13.9492,2,12c0.0847-5.4237,4.4915-9.9153,10-9.9153
				c0,0,0,0,0.0847,0C17.5085,2.0847,22,6.4915,22,12c0,3.6441-2.0339,7.0339-5.2543,8.7288
				C15.2204,21.4915,13.6102,21.9153,12,21.9153z M6.7457,19.4576c0.0847,0,0.1695,0,0.2543,0.0847
				c2.7966,1.8644,6.3559,2.0339,9.322,0.4237s4.8305-4.661,4.8305-7.9661C21.0678,7,17,2.9322,12,2.9322l0,0l0,0
				C7,2.9322,2.9322,7,2.8475,12c0,1.8644,0.5932,3.7288,1.6949,5.2543c0.0847,0.0847,0.0847,0.2543,0.0847,0.4237l-0.9322,2.7119
				l2.8814-0.9322C6.661,19.4576,6.661,19.4576,6.7457,19.4576z M14.2881,17.4237c-0.0847,0-0.2543,0-0.339,0
				C11.1525,17.1695,7.8475,14.7119,6.8305,12c-0.678-1.6949-0.339-3.3051,0.8475-4.5763C8.0169,7.0847,8.5255,6.9153,9.1186,7
				c0.5085,0.0847,0.8475,0.339,0.9322,0.678c0,0.1695,0.0847,0.339,0.1695,0.5932c0.1695,0.4237,0.4237,1.1017,0.5085,1.1865
				c0.1695,0.339,0.1695,0.5932,0,0.9322c-0.0847,0.1695-0.1695,0.2543-0.2543,0.339c-0.0847,0.0847-0.1695,0.1695-0.339,0.2543l0,0
				c0.7627,1.2712,1.9492,2.2034,3.3051,2.7966c0.0847,0,0.0847,0.0847,0.0847,0.0847c0.0847-0.1695,0.339-0.5085,0.5085-0.7627
				c0.339-0.5932,0.9322-0.339,1.1017-0.2543c0.1695,0.0847,0.8475,0.4237,1.6102,0.7627L17,13.6949
				c0.2543,0.0847,0.4237,0.1695,0.5932,0.4237c0,0.0847,0,0.0847,0.0847,0.1695c0.1695,0.5085,0.0847,1.0169-0.1695,1.4406
				C16.7457,16.8305,15.6441,17.4237,14.2881,17.4237z M8.6949,7.8475c-0.1695,0-0.339,0.0847-0.4237,0.1695
				c-1.1865,1.2712-1.0169,2.7119-0.678,3.7288c0.9322,2.3729,3.8983,4.661,6.3559,4.8305c1.2712,0.0847,2.1186-0.339,2.6271-1.2712
				c0.1695-0.2543,0.1695-0.5085,0.1695-0.678c-0.0847,0-0.0847-0.0847-0.1695-0.0847l-0.2543-0.0847
				c-0.339-0.1695-1.3559-0.678-1.5255-0.7627h-0.0847c-0.1695,0.2543-0.4237,0.5932-0.5932,0.8475
				c-0.2543,0.339-0.5932,0.339-1.0169,0.1695c-1.5255-0.678-2.7966-1.7796-3.6441-3.2204c-0.339-0.5085,0-0.8475,0.1695-1.0169
				c0.1695-0.1695,0.2543-0.2543,0.339-0.339c0.0847-0.0847,0.0847-0.0847,0.0847-0.1695C9.9661,9.7966,9.8814,9.5424,9.4576,8.5255
				c-0.0847-0.1695-0.1695-0.339-0.2543-0.5085c0,0-0.0847-0.0847-0.339-0.1695C8.8644,7.8475,8.7796,7.8475,8.6949,7.8475z"/>
		</g>
	</g>
</g>
</svg>
