<?xml version="1.0" encoding="utf-8"?>
<!-- Generator: Adobe Illustrator 24.1.0, SVG Export Plug-In . SVG Version: 6.00 Build 0)  -->
<svg version="1.1" id="Ebene_1" xmlns="http://www.w3.org/2000/svg"
     viewBox="0 0 24 24" xml:space="preserve">
<style type="text/css">
	.st1{fill:#E52521;}
	.st2{fill:none;stroke:#E52521;}
</style>
<desc>Created with Sketch.</desc>
<g id="Icons_x2F_Youtube_x5F_Icon_x5F_Outline_x5F_Color">
	<g id="YouTube" transform="translate(0.500000, 4.000000)">
		<polygon id="Fill-4" class="st1" points="9.7,11.3 15.2,8 9.7,4.7 		"/>
		<path id="Fill-1" class="st2" d="M22,2.4c-0.3-1-1-1.8-1.9-2.1c-1.7-0.5-8.6-0.5-8.6-0.5s-6.9,0-8.6,0.5C2,0.6,1.2,1.4,1,2.4
			C0.5,4.2,0.5,8,0.5,8s0,3.8,0.5,5.6c0.3,1,1,1.8,1.9,2.1c1.7,0.5,8.6,0.5,8.6,0.5s6.9,0,8.6-0.5c0.9-0.3,1.7-1.1,1.9-2.1
			c0.5-1.8,0.5-5.6,0.5-5.6S22.5,4.2,22,2.4"/>
	</g>
</g>
</svg>
