<?xml version="1.0" encoding="UTF-8"?>
<!-- This file is generated by npm run build:icons -->
<svg xmlns="http://www.w3.org/2000/svg" xmlns:xlink="http://www.w3.org/1999/xlink" width="0" height="0">
<defs>
<symbol id="abroad" x="0px" y="0px" viewBox="0 0 24 24" xml:space="preserve">
<g id="geoblocking_1_">
	<g id="Info-Label" transform="translate(-255 -1045)">
		<g id="geoblocking" transform="translate(59 984)">
			<g id="placeholder" transform="translate(196 61)">
				<g fill="currentColor">
					<path d="M12,1C7.7859,1,4.3611,4.4669,4.3611,8.7329c0,1.4392,0.3947,2.8483,1.1416,4.0683l6.0644,9.8938
						C11.6817,22.884,11.8897,23,12.1061,23h0.0042c0.2207,0,0.4286-0.1203,0.5432-0.3136l5.9074-9.9883
						c0.7045-1.1943,1.0779-2.5647,1.0779-3.9609C19.6389,4.4669,16.2141,1,12,1z M17.4703,12.0322l-5.3727,9.0818l-5.5127-8.9959
						c-0.6196-1.0139-0.9591-2.1867-0.9591-3.3853C5.6258,5.18,8.4904,2.2802,12,2.2802s6.37,2.8998,6.37,6.4526
						C18.37,9.8971,18.0559,11.0398,17.4703,12.0322z"></path>
					<path d="M12,4.6667c-2.1891,0-3.9722,1.6459-3.9722,3.6667C8.0278,10.3419,9.78,12,12,12c2.2465,0,3.9722-1.6785,3.9722-3.6667
						C15.9722,6.3126,14.1891,4.6667,12,4.6667z M12,10.7859c-1.4697,0-2.657-1.1-2.657-2.4526c0-1.3485,1.1961-2.4526,2.657-2.4526
						s2.6526,1.1041,2.6526,2.4526C14.6526,9.6656,13.4918,10.7859,12,10.7859z"></path>
				</g>
			</g>
		</g>
	</g>
</g>
</symbol>
<symbol id="arrow" x="0px" y="0px" viewBox="0 0 24 24" style="enable-background:new 0 0 24 24;" xml:space="preserve">
<style type="text/css">
	.st0{fill-rule:evenodd;clip-rule:evenodd;fill:currentColor;}
</style>
<g id="SECTION">
	<g id="PAC-Edit-Section-Admin-view" transform="translate(-1004.000000, -175.000000)">
		<g id="_x2F__x2F_-CONTENT" transform="translate(25.000000, 0.000000)">
			<g id="Group-2" transform="translate(391.000000, 116.000000)">
				<polygon id="Path-2-Copy-2" class="st0" points="594,67 606,67 600,75 				"></polygon>
			</g>
		</g>
	</g>
</g>
</symbol>
<symbol id="audio-big" x="0px" y="0px" viewBox="0 0 24 24" xml:space="preserve">
<desc>Created with Sketch.</desc>
<path fill="currentColor" d="M12,23.5C5.7,23.5,0.5,18.3,0.5,12C0.5,5.7,5.7,0.5,12,0.5c6.3,0,11.5,5.2,11.5,11.5
	C23.5,18.3,18.3,23.5,12,23.5z M12,1.5C6.2,1.5,1.5,6.2,1.5,12S6.2,22.5,12,22.5S22.5,17.8,22.5,12S17.8,1.5,12,1.5z"></path>
<g id="speaker" transform="translate(5.000000, 6.000000)">
	<path id="Fill-1581" fill="currentColor" d="M6.6,0.3L3.1,4.1l-1.9,0c-0.6,0-1,0.4-1,1V7c0,0.6,0.4,1,1,1h1.9l3.5,3.8
		c0,0.1,0.1,0.1,0.2,0.1c0,0,0.1,0,0.1,0c0.1,0,0.2-0.1,0.2-0.3v-11c0-0.1-0.1-0.2-0.2-0.3C6.8,0.2,6.6,0.3,6.6,0.3z"></path>
	<g id="Fill-1582">
		<path fill="currentColor" d="M12.5,6c0,1.3-0.7,2.8-1.9,3.8c-0.1,0.1-0.2,0.1-0.3,0.1c-0.2,0-0.3-0.1-0.4-0.2C9.7,9.5,9.8,9.1,10,9
			c0.9-0.7,1.5-1.9,1.5-3c0-1.1-0.6-2.2-1.5-3C9.9,3,9.8,2.8,9.8,2.7c0-0.1,0-0.3,0.1-0.4c0.1-0.1,0.2-0.2,0.3-0.2
			c0.1,0,0.3,0,0.4,0.1C11.8,3.2,12.5,4.6,12.5,6z"></path>
	</g>
	<g id="Fill-1583">
		<path fill="currentColor" d="M10.4,6c0,0.9-0.5,1.7-1.3,2.4C9,8.4,8.9,8.5,8.8,8.5c-0.2,0-0.3-0.1-0.4-0.2C8.3,8.1,8.3,8,8.3,7.9
			c0-0.1,0.1-0.2,0.2-0.3C8.9,7.2,9.4,6.7,9.4,6c0-0.7-0.5-1.2-0.9-1.5C8.2,4.3,8.2,4,8.4,3.7c0.1-0.1,0.3-0.2,0.4-0.2
			c0.1,0,0.2,0,0.3,0.1C10,4.2,10.4,5.1,10.4,6z"></path>
	</g>
</g>
</symbol>
<symbol viewBox="0 0 24 24" id="audio-description">
    <g fill="none" fill-rule="evenodd">
        <g>
            <g>
                <g>
                    <path d="M0 0H24V24H0z" transform="translate(-1114 -1760) translate(1114 1760)"></path>
                    <path fill="#231F20" d="M16.362 9.844v5.509c.04.003.071.012.099.007.101-.02.203-.039.303-.065.74-.2 1.407-.524 1.92-1.116.774-.89.8-2.071.075-2.999-.419-.534-.966-.874-1.59-1.102-.253-.093-.519-.151-.807-.234m-2.7 8.366V7.042c.64 0 1.268-.015 1.894.006.381.013.763.066 1.14.13.756.13 1.48.36 2.168.705.64.322 1.212.729 1.705 1.247.582.612.993 1.318 1.229 2.13.25.863.269 1.733.05 2.594-.299 1.175-.96 2.123-1.926 2.862-.758.58-1.609.957-2.524 1.2-.728.194-1.47.279-2.222.292-.498.009-.997.002-1.514.002M10.215 14.18v-3.19l-.037-.014-2.24 3.205h2.277zM2 17.913c.183-.245.374-.485.55-.736.826-1.178 1.648-2.36 2.472-3.54l2.173-3.11C7.982 9.4 8.77 8.276 9.56 7.155c.03-.042.091-.086.138-.086 1.06-.003 2.121 0 3.182.001.01 0 .022.008.056.022v.185c0 3.56-.001 7.119.004 10.678 0 .175-.045.229-.223.227-.756-.01-1.512-.01-2.268 0-.18.002-.23-.056-.222-.23.012-.303 0-.608.005-.912.002-.11-.036-.148-.148-.148-1.31.003-2.621 0-3.932.007-.064 0-.15.053-.189.107-.244.34-.473.688-.718 1.027-.046.065-.138.138-.21.138-1.012.006-2.023 0-3.035-.003v-.256z" transform="translate(-1114 -1760) translate(1114 1760)"></path>
                </g>
            </g>
        </g>
    </g>
</symbol>
<symbol id="audio" viewBox="0 0 48 48">
  <style>
    .st2{fill-rule:evenodd;clip-rule:evenodd;fill:#fff;stroke:#fff;stroke-width:.2}
  </style>
  <g id="icon-audio">
    <circle fill="currentColor" id="Oval-1" cx="24" cy="24" r="22.7" fill-rule="evenodd" clip-rule="evenodd" fill-opacity=".32" stroke="#fff" stroke-width="1.6" stroke-opacity=".8"></circle>
    <g transform="translate(13 14)">
      <path id="Fill-1581" d="M11.7 1.3c-.2-.1-.3 0-.5.1L5.4 7.1H2.6c-.9 0-1.7.7-1.7 1.7v2.5c0 .9.8 1.7 1.7 1.7h2.8l5.8 5.7c.1.1.2.1.3.1h.2c.2-.1.3-.2.3-.4V1.7c-.1-.2-.2-.3-.3-.4" fill-rule="evenodd" clip-rule="evenodd" fill="#fff"></path>
      <path id="Fill-1582" class="st2" d="M16.1 4.2c-.2-.2-.4-.2-.6 0-.1.2-.1.4.1.6C17 6 18 7.9 18 9.5c0 1.7-.9 3.5-2.4 4.7-.2.1-.2.4-.1.6.1.1.2.2.3.2.1 0 .2 0 .3-.1 1.6-1.3 2.7-3.5 2.7-5.4 0-1.9-1.1-4-2.7-5.3"></path>
      <path id="Fill-1583" class="st2" d="M14.4 6.3c-.2-.1-.5-.1-.6.1-.1.2-.1.5.1.6.7.5 1.5 1.4 1.5 2.6 0 1.2-.8 2.1-1.5 2.6-.2.1-.2.4-.1.6.1.1.2.2.3.2.1 0 .2 0 .2-.1 1.2-.9 1.9-2 1.9-3.3.1-1.3-.6-2.5-1.8-3.3"></path>
    </g>
  </g>
</symbol>
<symbol id="calendar" x="0px" y="0px" viewBox="0 0 24 24" xml:space="preserve">
<path fill="currentColor" id="calendar" d="M19.5001,5.25h-2.25v-1.5h-1.5v1.5H8.25v-1.5H6.7499v1.5h-2.25c-0.825,0-1.5,0.675-1.5,1.5V18.75
	c0,0.825,0.675,1.5,1.5,1.5h15c0.825,0,1.5-0.675,1.5-1.5V6.7499C21,5.925,20.325,5.25,19.5001,5.25z M19.5001,18.75H4.4999V8.25h15
	L19.5001,18.75L19.5001,18.75z"></path>
</symbol>
<symbol viewBox="0 0 42 42" id="carousel-swiper">
    <g>
        <circle cx="21" cy="21" r="20" fill-opacity="0.15" stroke="currentColor" stroke-width="2" fill="currentColor"></circle>
        <path fill="currentColor"
              d="M17.8421 15.8225C17.4315 16.2441 17.4315 16.9252 17.8421 17.3468L21.9263 21.5414L17.8421 25.736C17.4315 26.1576 17.4315 26.8387 17.8421 27.2603C18.2526 27.6819 18.9158 27.6819 19.3263 27.2603L24.1579 22.2981C24.5684 21.8765 24.5684 21.1954 24.1579 20.7738L19.3263 15.8117C18.9263 15.4008 18.2526 15.4008 17.8421 15.8225Z"
        ></path>
    </g>
</symbol>
<symbol id="check" x="0px" y="0px" viewBox="0 0 24 24" xml:space="preserve">
<path fill="currentColor"  d="M8.7203,15.9652l-4.2672-4.267L3,13.1409l5.7203,5.7201L21,6.5817l-1.4428-1.4428L8.7203,15.9652z"></path>
</symbol>
<symbol id="checkbox-checked" x="0px" y="0px" viewBox="0 0 24 24" style="enable-background:new 0 0 24 24;" xml:space="preserve">
<style type="text/css">
	.st0{fill:currentColor;}
</style>
  <g>
		<path class="st0" d="M19,21.5H5c-1.4,0-2.5-1.1-2.5-2.5V5c0-1.4,1.1-2.5,2.5-2.5h14c1.4,0,2.5,1.1,2.5,2.5v14
			C21.5,20.4,20.4,21.5,19,21.5z M5,3.5C4.2,3.5,3.5,4.2,3.5,5v14c0,0.8,0.7,1.5,1.5,1.5h14c0.8,0,1.5-0.7,1.5-1.5V5
			c0-0.8-0.7-1.5-1.5-1.5H5z"></path>
	</g>
  <polygon class="st0" points="10,17 5,12 6.4,10.6 10,14.2 17.6,6.6 19,8 	"></polygon>
</symbol>
<symbol id="checkbox-unchecked" x="0px" y="0px" viewBox="0 0 24 24" style="enable-background:new 0 0 24 24;" xml:space="preserve">
	<g>
		<path fill="currentColor" d="M19,21.5H5c-1.4,0-2.5-1.1-2.5-2.5V5c0-1.4,1.1-2.5,2.5-2.5h14c1.4,0,2.5,1.1,2.5,2.5v14
			C21.5,20.4,20.4,21.5,19,21.5z M5,3.5C4.2,3.5,3.5,4.2,3.5,5v14c0,0.8,0.7,1.5,1.5,1.5h14c0.8,0,1.5-0.7,1.5-1.5V5
			c0-0.8-0.7-1.5-1.5-1.5H5z"></path>
</g>
</symbol>
<symbol id="chevron" x="0px" y="0px" viewBox="0 0 24 24" style="enable-background:new 0 0 24 24;" xml:space="preserve">
<g>
	<path fill="currentColor" d="M15.9,20.8c0.1,0.1,0.3,0.2,0.5,0.2s0.3-0.1,0.5-0.2c0.3-0.2,0.3-0.7,0-0.9L8.6,12l8.2-7.9c0.3-0.2,0.3-0.7,0-0.9
		s-0.7-0.2-0.9,0l-8.7,8.4c-0.3,0.2-0.3,0.7,0,0.9L15.9,20.8z"></path>
</g>
</symbol>
<symbol id="clear" viewBox="0 0 24 24" xml:space="preserve">
<path fill="currentColor" d="M12,2C6.5,2,2,6.5,2,12s4.5,10,10,10s10-4.5,10-10S17.5,2,12,2z M17,16l-1,1l-4-4l-4,4l-1-1l4-4L7,8l1-1l4,4l4-4l1,1l-4,4
	L17,16z"></path>
</symbol>
<symbol id="close" x="0px" y="0px" viewBox="0 0 24 24" xml:space="preserve">
<path fill="currentColor" d="M12.8895,12L20.5,19.0174l-0.8895,0.7907L12,12.7907l-7.6105,7.2151L3.5,19.1163L11.1105,12L3.5,4.8837
	L4.3895,4.093L12,11.2093l7.6105-7.2151L20.5,4.8837L12.8895,12z"></path>
</symbol>
<symbol id="delete" x="0px" y="0px" viewBox="0 0 24 24" xml:space="preserve">
<desc>Created with Sketch.</desc>
<path fill="currentColor" d="M5.3,19.8c0,1.2,1,2.2,2.2,2.2h8.9c1.2,0,2.2-1,2.2-2.2V6.4H5.3V19.8z M19.8,3.1h-3.9L14.8,2H9.2L8.1,3.1H4.2
	v2.2h15.6V3.1z"></path>
</symbol>
<symbol id="desktop" x="0px" y="0px" viewBox="0 0 24 24" style="enable-background:new 0 0 24 24;" xml:space="preserve">
<style type="text/css">
	.st0{fill-rule:evenodd;clip-rule:evenodd;}
</style>
<path class="st0" d="M20.5,1h-17C2.1,1,1,2.1,1,3.5v12C1,16.9,2.1,18,3.5,18H10v2.9L7,23h10l-3-2.1V18h6.5c1.4,0,2.5-1.1,2.5-2.5
	v-12C23,2.1,21.9,1,20.5,1z M11,15c0-0.6,0.4-1,1-1s1,0.4,1,1s-0.4,1-1,1S11,15.6,11,15z M22,13H2V3.5C2,2.7,2.7,2,3.5,2h17
	C21.3,2,22,2.7,22,3.5V13z"></path>
</symbol>
<symbol viewBox="0 0 24 24" id="dolby-digital">
    <g fill="none" fill-rule="evenodd">
        <g>
            <g>
                <path d="M0 0H24V24H0z" transform="translate(-955 -1760) translate(955 1760)"></path>
                <g fill="#2A2A2A">
                    <path d="M8 0v12H5v-.083C2.162 11.441 0 8.973 0 6S2.162.559 5 .083V0h3z" transform="translate(-955 -1760) translate(955 1760) translate(2 6)"></path>
                    <path d="M20 0v12h-3v-.083c-2.838-.476-5-2.944-5-5.917S14.162.559 17 .083V0h3z" transform="translate(-955 -1760) translate(955 1760) translate(2 6) matrix(-1 0 0 1 32 0)"></path>
                </g>
            </g>
        </g>
    </g>
</symbol>
<symbol id="download" x="0px" y="0px" viewBox="0 0 24 24" style="enable-background:new 0 0 24 24;" xml:space="preserve">

<g id="download2">
	<g  transform="translate(7 6)">
			<path fill="currentColor"  d="M9.2,4.5H6.8V1H3.2v3.5H0.8l4.2,4L9.2,4.5z M0.8,10.2V11h8.4v-0.8H0.8z"></path>
	</g>
	<path fill="currentColor" d="M12,23C5.9,23,1,18.1,1,12C1,5.9,5.9,1,12,1c6.1,0,11,4.9,11,11C23,18.1,18.1,23,12,23z M12,2.7
		c-5.1,0-9.3,4.2-9.3,9.3s4.2,9.3,9.3,9.3s9.3-4.2,9.3-9.3S17.1,2.7,12,2.7z"></path>
</g>
</symbol>
<symbol viewBox="0 0 25 24" id="draft">
    <g fill="none" fill-rule="evenodd">
        <g>
            <g>
                <g transform="translate(-672 -180) translate(175 154) translate(458.494 26)">
                    <g>
                        <path d="M0 0L24 0 24 24 0 24z" transform="translate(38.968)"></path>
                        <path fill="currentColor" fill-rule="nonzero" d="M17.833 12c-.46 0-.833.373-.833.833V19.5c0 .46-.373.833-.833.833H4.5c-.46 0-.833-.374-.833-.833V7.833c0-.459.373-.833.833-.833h6.667c.46 0 .833-.373.833-.833 0-.46-.373-.834-.833-.834H4.5c-1.378 0-2.5 1.122-2.5 2.5V19.5C2 20.878 3.122 22 4.5 22h11.667c1.378 0 2.5-1.122 2.5-2.5v-6.667c0-.46-.373-.833-.834-.833z" transform="translate(38.968)"></path>
                        <path fill="currentColor" fill-rule="nonzero" d="M9.813 11.24c-.058.06-.097.133-.114.213L9.11 14.4c-.027.137.016.277.114.377.08.079.186.121.295.121.027 0 .054-.002.082-.008l2.946-.59c.081-.016.155-.055.213-.113l6.593-6.594-2.946-2.946-6.594 6.594zM21.39 2.61c-.813-.812-2.134-.812-2.946 0l-1.153 1.153 2.946 2.946 1.153-1.153c.393-.393.61-.916.61-1.473 0-.556-.217-1.08-.61-1.473z" transform="translate(38.968)"></path>
                    </g>
                </g>
            </g>
        </g>
    </g>
</symbol>
<symbol id="duplicate" x="0px" y="0px" viewBox="0 0 48 48" xml:space="preserve">
<path fill="currentColor" d="M8,44h23.8c1,0,2.1-0.4,2.8-1.2c0.7-0.7,1.2-1.7,1.2-2.8V16.3c0-1-0.4-2.1-1.2-2.8c-0.7-0.7-1.7-1.2-2.8-1.2H8
	c-1,0-2.1,0.4-2.8,1.2S4,15.2,4,16.3V40c0,1,0.4,2.1,1.2,2.8C5.9,43.6,6.9,44,8,44z M11.9,26.2h5.9v-5.9h4v5.9h5.9v4h-5.9v5.9h-4
	v-5.9h-5.9V26.2z"></path>
<path fill="currentColor" d="M40,4H15.7v4H40v24.3h4V8C44,5.8,42.2,4,40,4z"></path>
</symbol>
<symbol id="edit" x="0px" y="0px" viewBox="0 0 24 24" style="enable-background:new 0 0 24 24;" xml:space="preserve">
<path fill="currentColor" d="M20.5,14.6c-0.3,0-0.5,0.2-0.5,0.5v4.4c0,0.8-0.7,1.5-1.5,1.5h-14c-0.8,0-1.5-0.7-1.5-1.5v-13c0-0.8,0.7-1.5,1.5-1.5h4.4
	c0.3,0,0.5-0.2,0.5-0.5S9.2,3.9,8.9,3.9H4.5c-1.4,0-2.5,1.1-2.5,2.5v13c0,1.4,1.1,2.5,2.5,2.5h14c1.4,0,2.5-1.1,2.5-2.5v-4.4
	C21,14.8,20.8,14.6,20.5,14.6z"></path>
<path fill="currentColor" d="M20.8,2.7c-0.9-0.9-2.3-0.9-3.2,0l-8.9,8.9c-0.1,0.1-0.1,0.1-0.1,0.2l-1.2,4.2c-0.1,0.2,0,0.4,0.1,0.5
	c0.1,0.1,0.3,0.2,0.5,0.1l4.2-1.2c0.1,0,0.2-0.1,0.2-0.1l8.9-8.9c0.9-0.9,0.9-2.3,0-3.2L20.8,2.7z M9.8,11.9l7.3-7.3L19.4,7
	l-7.3,7.3L9.8,11.9z M9.3,12.9l1.9,1.9l-2.6,0.7L9.3,12.9z M20.7,5.7l-0.5,0.5l-2.4-2.4l0.5-0.5c0.5-0.5,1.3-0.5,1.8,0L20.7,4
	C21.2,4.4,21.2,5.2,20.7,5.7z"></path>
</symbol>
<symbol id="error" x="0px" y="0px" viewBox="0 0 24 24" xml:space="preserve">
<path fill="currentColor" d="M12,2C6.5,2,2,6.5,2,12s4.5,10,10,10s10-4.5,10-10S17.5,2,12,2z M13,17h-2v-2h2V17z M13,13h-2V7h2V13z"></path>
</symbol>
<symbol id="expired" x="0px" y="0px" viewBox="0 0 24 24" style="enable-background:new 0 0 24 24;" xml:space="preserve">
<style type="text/css">
	.st0{fill:currentColor;}
	.st1{fill-rule:evenodd;clip-rule:evenodd;fill:#515151;}
</style>
	<g transform="translate(-726.000000, -266.000000)">
		<g transform="translate(104.000000, 120.000000)">
			<g transform="translate(622.000000, 146.000000)">
				<g>
					<path  class="st0" d="M10.145,1.5258c-5.2689,0-9.5402,4.2713-9.5402,9.5402s4.2713,9.5402,9.5402,9.5402
						s9.5402-4.2713,9.5402-9.5402C19.6796,5.7995,15.4115,1.5315,10.145,1.5258z M10.145,19.2433
						c-4.5162,0-8.1773-3.6611-8.1773-8.1773s3.6611-8.1773,8.1773-8.1773s8.1773,3.6611,8.1773,8.1773
						C18.3174,15.5802,14.6592,19.2385,10.145,19.2433z"></path>
					<path class="st0" d="M10.516,5.2359c-0.3805,0-0.689,0.3085-0.689,0.689v4.8231H5.0039
						c-0.3805,0-0.689,0.3085-0.689,0.689s0.3085,0.689,0.689,0.689h5.5121c0.3805,0,0.689-0.3085,0.689-0.689V5.9249
						C11.205,5.5444,10.8965,5.2359,10.516,5.2359z"></path>
				</g>
				<g transform="translate(23.000000, 19.000000)">
					<circle class="st1" cx="-4.9049" cy="-2.1039" r="5.3001"></circle>
					<path class="st0" d="M-4.9049-5.8139c-0.2927,0-0.53,0.253-0.53,0.5652v3.6397
						c0,0.3122,0.2373,0.5652,0.53,0.5652c0.2927,0,0.53-0.253,0.53-0.5652v-3.6397C-4.3749-5.5609-4.6122-5.8139-4.9049-5.8139z"></path>
					<circle class="st0" cx="-4.9049" cy="1.0762" r="0.53"></circle>
				</g>
			</g>
		</g>
</g>
</symbol>
<symbol id="external-link" x="0px" y="0px" viewBox="0 0 24 24" xml:space="preserve">
<g id="external-link">
	<g>
		<g>
			<path fill="currentColor" d="M18.8,5.2V18c0,0.5-0.3,0.8-0.8,0.8s-0.8-0.3-0.8-0.8V7.9L6.7,18.5c-0.1,0.1-0.3,0.2-0.5,0.2s-0.4-0.1-0.6-0.2
				S5.3,18.2,5.3,18s0.1-0.4,0.2-0.6L16.1,6.8H6C5.6,6.8,5.2,6.5,5.2,6c0-0.4,0.3-0.8,0.8-0.8H18.8z"></path>
		</g>
	</g>
</g>
</symbol>
<symbol id="facebook" x="0px" y="0px" viewBox="0 0 24 24" xml:space="preserve">
<g>
	<g id="social-media-facebook" transform="translate(6.000000, 0.000000)">
		<g id="Shape">
			<path fill="#3464A5" d="M7.53,21.9248H3.3947c-0.2481,0-0.4135-0.1654-0.4135-0.4135V12H0.9135C0.6654,12,0.5,11.8346,0.5,11.5865
				V8.2782c0-0.2481,0.1654-0.4135,0.4135-0.4135h2.0677V6.5414c0-1.0752,0.3308-4.4662,4.3007-4.4662h3.5564
				c0.2481,0,0.4135,0.1654,0.4135,0.4135V5.797c0,0.0827-0.0827,0.2481-0.0827,0.3309c-0.0827,0.0827-0.2481,0.0827-0.3309,0.0827
				c0,0-2.1503,0-2.4812,0c-0.1654,0-0.2481,0-0.3309,0.1654C7.9436,6.5414,7.9436,6.5414,7.9436,6.6241v1.2406h3.1428
				c0.0827,0,0.2481,0.0827,0.3309,0.1654C11.5,8.1128,11.5,8.1955,11.5,8.3609l-0.3309,3.3083
				c0,0.2481-0.1654,0.3309-0.4135,0.3309H7.9436v9.5113C7.9436,21.7594,7.7781,21.9248,7.53,21.9248z M3.8082,21.0977h3.3083
				v-9.5112c0-0.2481,0.1654-0.4135,0.4135-0.4135h2.8121l0.2481-2.4812H7.53c-0.2481,0-0.4135-0.1654-0.4135-0.4135V6.7068
				C7.0338,6.376,7.1992,6.0451,7.4473,5.797c0.2481-0.2481,0.579-0.4135,0.9097-0.4135c0.2481,0,1.406,0,2.0677,0V2.9023H7.2819
				c-3.0602,0-3.4737,2.2331-3.4737,3.6391v1.7368c0,0.2481-0.1654,0.4135-0.4135,0.4135H1.327v2.4812h2.0677
				c0.2481,0,0.4135,0.1654,0.4135,0.4135C3.8082,11.5864,3.8082,21.0977,3.8082,21.0977z"></path>
		</g>
	</g>
</g>
</symbol>
<symbol id="favorite-outline" x="0px" y="0px" viewBox="0 0 24 24" xml:space="preserve">
<g id="Group" transform="translate(2.000000, 2.000000)">
	<path fill="currentColor" d="M20.9983,8.9508c0.4662-0.4329,0.5995-1.0991,0.4329-1.6986c-0.1999-0.5995-0.6994-1.0325-1.3322-1.1324
		l-5.5621-0.7993c-0.2332-0.0333-0.4329-0.1666-0.5329-0.3997l-2.5313-4.9959c-0.2665-0.5662-0.8327-0.9326-1.4654-0.9326
		c-0.6327,0-1.1991,0.3662-1.4654,0.9324L6.0438,4.954C5.9439,5.1538,5.744,5.3204,5.5109,5.3537L-0.0846,6.153
		c-0.6328,0.1-1.1324,0.5329-1.3322,1.1325s-0.0333,1.2324,0.4329,1.6986l4.03,3.9301c0.1666,0.1666,0.2665,0.3996,0.1999,0.6328
		l-0.9659,5.5289c-0.0999,0.6328,0.1332,1.2324,0.6661,1.5987c0.4996,0.3664,1.1658,0.4329,1.7319,0.1332l4.9626-2.5979
		c0.1999-0.0999,0.4662-0.0999,0.6661,0l4.9626,2.5979c0.2332,0.1332,0.4996,0.1999,0.766,0.1999
		c0.3331,0,0.6661-0.0999,0.9659-0.2998c0.4996-0.3664,0.766-0.9992,0.6661-1.5987l-0.9659-5.5289
		c-0.0333-0.2332,0.0333-0.4662,0.1999-0.6328L20.9983,8.9508z M15.0697,13.1474l0.8327,4.7627
		c0.0333,0.2332-0.0666,0.4662-0.2665,0.5995c-0.1999,0.1332-0.4329,0.1666-0.6661,0.0333l-4.2965-2.2315
		c-0.1999-0.0999-0.4329-0.1666-0.6661-0.1666c-0.2332,0-0.4662,0.0666-0.6661,0.1666l-4.2965,2.2315
		c-0.2332,0.0999-0.4662,0.0999-0.6661-0.0333c-0.1999-0.1332-0.2998-0.3664-0.2665-0.5995l0.8327-4.7628
		c0.0666-0.4662-0.0666-0.9326-0.3997-1.2657L1.0479,8.5177C0.8813,8.3512,0.8147,8.1181,0.8813,7.885
		c0.0666-0.2332,0.2665-0.3998,0.4996-0.4331l4.8293-0.6994c0.4664-0.0666,0.866-0.3664,1.0659-0.766l2.1649-4.3298
		c0.0999-0.2332,0.3331-0.3331,0.5662-0.3331c0.2332,0,0.4662,0.1332,0.5662,0.3331l2.1649,4.3298
		c0.1999,0.4329,0.5995,0.6994,1.0658,0.766l4.8294,0.6994c0.2332,0.0333,0.4329,0.1999,0.4996,0.4329
		c0.0666,0.2332,0,0.4662-0.1666,0.6328l-3.4639,3.3972C15.1364,12.2148,15.0031,12.681,15.0697,13.1474z"></path>
</g>
<path fill="currentColor" opacity="0.15" d="M17.1126,15.1497l0.8327,4.7628c0.0333,0.2332-0.0666,0.4662-0.2665,0.5995
	c-0.1999,0.1333-0.4329,0.1666-0.6661,0.0333l-4.3298-2.2648c-0.1999-0.0999-0.4329-0.1666-0.6661-0.1666
	s-0.4662,0.0666-0.6661,0.1666l-4.3298,2.2648c-0.2332,0.0999-0.4662,0.0999-0.6661-0.0333
	c-0.1999-0.1332-0.2998-0.3664-0.2665-0.5995l0.8327-4.7628c0.0666-0.4662-0.0666-0.9326-0.3997-1.2657L3.024,10.5201
	c-0.1666-0.1666-0.2332-0.3998-0.1666-0.6328C2.924,9.6541,3.1239,9.4876,3.3571,9.4543l4.8627-0.6994
	c0.4662-0.0666,0.866-0.3664,1.0658-0.766l2.1649-4.3298c0.0999-0.2332,0.3331-0.3331,0.5662-0.3331s0.4662,0.1332,0.5662,0.3331
	l2.1649,4.3298c0.1999,0.4329,0.5995,0.6994,1.0658,0.766l4.8294,0.6994c0.2332,0.0333,0.4329,0.1999,0.4996,0.4329
	c0.0666,0.2332,0,0.4662-0.1666,0.6328l-3.4639,3.3639C17.1791,14.2171,17.0126,14.6833,17.1126,15.1497z"></path>
</symbol>
<symbol id="favorite" x="0px" y="0px" viewBox="0 0 24 24" xml:space="preserve">

<g>
	<path fill="currentColor" id="Shape" d="M22.9983,10.9508c0.4662-0.4329,0.5995-1.0991,0.4329-1.6986c-0.1999-0.5995-0.6994-1.0325-1.3322-1.1324
		l-5.5622-0.7993c-0.2332-0.0333-0.4329-0.1666-0.5329-0.3997l-2.5313-4.9959c-0.2665-0.5662-0.8327-0.9326-1.4654-0.9326
		s-1.1991,0.3664-1.4654,0.9326L8.0438,6.954C7.9439,7.1538,7.744,7.3204,7.5108,7.3537L1.9154,8.153
		c-0.6328,0.1-1.1324,0.5329-1.3322,1.1325c-0.1998,0.5995-0.0333,1.2323,0.4331,1.6986l4.03,3.9301
		c0.1666,0.1666,0.2665,0.3997,0.1999,0.6328l-0.9659,5.5289c-0.0999,0.6328,0.1332,1.2324,0.6661,1.5987
		c0.4996,0.3664,1.1658,0.4329,1.7319,0.1332l4.9626-2.5979c0.1999-0.0999,0.4662-0.0999,0.6661,0l4.9626,2.5979
		c0.2332,0.1332,0.4996,0.1999,0.766,0.1999c0.3331,0,0.6661-0.0999,0.9659-0.2998c0.4996-0.3664,0.766-0.9992,0.6661-1.5987
		l-0.9659-5.5289c-0.0333-0.2332,0.0333-0.4662,0.1999-0.6328L22.9983,10.9508z"></path>
</g>
</symbol>
<symbol id="feed" x="0px" y="0px" viewBox="0 0 24 24" style="enable-background:new 0 0 24 24;" xml:space="preserve">
<style type="text/css"></style>
  <g id="Tabs-leftsidenavi-typo" transform="translate(-28.000000, -146.000000)">
		<g id="_x2F__x2F_-TABS" transform="translate(11.000000, 3.000000)">
			<g id="Group_1_" transform="translate(15.000000, 143.000000)">
				<g id="ico-show-feed" transform="translate(2.000000, 0.000000)">
						<path id="Path" fill="currentColor" d="M2.5,9.4v3.5c4.8,0,8.6,3.9,8.6,8.6h3.5C14.6,14.8,9.2,9.4,2.5,9.4z"></path>
          <path id="Path_1_" fill="currentColor" d="M2.5,2.5V6C11.1,6,18,13,18,21.5h3.5C21.5,11,13,2.5,2.5,2.5z"></path>
				</g>
        <circle fill="currentColor" id="Oval" class="st1" cx="6.5" cy="19.5" r="2"></circle>
			</g>
		</g>
</g>
</symbol>
<symbol id="filter" x="0px" y="0px" viewBox="0 0 24 24" xml:space="preserve">
<g>
	<g transform="translate(1 14)">
		<g>
			<path fill="currentColor" d="M21.3933,3.0574H19.066c-0.0597,0-0.1194,0.0098-0.1691,0.0298C18.6284,0.939,16.8481-0.722,14.6998-0.722
				c-2.1383,0-3.9087,1.651-4.1872,3.7794h-9.906C0.2785,3.0574,0,3.3359,0,3.6641s0.2785,0.6067,0.6067,0.6067h9.906
				c0.2785,2.1284,2.0488,3.7794,4.1872,3.7794c2.1483,0,3.9286-1.6609,4.1971-3.8092c0.0497,0.0199,0.1094,0.0298,0.1691,0.0298
				h2.3273C21.7215,4.2708,22,3.9923,22,3.6641S21.7215,3.0574,21.3933,3.0574z M14.6998,6.8368
				c-1.6709,0-3.0335-1.4222-3.0335-3.1727s1.3626-3.1727,3.0335-3.1727c1.671,0,3.0335,1.4222,3.0335,3.1727
				S16.3707,6.8368,14.6998,6.8368z"></path>
		</g>
	</g>
	<g transform="matrix(-1 0 0 1 23 2)">
		<g>
			<path fill="currentColor" d="M0.6067,3.7193h9.906c0.2785-2.1284,2.0488-3.7694,4.1872-3.7694c2.1483,0,3.9286,1.651,4.1971,3.7992
				c0.0497-0.0199,0.1094-0.0298,0.1691-0.0298h2.3273C21.7215,3.7192,22,3.9976,22,4.3259c0,0.3282-0.2785,0.5967-0.6067,0.5967
				H19.066c-0.0597,0-0.1194-0.0099-0.1691-0.0298c-0.2685,2.1483-2.0488,3.8192-4.1971,3.8192
				c-2.1383,0-3.9185-1.651-4.1971-3.7893h-9.896C0.2785,4.9226,0,4.6541,0,4.3259C0,3.9976,0.2785,3.7193,0.6067,3.7193z
				 M14.6998,7.5086c1.671,0,3.0335-1.4322,3.0335-3.1826s-1.3626-3.1826-3.0335-3.1826s-3.0335,1.4322-3.0335,3.1826
				S13.0289,7.5086,14.6998,7.5086z"></path>
		</g>
	</g>
</g>
</symbol>
<symbol id="focalpoint" x="0px" y="0px" viewBox="0 0 24 24" style="enable-background:new 0 0 24 24;" xml:space="preserve">
<style type="text/css">
	.st0{fill:#020203;}
</style>
<g>
	<g>
		<path class="st0" d="M12,22C6.5,22,2,17.5,2,12C2,6.5,6.5,2,12,2c5.5,0,10,4.5,10,10C22,17.5,17.5,22,12,22z M12,3.1
			c-4.9,0-8.9,4-8.9,8.9c0,4.9,4,8.9,8.9,8.9c4.9,0,8.9-4,8.9-8.9C20.9,7.1,16.9,3.1,12,3.1z"></path>
	</g>
</g>
<g>
	<g>
		<path class="st0" d="M13,12c0,0.5-0.5,1-1,1s-1-0.5-1-1c0-0.5,0.5-1,1-1S13,11.5,13,12z"></path>
	</g>
</g>
</symbol>
<symbol id="gift" x="0px" y="0px" viewBox="0 0 24 24" style="enable-background:new 0 0 24 24;" xml:space="preserve">
<style type="text/css">
	.st0{fill:none;}
</style>
<path class="st0" d="M0,0h24v24H0V0z"></path>
<path d="M20,6h-2.2C17.9,5.7,18,5.3,18,5c0-1.7-1.3-3-3-3c-1.1,0-2,0.5-2.5,1.3L12,4l-0.5-0.7C11,2.5,10.1,2,9,2C7.3,2,6,3.3,6,5
	c0,0.3,0.1,0.7,0.2,1H4C2.9,6,2,6.9,2,8l0,11c0,1.1,0.9,2,2,2h16c1.1,0,2-0.9,2-2V8C22,6.9,21.1,6,20,6z M15,4c0.6,0,1,0.4,1,1
	s-0.4,1-1,1s-1-0.4-1-1S14.4,4,15,4z M9,4c0.6,0,1,0.4,1,1S9.6,6,9,6S8,5.6,8,5S8.4,4,9,4z M20,19H4v-2h16V19z M20,14H4V8h5.1
	L7,10.8L8.6,12L11,8.8l1-1.4l1,1.4l2.4,3.2l1.6-1.2L14.9,8H20V14z"></path>
</symbol>
<symbol id="history" x="0px" y="0px" viewBox="0 0 24 24" xml:space="preserve">
<path fill="currentColor" d="M13.5714,2.5714c-5.2067,0-9.4286,4.2219-9.4286,9.4286H1l4.0752,4.0752l0.0733,0.1467L9.381,12H6.2381
	c0-4.0543,3.279-7.3333,7.3333-7.3333S20.9048,7.9457,20.9048,12s-3.279,7.3333-7.3333,7.3333
	c-2.0219,0-3.8552-0.8276-5.1752-2.1581l-1.4876,1.4876c1.7076,1.7076,4.0543,2.7657,6.6629,2.7657
	C18.7781,21.4286,23,17.2067,23,12S18.7781,2.5714,13.5714,2.5714z M12.5238,7.8095v5.2381l4.4838,2.661l0.7543-1.2676
	l-3.6667-2.179V7.8095H12.5238z"></path>
</symbol>
<symbol id="info" x="0px" y="0px" viewBox="0 0 24 24" style="enable-background:new 0 0 24 24;" xml:space="preserve">
<style type="text/css">
	.st0{fill:currentColor;}
</style>
  <g id="Tabs-leftsidenavi-typo" transform="translate(-24.000000, -281.000000)">
		<g id="_x2F__x2F_-TABS" transform="translate(11.000000, 3.000000)">
			<g id="ico-info" transform="translate(13.000000, 278.000000)">
				<g>
					<path id="Path" class="st0" d="M12.7,6.5c0,0.6-0.5,1.1-1.1,1.1c-0.6,0-1.1-0.5-1.1-1.1s0.5-1.1,1.1-1.1
						C12.3,5.4,12.7,5.9,12.7,6.5z"></path>
          <path id="Path_1_" class="st0" d="M12.1,17.9c-0.4,0-0.6-0.3-0.6-0.6v-6.8h-0.9c-0.4,0-0.6-0.3-0.6-0.6c0-0.4,0.3-0.6,0.6-0.6
						h1.6c0.4,0,0.6,0.3,0.6,0.6v7.5C12.7,17.6,12.5,17.9,12.1,17.9z"></path>
          <path id="Shape" class="st0" d="M12,23C6,23,1,18.1,1,12S6,1,12,1s11,5,11,11S18.1,23,12,23z M12,2.4c-5.3,0-9.6,4.3-9.6,9.6
						s4.3,9.6,9.6,9.6s9.6-4.3,9.6-9.6S17.3,2.4,12,2.4z"></path>
          <path id="Path_2_" class="st0" d="M14.2,18.6H9.8c-0.4,0-0.7-0.4-0.7-0.7c0-0.4,0.4-0.7,0.7-0.7h4.4c0.4,0,0.7,0.4,0.7,0.7
						C14.9,18.2,14.6,18.6,14.2,18.6z"></path>
				</g>
			</g>
		</g>
</g>
</symbol>
<symbol id="instagram" x="0px" y="0px" viewBox="0 0 24 24" xml:space="preserve">
<style type="text/css">
	.st1{fill:url(#SVGID_1_);}
	.st2{fill:url(#SVGID_2_);}
	.st3{fill:#C837AB;}
</style>
<g>
	<g id="social-instagram">
		<g id="Rectangle-path">

				<radialGradient id="SVGID_1_" cx="1.3648" cy="1.6824" r="0.3879" gradientTransform="matrix(23 0 0 23 -21.5 -21.5)" gradientUnits="userSpaceOnUse">
				<stop  offset="0" style="stop-color:#FFDD55"></stop>
				<stop  offset="0.1" style="stop-color:#FFDD55"></stop>
				<stop  offset="0.5" style="stop-color:#FF543E"></stop>
				<stop  offset="1" style="stop-color:#C837AB"></stop>
			</radialGradient>
			<path class="st1" d="M16.125,21H7.8749c-2.7,0-4.875-2.175-4.875-4.875V7.8749c0-2.7,2.175-4.875,4.875-4.875h8.25
				c2.7,0,4.875,2.175,4.875,4.875v8.25C21,18.8251,18.8251,21,16.125,21z M7.8749,3.75c-2.25,0-4.1251,1.875-4.1251,4.1251v8.25
				c0,2.25,1.875,4.1251,4.1251,4.1251h8.25c2.25,0,4.1251-1.875,4.1251-4.1251V7.8749c0-2.25-1.875-4.1251-4.1251-4.1251
				L7.8749,3.75L7.8749,3.75z"></path>
		</g>
		<g id="Oval">

				<radialGradient id="SVGID_2_" cx="1.3215" cy="1.6511" r="0.4026" gradientTransform="matrix(12 0 0 12 -5 -5)" gradientUnits="userSpaceOnUse">
				<stop  offset="0" style="stop-color:#FFDD55"></stop>
				<stop  offset="0.1" style="stop-color:#FFDD55"></stop>
				<stop  offset="0.5" style="stop-color:#FF543E"></stop>
				<stop  offset="1" style="stop-color:#C837AB"></stop>
			</radialGradient>
			<path class="st2" d="M12,16.875c-2.7,0-4.875-2.175-4.875-4.875S9.3,7.125,12,7.125S16.875,9.3,16.875,12S14.7,16.875,12,16.875z
				 M12,7.8749C9.75,7.8749,7.8749,9.75,7.8749,12S9.75,16.1251,12,16.1251S16.125,14.25,16.125,12S14.25,7.8749,12,7.8749z"></path>
		</g>
		<g>
			<path class="st3" d="M17.2501,8.25c-0.825,0-1.5-0.675-1.5-1.5s0.675-1.5,1.5-1.5s1.5,0.675,1.5,1.5S18.075,8.25,17.2501,8.25z
				 M17.2501,6c-0.45,0-0.75,0.3-0.75,0.75c0,0.45,0.3,0.7499,0.75,0.7499s0.75-0.3,0.75-0.75C18.0001,6.2999,17.7001,6,17.2501,6z"
				></path>
		</g>
	</g>
</g>
</symbol>
<symbol viewBox="0 0 25 24" fill="none" id="link">
<path d="M11.5 17H7.5C6.11667 17 4.9375 16.5125 3.9625 15.5375C2.9875 14.5625 2.5 13.3833 2.5 12C2.5 10.6167 2.9875 9.4375 3.9625 8.4625C4.9375 7.4875 6.11667 7 7.5 7H11.5V9H7.5C6.66667 9 5.95833 9.29167 5.375 9.875C4.79167 10.4583 4.5 11.1667 4.5 12C4.5 12.8333 4.79167 13.5417 5.375 14.125C5.95833 14.7083 6.66667 15 7.5 15H11.5V17ZM8.5 13V11H16.5V13H8.5ZM13.5 17V15H17.5C18.3333 15 19.0417 14.7083 19.625 14.125C20.2083 13.5417 20.5 12.8333 20.5 12C20.5 11.1667 20.2083 10.4583 19.625 9.875C19.0417 9.29167 18.3333 9 17.5 9H13.5V7H17.5C18.8833 7 20.0625 7.4875 21.0375 8.4625C22.0125 9.4375 22.5 10.6167 22.5 12C22.5 13.3833 22.0125 14.5625 21.0375 15.5375C20.0625 16.5125 18.8833 17 17.5 17H13.5Z" fill="currentColor"></path>
</symbol>
<symbol id="live" x="0px" y="0px" viewBox="0 0 24 24" style="enable-background:new 0 0 24 24;" xml:space="preserve">
  <g id="Tabs-leftsidenavi-typo" transform="translate(-32.000000, -219.000000)">
		<g id="_x2F__x2F_-TABS" transform="translate(11.000000, 3.000000)">
			<circle fill="currentColor" id="Oval" class="st0" cx="33" cy="228" r="4"></circle>
		</g>
</g>
</symbol>
<symbol id="lock" x="0px" y="0px" viewBox="0 0 24 24" style="enable-background:new 0 0 24 24;" xml:space="preserve">
		<path fill="currentColor" d="M18,9.3334h-0.6667V6.6667c0-2.9413-2.392-5.3333-5.3333-5.3333s-5.3333,2.392-5.3333,5.3333
			v2.6667H6c-1.1022,0-2,0.8969-2,2v9.3333c0,1.1031,0.8978,2,2,2h12c1.1022,0,2-0.8969,2-2v-9.3333
			C20,10.2303,19.1022,9.3334,18,9.3334z M8.6667,6.762c0-1.8909,1.6445-3.4286,3.6667-3.4286s2.9755,1.5377,2.9755,3.4286v2.5714
			H8.6667V6.762z M13.1667,16.5237v1.9526c0,0.4731-0.3725,0.8571-0.8333,0.8571s-0.8333-0.384-0.8333-0.8571v-1.9526
			c-0.4958-0.2974-0.8333-0.8443-0.8333-1.476c0-0.9454,0.7475-1.7143,1.6667-1.7143s1.6667,0.7689,1.6667,1.7143
			C14,15.6794,13.6625,16.2262,13.1667,16.5237z"></path>
</symbol>
<symbol id="logout" x="0px" y="0px" viewBox="0 0 24 24" xml:space="preserve">
<style type="text/css">
	.st0{fill:currentColor;}
</style>
<g id="logout" transform="translate(-1572.000000, -333.000000)">
	<g transform="translate(1548.000000, 310.000000)">
		<g transform="translate(24.000000, 23.000000)">
			<path class="st0" d="M16.7,15.8c-0.2,0.3-0.2,0.7,0.1,1c0.3,0.3,0.7,0.2,1-0.1l3.4-4.2c0.2-0.3,0.2-0.7,0-0.9l-3.4-4.2
				c-0.3-0.3-0.7-0.3-1-0.1s-0.3,0.6-0.1,0.9l2.4,3.1H6.9c-0.4,0-0.7,0.3-0.7,0.7s0.3,0.7,0.7,0.7h12.3L16.7,15.8z M3.5,2.8h13.3
				c0.4,0,0.7,0.3,0.7,0.7s-0.3,0.7-0.7,0.7H4.2v15.6h12.6c0.4,0,0.7,0.3,0.7,0.7c0,0.4-0.3,0.7-0.7,0.7H3.5c-0.4,0-0.7-0.3-0.7-0.7
				v-17C2.8,3.1,3.1,2.8,3.5,2.8z"></path>
		</g>
	</g>
</g>
</symbol>
<symbol id="mail" x="0px" y="0px" viewBox="0 0 24 24" xml:space="preserve">
<g>
	<g id="email-action-unread" transform="translate(0.000000, 4.000000)">
		<g id="Rectangle-path">
			<path fill="currentColor" d="M19.92,0.92H4.08C2.92,0.92,2,1.83,2,3v10c0,1.17,0.92,2.08,2.08,2.08h15.84c1.16,0,2.08-0.91,2.08-2.08V3
				C22,1.83,21.08,0.92,19.92,0.92z M4.08,1.75h15.84c0.26,0,0.5,0.09,0.71,0.24L12,9.08L3.37,1.99C3.58,1.84,3.82,1.75,4.08,1.75z
				 M21.17,13c0,0.67-0.59,1.25-1.25,1.25H4.08c-0.66,0-1.25-0.58-1.25-1.25V3c0-0.11,0.02-0.22,0.05-0.32L11.75,10
				c0.08,0.08,0.17,0.08,0.25,0.08s0.17-0.08,0.25-0.16l8.87-7.25c0.03,0.11,0.05,0.22,0.05,0.33V13z"></path>
		</g>
	</g>
</g>
</symbol>
<symbol id="media" x="0px" y="0px" viewBox="0 0 24 24" style="enable-background:new 0 0 24 24;" xml:space="preserve">
	<g id="Tabs-leftsidenavi-typo" transform="translate(-30.000000, -12.000000)">
		<g id="_x2F__x2F_-TABS" transform="translate(11.000000, 3.000000)">
			<g id="Group" transform="translate(8.000000, 0.000000)">
				<g id="Group-3" transform="translate(11.000000, 9.000000)">
					<path fill="currentColor" d="M5.7,20.9c-0.4-0.2-0.7-0.6-0.7-1V4.2c0-0.4,0.3-0.8,0.7-1c0.4-0.3,0.9-0.2,1.2,0L18.5,11
						c0.3,0.3,0.5,0.6,0.5,1s-0.2,0.7-0.5,1c0,0-8.7,5.9-11.6,7.8C6.7,20.9,6.3,21.2,5.7,20.9z M7,6v12l9-6L7,6z"></path>
				</g>
			</g>
		</g>
</g>
</symbol>
<symbol id="megaphone" x="0px" y="0px" viewBox="0 0 56 56" style="enable-background:new 0 0 56 56;" xml:space="preserve">

	<g id="Alert-new-Feature-S" transform="translate(-284.000000, -537.000000)">
		<g id="megaphone" transform="translate(284.000000, 537.000000)">
			<path id="Path_1_" fill="#2F4859" d="M14.031,21.8846c-0.1658,0-0.3002,0.196-0.3002,0.4376v4.5606
				c0,0.2417,0.1344,0.4376,0.3002,0.4376h1.0587v-5.4359H14.031L14.031,21.8846z"></path>
			<path id="Path_2_" fill="#64798A" d="M39.5513,21.8846v6.7949c2.2516,0,4.0769-1.5211,4.0769-3.3974
				C43.6282,23.4058,41.8029,21.8846,39.5513,21.8846z"></path>
			<rect id="Rectangle" x="38.1923" y="12.3718" fill="#D15241" width="1.359" height="25.8205"></rect>
			<path id="Path_3_" fill="#EBF0F3" d="M36.8333,12.3718v25.8205c0,0-4.4525-6.4902-12.2308-8.3534v-9.1139
				C32.3808,18.862,36.8333,12.3718,36.8333,12.3718z"></path>
			<path id="Path_4_" fill="#3A556A" d="M23.865,20.5256h-9.3966c-0.4074,0-0.7376,0.3145-0.7376,0.7024v8.1081
				c0,0.3879,0.3302,0.7024,0.7376,0.7024h9.3966c0.4074,0,0.7376-0.3145,0.7376-0.7024V21.228
				C24.6026,20.8402,24.2723,20.5256,23.865,20.5256z"></path>
			<path id="Path_5_" fill="#D15241" d="M24.7199,41.0372l-2.0139-9.6397h-6.2573l1.9465,11.7515
				c0.0387,0.2753,0.2661,0.4792,0.534,0.4792h5.7838h0.0069v-0.0007c0.6863-0.0038,1.2417-0.5818,1.2417-1.2952
				C25.9615,41.6191,25.4061,41.0411,24.7199,41.0372z"></path>
			<g id="Group" transform="translate(15.794872, 22.974359)">
				<rect id="Rectangle_1_" x="0.7324" y="0.274" fill="#64798A" width="8.0085" height="0.9464"></rect>
				<rect id="Rectangle_2_" x="0.7324" y="2.5957" fill="#64798A" width="8.0085" height="0.9464"></rect>
				<rect id="Rectangle_3_" x="0.7324" y="4.915" fill="#64798A" width="8.0085" height="0.9464"></rect>
			</g>
		</g>
	</g>
</symbol>
<symbol id="menu" x="0px" y="0px" viewBox="0 0 24 24" xml:space="preserve">
<path fill="currentColor" d="M12,8c1.1,0,2-0.9,2-2s-0.9-2-2-2s-2,0.9-2,2S10.9,8,12,8z M12,10c-1.1,0-2,0.9-2,2s0.9,2,2,2s2-0.9,2-2S13.1,10,12,10z
	 M12,16c-1.1,0-2,0.9-2,2s0.9,2,2,2s2-0.9,2-2S13.1,16,12,16z"></path>
</symbol>
<symbol id="mobile" x="0px" y="0px" viewBox="0 0 24 24" style="enable-background:new 0 0 24 24;" xml:space="preserve">
<style type="text/css">
	.st0{fill-rule:evenodd;clip-rule:evenodd;}
</style>
<g>
	<g>
		<g>
			<path class="st0" d="M16.5,1h-9C6.1,1,5,2.1,5,3.5v17C5,21.9,6.1,23,7.5,23h9c1.4,0,2.5-1.1,2.5-2.5v-17C19,2.1,17.9,1,16.5,1z
				 M11,20c0-0.6,0.4-1,1-1s1,0.4,1,1s-0.4,1-1,1S11,20.6,11,20z M18,18H6V3.5C6,2.7,6.7,2,7.5,2h9C17.3,2,18,2.7,18,3.5V18z"></path>
		</g>
	</g>
</g>
</symbol>
<symbol viewBox="0 0 24 24" id="multi-language">
    <g fill="none" fill-rule="evenodd">
        <g>
            <g transform="translate(-605 -1760) translate(605 1760)">
                <path d="M0 0H24V24H0z"></path>
                <circle cx="6.5" cy="12.5" r="4" fill="#2A2A2A" stroke="#2A2A2A"></circle>
                <circle cx="17.5" cy="12.5" r="4" stroke="#2A2A2A"></circle>
            </g>
        </g>
    </g>
</symbol>
<symbol id="order" x="0px" y="0px" viewBox="0 0 24 24" xml:space="preserve">
<g>
		<g>
			<polygon fill="currentColor" points="8.3,1 3.4,5.9 7.1,5.9 7.1,14.4 9.6,14.4 9.6,5.9 13.2,5.9 			"></polygon>
			<polygon fill="currentColor" points="16.9,18.1 16.9,9.6 14.4,9.6 14.4,18.1 10.8,18.1 15.7,23 20.6,18.1 			"></polygon>
		</g>
</g>
</symbol>
<symbol id="pdf" x="0px" y="0px" viewBox="0 0 24 24" xml:space="preserve">
<g>
	<g>
		<g>
			<path fill="currentColor" d="M16.1,12h-2.4c-0.3,0-0.6,0.3-0.6,0.6v4.8c0,0.3,0.3,0.6,0.6,0.6h2.4c0.7,0,1.2-0.5,1.2-1.2v-3.6
				C17.3,12.6,16.8,12,16.1,12z M16.1,16.8h-1.8v-3.6h1.8V16.8z"></path>
			<path fill="currentColor" d="M21.5,13.2V12h-3c-0.3,0-0.6,0.3-0.6,0.6V18h1.2v-2.4h2.4v-1.2h-2.4v-1.2H21.5z"></path>
			<path fill="currentColor" d="M3.6,19.8V4.3c0-0.3,0.3-0.6,0.6-0.6h8.9v2.4c0,0.7,0.5,1.2,1.2,1.2h2.4v1.8h1.2V6.7c0-0.2-0.1-0.3-0.2-0.4l-3.6-3.6
				c-0.1-0.1-0.3-0.2-0.4-0.2H4.2c-1,0-1.8,0.8-1.8,1.8v15.5c0,1,0.8,1.8,1.8,1.8h4.2v-1.2H4.2C3.9,20.4,3.6,20.1,3.6,19.8z"></path>
			<path fill="currentColor" d="M11.4,12H9c-0.3,0-0.6,0.3-0.6,0.6V18h1.2v-1.8h1.8c0.7,0,1.2-0.5,1.2-1.2v-1.8C12.6,12.6,12,12,11.4,12z M11.4,15H9.6
				v-1.8h1.8V15z"></path>
		</g>
	</g>
</g>
</symbol>
<symbol viewBox="0 0 24 24" fill="#000000" id="pencil"><path d="M0 0h24v24H0V0z" fill="none"></path><path d="M14.06 9.02l.92.92L5.92 19H5v-.92l9.06-9.06M17.66 3c-.25 0-.51.1-.7.29l-1.83 1.83 3.75 3.75 1.83-1.83c.39-.39.39-1.02 0-1.41l-2.34-2.34c-.2-.2-.45-.29-.71-.29zm-3.6 3.19L3 17.25V21h3.75L17.81 9.94l-3.75-3.75z"></path></symbol>
<symbol id="phone" x="0px" y="0px" viewBox="0 0 24 24" xml:space="preserve">
<g>
	<g id="phone">
		<g id="Shape">
			<path fill="currentColor" d="M16.5696,21c-0.8399,0-1.6797-0.229-2.4432-0.7635l0,0c-4.123-2.7487-7.6352-6.2609-10.3839-10.3839
				C2.5971,8.0202,2.8263,5.6532,4.3532,4.1262l0.6109-0.6109c0.6871-0.6871,1.8325-0.6871,2.5196,0l2.5196,2.5196
				c0.3054,0.3054,0.5345,0.7635,0.5345,1.298s-0.229,0.9162-0.5345,1.2216c-0.4581,0.3817-0.4581,1.069,0,1.4507l3.9703,3.9703
				c0.3817,0.3817,1.069,0.3817,1.4507,0c0.6871-0.6871,1.8325-0.6871,2.5196,0l2.5196,2.5196c0.6871,0.6871,0.6871,1.8325,0,2.5196
				l-0.6109,0.6109C18.9366,20.5419,17.7912,21,16.5696,21z M14.5081,19.6257L14.5081,19.6257
				c1.5271,0.9926,3.5122,0.7635,4.8102-0.5345l0.6109-0.6109c0.3817-0.3817,0.3817-1.069,0-1.4507L17.4096,14.51
				c-0.3817-0.3817-1.069-0.3817-1.4507,0c-0.6871,0.6871-1.8325,0.6871-2.5196,0l-3.9704-3.9703
				c-0.6871-0.6871-0.6871-1.8325,0-2.5196c0.229-0.229,0.3054-0.4581,0.3054-0.7635c0-0.3054-0.0764-0.5345-0.3054-0.7636
				L6.9493,4.1262c-0.3817-0.4581-1.069-0.4581-1.4507,0L4.8877,4.6607c-1.298,1.298-1.4506,3.2831-0.5345,4.8102
				C7.1019,13.5175,10.5378,16.877,14.5081,19.6257z"></path>
		</g>
	</g>
</g>
</symbol>
<symbol id="playlist" x="0px" y="0px" viewBox="0 0 24 24" xml:space="preserve">
<g id="playlist" transform="translate(-1525.000000, -571.000000)">
	<g id="playlist_play-24px" transform="translate(1525.000000, 570.000000)">
		<path fill="currentColor" d="M2.8,9.3h14.8v2.5H2.8V9.3z M2.8,4.4h14.8v2.5H2.8V4.4z M2.8,14.3h9.9v2.5H2.8V14.3z M15.1,14.3v7.4l6.2-3.7L15.1,14.3z"
			></path>
	</g>
</g>
</symbol>
<symbol viewBox="0 0 24 24" id="plus"><path d="M0 0h24v24H0z" fill="none"></path><path fill="currentColor" d="M19 13h-6v6h-2v-6H5v-2h6V5h2v6h6v2z"></path></symbol>
<symbol id="profile" x="0px" y="0px" viewBox="0 0 40 40" style="enable-background:new 0 0 40 40;" xml:space="preserve">
<g transform="translate(-1521.000000, -484.000000)">
	<g  transform="translate(1522.000000, 485.000000)">
		<path fill="currentColor" d="M19,38C8.5048,38,0,29.4952,0,19S8.5048,0,19,0s19,8.5048,19,19S29.4952,38,19,38z M19,1.8095
			C9.5,1.8095,1.8095,9.5,1.8095,19S9.5,36.1905,19,36.1905S36.1905,28.5,36.1905,19S28.5,1.8095,19,1.8095z"></path>
		<g transform="translate(11.000000, 9.000000)">
			<path fill="currentColor" d="M8,10.181c-2.8048,0-5.1571-2.3524-5.1571-5.1571S5.1952-0.1333,8-0.1333s5.1571,2.3524,5.1571,5.1571
				S10.8048,10.181,8,10.181z M8,1.4952c-1.9905,0-3.5286,1.6286-3.5286,3.5286S6.0095,8.5524,8,8.5524s3.5286-1.6286,3.5286-3.5286
				S9.9905,1.4952,8,1.4952z"></path>
			<path fill="currentColor" d="M15.5095,19.8619c-0.4524,0-0.8143-0.3619-0.8143-0.8143c0-3.7095-2.9857-6.6952-6.6952-6.6952
				s-6.6952,2.9857-6.6952,6.6952c0,0.4524-0.3619,0.8143-0.8143,0.8143S-0.3238,19.5-0.3238,19.0476
				c0-4.6143,3.7095-8.3238,8.3238-8.3238s8.3238,3.7095,8.3238,8.3238C16.3238,19.5,15.9619,19.8619,15.5095,19.8619z"></path>
		</g>
	</g>
</g>
</symbol>
<symbol id="publish" x="0px" y="0px" viewBox="0 0 24 24" style="enable-background:new 0 0 24 24;" xml:space="preserve">
	<g id="PAC-user-view-locked-sections" transform="translate(-1163.000000, -28.000000)">
		<g id="Publizieren" transform="translate(1147.000000, 20.000000)">
			<g id="upload" transform="translate(16.000000, 8.000000)">
				<path fill="currentColor" d="M20.5,8.7c0.1-0.3,0.1-0.7,0.1-1C20.6,4.6,18,2,14.8,2c-2.4,0-4.5,1.5-5.3,3.7
					C8,5.2,6.3,5.9,5.7,7.3c0,0.2-0.1,0.2-0.1,0.4C3.3,8.1,1.7,10.2,2,12.5c0.3,2.1,2.1,3.7,4.3,3.7h3.6c0.4,0,0.8-0.3,0.8-0.7
					s-0.3-0.7-0.8-0.7H6.2c-1.6,0-2.8-1.2-2.8-2.8s1.3-2.8,2.8-2.8C6.6,9.1,7,8.8,7,8.4C7,7.6,7.6,7,8.4,7c0.3,0,0.8,0.2,1,0.4
					c0.3,0.2,0.8,0.2,1,0c0.1-0.1,0.2-0.2,0.2-0.4c0.4-2.3,2.6-3.9,4.9-3.5s3.9,2.6,3.5,4.9c0,0.2-0.1,0.2-0.1,0.4
					c-0.1,0.3,0,0.6,0.3,0.7c1.3,0.8,1.7,2.7,0.8,4c-0.5,0.8-1.4,1.2-2.3,1.2h-2.2c-0.4,0-0.8,0.3-0.8,0.7s0.3,0.7,0.8,0.7h2.2
					c2.3,0,4.3-1.9,4.3-4.3C22,10.7,21.4,9.5,20.5,8.7z"></path>
        <path fill="currentColor" d="M16.8,12.2l-3.6-3.6c-0.1-0.1-0.2-0.1-0.3-0.2c-0.2-0.1-0.3-0.1-0.6,0c-0.1,0-0.2,0.1-0.3,0.2
					l-3.5,3.6c-0.3,0.2-0.3,0.7,0,1c0.3,0.2,0.8,0.2,1,0l2.3-2.3v10.4c0,0.4,0.3,0.7,0.8,0.7c0.4,0,0.8-0.3,0.8-0.7V10.8l2.3,2.3
					c0.3,0.2,0.8,0.2,1,0C17.1,12.9,17.1,12.5,16.8,12.2z"></path>
			</g>
		</g>
	</g>
</symbol>
<symbol viewBox="0 0 35 24" id="rsi">Ø
	<g id="Page-1" stroke="none" stroke-width="1" fill="none" fill-rule="evenodd">
		<g id="PAC-Welcome" transform="translate(-814.000000, -350.000000)">
			<g id="Group-3" transform="translate(562.000000, 193.000000)">
				<g id="logo-play-rsi-header" transform="translate(252.000000, 157.000000)">
					<g id="Group" fill="#AF001E">
						<path d="M0.117443038,24 L34.117443,24 L34.117443,0 L0.117443038,0 C0.117443038,0 0.117443038,24 0.117443038,24 Z" id="Path">
						</path>
					</g>
					<path d="M28,17.4043433 C28,17.7766287 27.8900749,17.9007239 27.5342157,17.9007239 L25.8667081,17.9007239 C25.5108489,17.9007239 25.4009238,17.7766287 25.4009238,17.4043433 L25.4009238,6.63288521 C25.4009238,6.26059979 25.5108489,6.13650465 25.8667081,6.13650465 L27.5342157,6.13650465 C27.8900749,6.13650465 28,6.27300931 28,6.63288521 L28,17.4043433 Z M18.3610604,18 C17.0727012,18 15.7610527,17.914088 15.2337849,17.8386763 C14.9878508,17.8004932 14.8658153,17.6897622 14.9021465,17.4167528 L15.1229282,16.0144778 C15.1974537,15.6173733 15.3194892,15.5562803 15.7973838,15.5677353 C16.2510577,15.6059184 17.5636378,15.7166494 18.3237977,15.7166494 C19.9913054,15.7166494 20.6788029,15.5429162 20.6788029,14.5129266 C20.6788029,13.8179938 20.2130187,13.4953464 19.10911,13.1975181 L17.7723091,12.8500517 C16.0060552,12.4033092 15.0008928,11.2864529 15.0008928,9.40020683 C15.0008928,7.31540848 16.4476187,6 19.4277064,6 C20.8995847,6 22.0528665,6.0868666 22.5801343,6.16132368 C22.8130264,6.1995068 22.9350619,6.31023785 22.8987307,6.58324716 L22.677949,7.96070321 C22.6034235,8.37117174 22.4692776,8.41985522 22.0034934,8.38262668 C21.101735,8.3063559 20.1974615,8.26502267 19.292629,8.25853154 C18.4588751,8.25853154 17.5878586,8.43226474 17.5878586,9.38779731 C17.5878586,10.0579111 18.0052013,10.3557394 18.912549,10.5915202 L20.2493498,10.9389866 C22.6406863,11.5594623 23.3281838,12.7507756 23.3281838,14.3391934 C23.3281838,17.0444674 21.2302915,18 18.3610604,18 Z M13.0380779,17.8883144 L11.0631526,17.8883144 C10.6346311,17.8883144 10.4874432,17.7642192 10.3029927,17.4539814 L8.15759034,13.5449845 C8.02251291,13.3216132 7.97313977,13.1851086 7.97313977,12.9989659 C7.97313977,12.9369183 7.99736056,12.8252327 8.04766526,12.6018614 L8.23118426,11.8324716 C8.40259287,11.1375388 8.57400147,11.3733195 9.08915887,11.1499483 C9.50650157,10.9762151 9.9229127,10.6783868 9.9229127,9.74767322 C9.9229127,8.71768356 9.39564492,8.32057911 8.31688856,8.32057911 L6.60000776,8.32057911 L6.60000776,17.4043433 C6.60000776,17.7766287 6.48915111,17.9007239 6.1342235,17.9007239 L4.46578426,17.9007239 C4.10992509,17.9007239 4,17.7766287 4,17.4043433 L4,6.63288521 C4,6.26059979 4.10992509,6.13650465 4.46578426,6.13650465 L8.50040756,6.13650465 C11.2848659,6.13650465 12.5480728,7.41563917 12.5480728,9.69708058 C12.5480728,11.4601861 11.5540892,12.2668046 10.6709622,12.8376422 L13.3073012,17.2668841 C13.6026084,17.7269907 13.2961223,17.8873598 13.0380779,17.8873598 L13.0380779,17.8883144 Z" id="Shape" fill="#FFFFFF">
					</path>
				</g>
			</g>
		</g>
	</g>
</symbol>
<symbol viewBox="0 0 37 24" id="rtr">
    <g id="Page-1" stroke="none" stroke-width="1" fill="none" fill-rule="evenodd">
        <g id="PAC-Welcome" transform="translate(-769.000000, -350.000000)">
            <g id="Group-3" transform="translate(562.000000, 193.000000)">
                <g id="logo-play-rtr-header" transform="translate(207.000000, 157.000000)">
                    <g id="Group" fill="#AF001E">
                        <path d="M0.07955,24 L36.39505,24 L36.39505,0 L0.07955,0 C0.07955,0 0.07955,24 0.07955,24 Z" id="Path"></path>
                    </g>
                    <path d="M33.6101947,17.9873551 L31.6387854,17.9873551 C31.2110268,17.9873551 31.064101,17.8609062 30.8809088,17.544784 L28.7383961,13.5616438 C28.6035591,13.3340358 28.5552038,13.194942 28.5552038,13.0052687 C28.5552038,12.9420443 28.5793815,12.8282403 28.6286667,12.6006322 L28.811859,11.8166491 C28.9708736,11.0958904 29.1549958,11.3487882 29.669236,11.1211802 C30.0849058,10.9441517 30.5015055,10.6406744 30.5015055,9.69230769 C30.5015055,8.64278188 29.9751764,8.23814542 28.8974107,8.23814542 L27.1835866,8.23814542 L27.1835866,17.4815595 C27.1835866,17.8609062 27.085946,17.9873551 26.7186315,17.9873551 L25.0540926,17.9873551 C24.698867,17.9873551 24.5891376,17.8609062 24.5891376,17.4815595 L24.5891376,6.50579557 C24.5891376,6.12644889 24.698867,6 25.0540926,6 L29.080603,6 C31.860104,6 33.121062,7.3024236 33.121062,9.62908325 C33.121062,11.4373024 32.128848,12.2592202 31.2482232,12.8408851 L33.8798686,17.3551106 C34.1737201,17.8229715 33.8677797,17.9873551 33.6101947,17.9873551 Z M23.1319686,7.7829294 C23.1319686,8.16227608 23.0222392,8.28872497 22.6670136,8.28872497 L19.5945909,8.28872497 L19.5945909,17.4942044 C19.5945909,17.8735511 19.4839316,18 19.1296359,18 L17.465097,18 C17.1098714,18 17.000142,17.8735511 17.000142,17.4942044 L17.0113009,17.4942044 L17.0113009,8.28872497 L13.9398081,8.28872497 C13.5845825,8.28872497 13.4748531,8.14963119 13.4748531,7.7829294 L13.4748531,6.51844046 C13.4748531,6.13909378 13.5724937,6.01264489 13.9398081,6.01264489 L22.6679435,6.01264489 C23.0231692,6.01264489 23.1328985,6.15173867 23.1328985,6.51844046 L23.1328985,7.7829294 L23.1319686,7.7829294 Z M13.021057,17.9873551 L11.0496478,17.9873551 C10.6218892,17.9873551 10.4749634,17.8609062 10.2908412,17.544784 L8.14925848,13.5616438 C8.01442153,13.3340358 7.9651363,13.194942 7.9651363,13.0052687 C7.9651363,12.9420443 7.99024387,12.8282403 8.0395291,12.6006322 L8.22272137,11.8166491 C8.39382482,11.0958904 8.56492826,11.3487882 9.0791685,11.1211802 C9.49576818,10.9441517 9.91143796,10.6406744 9.91143796,9.69230769 C9.91143796,8.64278188 9.38510889,8.23814542 8.30827309,8.23814542 L6.59444894,8.23814542 L6.59444894,17.4815595 C6.59444894,17.8609062 6.49680839,17.9873551 6.12949393,17.9873551 L4.46495501,17.9873551 C4.10972938,17.9873551 4,17.8609062 4,17.4815595 L4,6.50579557 C4,6.12644889 4.10972938,6 4.46495501,6 L8.49146537,6 C11.2709664,6 12.5319244,7.3024236 12.5319244,9.62908325 C12.5319244,11.4373024 11.5397104,12.2592202 10.6581557,12.8408851 L13.289801,17.3551106 C13.5836526,17.8229715 13.2777122,17.9873551 13.021057,17.9873551 Z" id="Shape" fill="#FFFFFF"></path>
                </g>
            </g>
        </g>
    </g>
</symbol>
<symbol viewBox="0 0 37 24" id="rts">
    <g id="Page-1" stroke="none" stroke-width="1" fill="none" fill-rule="evenodd">
        <g id="PAC-Welcome" transform="translate(-724.000000, -350.000000)">
            <g id="Group-3" transform="translate(562.000000, 193.000000)">
                <g id="logo-play-rts-header" transform="translate(162.000000, 157.000000)">
                    <g id="Group" fill="#AF001E">
                        <path d="M0.07955,24 L36.39505,24 L36.39505,0 L0.07955,0 C0.07955,0 0.07955,24 0.07955,24 Z" id="Path"></path>
                    </g>
                    <path d="M27.1012599,18 C25.8366776,18 24.5356976,17.9092934 24.0195987,17.8357734 C23.7881475,17.798536 23.6640224,17.6887333 23.6994867,17.4156588 L23.9132058,16.0063654 C23.9841344,15.6034373 24.1091927,15.5490134 24.5720952,15.5862508 C25.0172655,15.6225334 26.3173122,15.7313813 27.0657956,15.7313813 C28.7046197,15.7313813 29.3812413,15.5490134 29.3812413,14.5245067 C29.3812413,13.829408 28.9183388,13.5 27.8320112,13.2068746 L26.5132991,12.8593253 C24.7858143,12.4019733 23.7881475,11.28676 23.7881475,9.40197327 C23.7881475,7.31667728 25.2132524,6 28.1521232,6 C29.5949603,6 30.7354176,6.09070656 31.2515166,6.16422661 C31.4829678,6.20050923 31.6080261,6.3103119 31.5716286,6.58434118 L31.3588427,7.9563972 C31.2869809,8.35932527 31.1628558,8.41470401 30.6999533,8.37651178 C29.8111993,8.29907702 28.9199253,8.25677912 28.0279981,8.2495226 C27.2076528,8.2495226 26.3527765,8.43284532 26.3527765,9.38383195 C26.3527765,10.0607893 26.7634158,10.3529599 27.6537564,10.5907066 L28.9715352,10.9392107 C31.3233784,11.5598345 32,12.7495226 32,14.341184 C32,17.0480586 29.9337378,18 27.1012599,18 Z M22.8875408,7.86569064 C22.8875408,8.23138129 22.7802147,8.35932527 22.4237051,8.35932527 L19.3961736,8.35932527 L19.3961736,17.3956079 C19.3961736,17.7622533 19.2888474,17.8901973 18.9323378,17.8901973 L17.294447,17.8901973 C16.9379375,17.8901973 16.8306113,17.7622533 16.8306113,17.3956079 L16.8306113,8.36028008 L13.8030798,8.36028008 C13.4465702,8.36028008 13.3392441,8.23233609 13.3392441,7.86664545 L13.3392441,6.62253342 C13.3392441,6.25684278 13.4465702,6.12794398 13.8030798,6.12794398 L22.4237051,6.12794398 C22.7802147,6.12794398 22.8875408,6.25684278 22.8875408,6.62253342 L22.8875408,7.86664545 L22.8875408,7.86569064 Z M12.9062063,17.8901973 L10.9650023,17.8901973 C10.5375642,17.8901973 10.3947737,17.7622533 10.2165189,17.4509866 L8.09799347,13.5362826 C7.97293514,13.3166773 7.91880541,13.170592 7.91880541,12.9872693 C7.91880541,12.914704 7.93747084,12.8049013 7.98973402,12.585296 L8.16892207,11.8166773 C8.32851143,11.1215786 8.50676622,11.3593253 9.02286514,11.1397199 C9.43350443,10.957352 9.84227718,10.6642266 9.84227718,9.73233609 C9.84227718,8.7068746 9.32617825,8.30490134 8.25758283,8.30490134 L6.5655623,8.30490134 L6.5655623,17.3956079 C6.5655623,17.7622533 6.45916939,17.8901973 6.10172655,17.8901973 L4.46290247,17.8901973 C4.10732618,17.8901973 4,17.7622533 4,17.3956079 L4,6.62253342 C4,6.25684278 4.10732618,6.12794398 4.46290247,6.12794398 L8.43490434,6.12794398 C11.1787214,6.12794398 12.4255716,7.40929344 12.4255716,9.69605347 C12.4255716,11.4700827 11.445637,12.2749841 10.5730285,12.8421388 L13.1740551,17.2686187 C13.4587028,17.7269255 13.1553896,17.8911521 12.9062063,17.8911521 L12.9062063,17.8901973 Z" id="Shape" fill="#FFFFFF"></path>
                </g>
            </g>
        </g>
    </g>
</symbol>
<symbol id="search" x="0px" y="0px" viewBox="0 0 24 24" xml:space="preserve">
<g id="Search">
	<g transform="translate(1.000000, 1.000000)">
		<g>
			<g id="Group" transform="translate(0.525000, 0.523810)">
				<g id="Stroke-4374">
					<path fill="currentColor" d="M21.3175,21.1349l-5.1456-5.1456c1.8902-1.7852,3.0453-4.3055,3.0453-7.1408c0-5.4606-4.4105-9.8711-9.8711-9.8711
						S-0.525,3.3879-0.525,8.8485s4.4105,9.8711,9.8711,9.8711c2.2053,0,4.3055-0.7351,5.9857-1.9952l5.2506,5.1456
						c0.105,0.105,0.21,0.105,0.315,0.105c0.105,0,0.315,0,0.42-0.105C21.5275,21.66,21.5275,21.3449,21.3175,21.1349z
						 M9.3461,17.6695c-4.9356,0-8.821-3.9905-8.821-8.821s3.9905-8.821,8.821-8.821s8.821,3.9905,8.821,8.821
						C18.2721,13.6791,14.2817,17.6695,9.3461,17.6695z"></path>
				</g>
			</g>
		</g>
	</g>
</g>
</symbol>
<symbol id="settings" x="0px" y="0px" viewBox="0 0 24 24" style="enable-background:new 0 0 24 24;" xml:space="preserve">
<g>
	<path fill="currentColor" d="M19.14,12.94c0.04-0.3,0.06-0.61,0.06-0.94c0-0.32-0.02-0.64-0.07-0.94l2.03-1.58c0.18-0.14,0.23-0.41,0.12-0.61
		l-1.92-3.32c-0.12-0.22-0.37-0.29-0.59-0.22l-2.39,0.96c-0.5-0.38-1.03-0.7-1.62-0.94L14.4,2.81c-0.04-0.24-0.24-0.41-0.48-0.41
		h-3.84c-0.24,0-0.43,0.17-0.47,0.41L9.25,5.35C8.66,5.59,8.12,5.92,7.63,6.29L5.24,5.33c-0.22-0.08-0.47,0-0.59,0.22L2.74,8.87
		C2.62,9.08,2.66,9.34,2.86,9.48l2.03,1.58C4.84,11.36,4.8,11.69,4.8,12s0.02,0.64,0.07,0.94l-2.03,1.58
		c-0.18,0.14-0.23,0.41-0.12,0.61l1.92,3.32c0.12,0.22,0.37,0.29,0.59,0.22l2.39-0.96c0.5,0.38,1.03,0.7,1.62,0.94l0.36,2.54
		c0.05,0.24,0.24,0.41,0.48,0.41h3.84c0.24,0,0.44-0.17,0.47-0.41l0.36-2.54c0.59-0.24,1.13-0.56,1.62-0.94l2.39,0.96
		c0.22,0.08,0.47,0,0.59-0.22l1.92-3.32c0.12-0.22,0.07-0.47-0.12-0.61L19.14,12.94z M12,15.6c-1.98,0-3.6-1.62-3.6-3.6
		s1.62-3.6,3.6-3.6s3.6,1.62,3.6,3.6S13.98,15.6,12,15.6z"></path>
</g>
</symbol>
<symbol viewBox="0 0 24 24" style="enable-background:new 0 0 24 24;" id="show">
    <style type="text/css">
        .st0{fill:currentColor;}
    </style>
    <path class="st0"
          d="M4.7,7.5h14.5c0.5,0,0.9-0.4,0.9-0.9c0-0.5-0.4-0.9-0.9-0.9H4.7C4.2,5.6,3.8,6,3.8,6.5C3.8,7,4.2,7.5,4.7,7.5z"
    ></path>
    <path class="st0"
          d="M7.5,3.8h9.1c0.5,0,0.9-0.4,0.9-0.9C17.5,2.4,17,2,16.5,2H7.5C7,2,6.5,2.4,6.5,2.9C6.5,3.4,7,3.8,7.5,3.8z"></path>
    <path class="st0" d="M20.2,9.3H3.8c-1,0-1.8,0.8-1.8,1.8v9.1c0,1,0.8,1.8,1.8,1.8h16.4c1,0,1.8-0.8,1.8-1.8v-9.1
	C22,10.1,21.2,9.3,20.2,9.3z M20.2,20.2H3.8v-9.1h16.4V20.2z"></path>
</symbol>
<symbol id="shows" x="0px" y="0px" viewBox="0 0 24 24" style="enable-background:new 0 0 24 24;" xml:space="preserve">
<style type="text/css">
	.st0{fill:currentColor;}
</style>
    <g id="Tabs-leftsidenavi-typo" transform="translate(-27.000000, -80.000000)">
		<g id="_x2F__x2F_-TABS" transform="translate(11.000000, 3.000000)">
			<g id="ico-shows" transform="translate(8.000000, 69.000000)">
				<g>
					<g id="Group-3" transform="translate(8.000000, 8	.000000)">
						<path id="Rectangle" class="st0"
                              d="M4.5,3h5c1.1,0,2,0.9,2,2v4c0,1.1-0.9,2-2,2h-5c-1.1,0-2-0.9-2-2V5C2.5,3.9,3.4,3,4.5,3z"
                        ></path>
                        <path id="Rectangle-Copy-20" class="st0" d="M4.5,13h5c1.1,0,2,0.9,2,2v4c0,1.1-0.9,2-2,2h-5c-1.1,0-2-0.9-2-2v-4
							C2.5,13.9,3.4,13,4.5,13z"></path>
                        <path id="Rectangle-Copy-19" class="st0" d="M14.5,3h5c1.1,0,2,0.9,2,2v4c0,1.1-0.9,2-2,2h-5c-1.1,0-2-0.9-2-2V5
							C12.5,3.9,13.4,3,14.5,3z"></path>
                        <path id="Rectangle-Copy-21" class="st0" d="M14.5,13h5c1.1,0,2,0.9,2,2v4c0,1.1-0.9,2-2,2h-5c-1.1,0-2-0.9-2-2v-4
							C12.5,13.9,13.4,13,14.5,13z"></path>
					</g>
				</g>
		</g>
	</g>
</g>
</symbol>
<symbol viewBox="0 0 24 24" id="sign-language">
    <g fill="none" fill-rule="evenodd">
        <g>
            <g>
                <g fill="#231F20">
                    <path d="M10.104 13.438c.198.014.396.048.593.04 2.086-.082 4.171-.18 6.257-.247.24-.008.564.08.706.251.153.185.237.557.166.784-.07.222-.354.48-.577.52-.66.119-1.337.15-2.01.192-1.427.088-2.855.156-4.283.242-.249.015-.496.077-.744.117l-.013.198c.181.03.362.084.543.085 1.76.005 3.519-.004 5.278.003.533.002.831.268.857.717.03.496-.284.852-.805.914-.066.007-.132.005-.198.006-1.561.04-3.122.077-4.684.119-.476.012-.953.032-1.429.062-.149.01-.295.066-.443.101l-.013.2c.196.045.39.126.587.128 1.134.015 2.269.01 3.403.015.164 0 .372-.048.483.037.23.177.52.398.582.655.088.363-.188.635-.54.74-.171.052-.356.07-.536.078-2.447.107-4.893.241-7.342.3-1.119.026-2.221-.197-3.262-.674C.443 17.996-.48 15.887.24 13.448c.347-1.17.99-2.158 1.706-3.105 1.386-1.833 2.7-3.72 3.744-5.794.18-.356.363-.338.61-.118.37.33.523.778.426 1.249-.115.562-.319 1.106-.508 1.65-.167.48-.421.934-.542 1.425-.399 1.63.48 2.777 2.092 2.702 1.493-.07 2.983-.212 4.475-.322 1.114-.083 2.228-.173 3.344-.245.528-.034.834.24.878.743.05.55-.18.879-.74.936-1.357.14-2.717.243-4.076.362-.393.035-.787.058-1.177.114-.14.02-.27.123-.406.188l.038.205" transform="translate(-770 -1760) translate(770 1760) translate(3 2)"></path>
                    <path d="M8.122 10.516c-.196 0-.393.016-.586-.003-.835-.084-1.389-.78-1.174-1.575.156-.575.44-1.117.69-1.663.037-.08.207-.144.312-.14.81.036 1.38-.348 1.868-.96 1.514-1.898 3.049-3.778 4.576-5.665.071-.088.138-.182.22-.26.342-.322.818-.333 1.146-.032.31.285.331.65.029 1.045-1.01 1.32-2.028 2.632-3.043 3.948-.02.025-.051.047-.06.076-.064.193-.123.388-.184.582.179-.1.402-.16.527-.305 1.25-1.44 2.482-2.894 3.72-4.343.084-.1.169-.198.257-.294.456-.498.933-.59 1.318-.255.367.318.336.78-.098 1.292-1.305 1.542-2.617 3.078-3.912 4.628-.123.148-.15.377-.221.568.17-.092.38-.149.506-.283.947-1.01 1.877-2.036 2.814-3.057.242-.264.477-.536.732-.786.353-.346.8-.35 1.13-.033.335.324.349.753.015 1.128-1.342 1.51-2.692 3.013-4.027 4.529-.129.145-.17.367-.251.553.183-.092.407-.144.544-.282.803-.81 1.582-1.643 2.38-2.459.143-.147.33-.339.504-.347.243-.011.586.059.715.226.124.162.137.577.013.733-.747.946-1.543 1.852-2.335 2.76-.084.096-.248.161-.38.17-2.062.143-4.124.274-6.186.408-.52.034-1.04.071-1.559.106v-.01" transform="translate(-770 -1760) translate(770 1760) translate(3 2)"></path>
                </g>
                <path d="M0 0H24V24H0z" transform="translate(-770 -1760) translate(770 1760)"></path>
            </g>
        </g>
    </g>
</symbol>
<symbol viewBox="0 0 37 24" id="srf">
    <g id="Page-1" stroke="none" stroke-width="1" fill="none" fill-rule="evenodd">
        <g id="PAC-Welcome" transform="translate(-679.000000, -350.000000)">
            <g id="Group-3" transform="translate(562.000000, 193.000000)">
                <g id="logo-play-srf-header" transform="translate(117.000000, 157.000000)">
                    <g id="Group" fill="#AF001E">
                        <path d="M0.07955,24 L36.39505,24 L36.39505,0 L0.07955,0 C0.07955,0 0.07955,24 0.07955,24 Z" id="Path"></path>
                    </g>
                    <g id="Group" transform="translate(4.000000, 6.000000)" fill="#FFFFFF">
                        <path d="M29.32275,2.5025 C29.32275,2.7599 29.112,2.96864286 28.852125,2.96864286 L24.1111875,2.96864286 L24.1111875,5.40614286 L28.3993125,5.40614286 C28.67025,5.40614286 28.8886875,5.62342857 28.8886875,5.89085714 L28.8886875,7.163 C28.8886875,7.4204 28.6779375,7.62914286 28.4180625,7.62914286 L24.1111875,7.62914286 L24.1111875,11.8058571 C24.1107188,12.0629786 23.9001563,12.2710725 23.6405625,12.2710725 L21.9943125,12.2710725 C21.7245938,12.2716286 21.5055,12.0553643 21.5049375,11.7882143 C21.5049375,11.7879357 21.5049375,11.7875643 21.5049375,11.7872857 L21.5049375,1.21271429 C21.5049375,0.954571429 21.715875,0.745642857 21.9755625,0.745642857 L28.8343125,0.745642857 C29.1043125,0.745642857 29.32275,0.962928571 29.32275,1.22942857 L29.32275,2.50342857 L29.32275,2.5025 Z" id="Path"></path>
                        <path d="M19.3411875,12.2710722 L17.3686875,12.2710722 C16.934625,12.2710722 16.788375,12.1466429 16.608375,11.8411429 L14.455875,8.00614286 C14.328375,7.79071429 14.274,7.64678571 14.274,7.46757143 C14.274,7.39607143 14.29275,7.28835714 14.3461875,7.07385714 L14.527125,6.32078571 C14.69025,5.63921429 14.8711875,5.87228571 15.3961875,5.65778571 C15.8124375,5.47857143 16.2286875,5.19164286 16.2286875,4.277 C16.2286875,3.27414286 15.7036875,2.87857143 14.6180625,2.87857143 L12.8986875,2.87857143 L12.8986875,11.8049286 C12.8986875,12.0623286 12.6879375,12.2710722 12.4280625,12.2710722 L10.7818125,12.2710722 C10.5120937,12.2715357 10.293,12.0553643 10.2924375,11.7882143 C10.2924375,11.7879357 10.2924375,11.7875643 10.2924375,11.7872857 L10.2924375,1.21271429 C10.2924375,0.954571429 10.503375,0.745642857 10.7630625,0.745642857 L14.799,0.745642857 C17.5861875,0.745642857 18.85275,2.00107143 18.85275,4.24171429 C18.85275,5.98 17.8561875,6.76835714 16.97025,7.32457143 L19.6130625,11.6619286 C19.9018125,12.1104286 19.5943125,12.2710722 19.3411875,12.2710722 Z" id="Path"></path>
                        <path d="M3.7430625,12.3787857 C2.4586875,12.3787857 1.1386875,12.2896429 0.61275,12.2172143 C0.378375,12.181 0.250875,12.0742143 0.2874375,11.8049286 L0.504,10.4250714 C0.577125,10.0304286 0.70275,9.97657143 1.1743125,10.0127857 C1.627125,10.049 2.9480625,10.1557857 3.7074375,10.1557857 C5.3715,10.1557857 6.0605625,9.97657143 6.0605625,8.97371429 C6.0605625,8.29214286 5.5899375,7.97085714 4.4855625,7.683 L3.1468125,7.34221429 C1.390875,6.89371429 0.378375,5.80078571 0.378375,3.95478571 C0.378375,1.911 1.8249375,0.621214286 4.810875,0.621214286 C6.277125,0.621214286 7.435875,0.710357143 7.959,0.782785714 C8.19525,0.818071429 8.3218125,0.925785714 8.287125,1.19414286 L8.0686875,2.53871429 C7.9955625,2.93335714 7.8699375,2.98721429 7.3993125,2.951 C6.4963125,2.87476429 5.59059375,2.83297857 4.6843125,2.82564286 C3.85275,2.82564286 2.9836875,3.00485714 2.9836875,3.93714286 C2.9836875,4.60014286 3.3999375,4.88707143 4.304625,5.11921429 L5.6443125,5.46 C8.0330625,6.07007143 8.7193125,7.23357143 8.7193125,8.79357143 C8.7193125,11.4465 6.6211875,12.3787857 3.7430625,12.3787857 Z" id="Path"></path>
                    </g>
                </g>
            </g>
        </g>
    </g>
</symbol>
<symbol viewBox="0 0 37 24" id="swi">
    <g id="Page-1" stroke="none" stroke-width="1" fill="none" fill-rule="evenodd">
        <g id="PAC-Welcome" transform="translate(-857.000000, -350.000000)">
            <g id="Group-3" transform="translate(562.000000, 193.000000)">
                <g id="logo-play-swi-header" transform="translate(295.000000, 157.000000)">
                    <g id="Group" fill="#AF001E">
                        <path d="M0.07955,24 L36.39505,24 L36.39505,0 L0.07955,0 C0.07955,0 0.07955,24 0.07955,24 Z" id="Path"></path>
                    </g>
                    <path d="M4.23246186,16.0020116 L4.0066053,17.4169439 C3.96896254,17.6899033 4.09412471,17.8013153 4.33315624,17.839381 C4.87427091,17.9136557 6.21999958,18 7.54126045,18 C10.4839832,18 12.6352669,17.0446422 12.6352669,14.3391876 C12.6352669,12.7515667 11.9304062,11.5594584 9.47798044,10.939265 L8.10684291,10.5920309 C7.17518461,10.3562089 6.74793928,10.0581818 6.74793928,9.387853 C6.74793928,8.43156673 7.64195483,8.25887814 8.48421158,8.25887814 C9.64172645,8.25887814 10.7992413,8.34522244 11.2641294,8.38235977 C11.7421924,8.4194971 11.8805296,8.37029014 11.9558151,7.96085106 L12.1816717,6.58305609 C12.2193144,6.31009671 12.0941523,6.19868472 11.8428868,6.16154739 C11.3017722,6.08727273 10.1197895,6 8.62254872,6 C5.56595662,6 4.08189082,7.31558994 4.08189082,9.39992263 C4.08189082,11.286499 5.1264774,12.4034043 6.91168529,12.8629787 L8.28282282,13.2102128 C9.41492882,13.5073114 9.89299187,13.8304062 9.89299187,14.5258027 C9.89299187,15.5554352 9.18813119,15.7290522 7.47820882,15.7290522 C6.69806263,15.7290522 5.35139289,15.6176402 4.88650481,15.5805029 C4.43385062,15.5433656 4.30774738,15.6055706 4.23246186,16.0020116 M32.5219369,6.12348162 C32.8870717,6.12348162 33,6.24789168 33,6.62019342 L33,17.3918762 C33,17.7521083 32.8870717,17.888588 32.5219369,17.888588 L30.8110735,17.888588 C30.4468798,17.888588 30.3330105,17.7641779 30.3330105,17.3918762 L30.3330105,6.62019342 C30.3330105,6.26088975 30.4459387,6.12441006 30.8110735,6.12441006 L32.522878,6.12441006 L32.5219369,6.12348162 Z M16.9246594,17.888588 C16.6348102,17.888588 16.345902,17.665764 16.2828504,17.3918762 L13.5405753,6.62019342 C13.4652898,6.34723404 13.6535036,6.12441006 13.9311189,6.12441006 L15.9054817,6.12441006 C16.1943899,6.12441006 16.4720052,6.34723404 16.5218819,6.63319149 L17.9805388,14.1906383 L19.8429144,6.63319149 C19.9210231,6.3505764 20.1749235,6.14994197 20.4715485,6.13647969 L22.0054909,6.13647969 C22.2953402,6.13647969 22.5720145,6.35930368 22.6473,6.63319149 L24.5219094,14.1906383 L25.9683325,6.63319149 C26.0191502,6.36023211 26.2958245,6.12441006 26.5724988,6.12441006 L28.4339332,6.12441006 C28.7228414,6.12441006 28.8988213,6.34723404 28.8235358,6.62019342 L26.043618,17.3918762 C25.9683325,17.6648356 25.6794243,17.888588 25.40275,17.888588 L23.616601,17.888588 C23.3267518,17.888588 23.0500775,17.665764 22.974792,17.3918762 L21.1632342,9.89663443 L19.3140336,17.3918762 C19.2359249,17.6744913 18.9820244,17.8751257 18.6853995,17.888588 L16.9246594,17.888588 L16.9246594,17.888588 Z" id="Shape" fill="#FFFFFF"></path>
                </g>
            </g>
        </g>
    </g>
</symbol>
<symbol id="switch" x="0px" y="0px" viewBox="0 0 24 24" xml:space="preserve">
<g id="switch" transform="translate(-1523.000000, -706.000000)">
	<g transform="translate(1505.000000, 469.000000)">
		<g transform="translate(18.000000, 237.000000)">
			<polygon fill="currentColor" id="Path" points="5.8,11 1,15.9 5.8,20.9 5.8,17.1 14.2,17.1 14.2,14.7 5.8,14.7 			"></polygon>
			<polygon fill="currentColor" id="Path_1_" points="23,8.2 18.2,3.2 18.2,7 9.8,7 9.8,9.4 18.2,9.4 18.2,13.1 			"></polygon>
		</g>
	</g>
</g>
</symbol>
<symbol id="to-top" x="0px" y="0px" viewBox="0 0 24 24" xml:space="preserve">
<g>
	<g id="arw-re" transform="translate(6.000000, 6.000000)">
		<circle fill="#F8F8F8" cx="6" cy="6" r="10"></circle>
	</g>
</g>
<path fill="currentColor" d="M12,11.1111L9.6111,13.5c-0.2222,0.2222-0.5555,0.2222-0.7778,0c-0.2223-0.2222-0.2222-0.5555,0-0.7778L12,9.5555
	l3.1666,3.1666c0.2222,0.2222,0.2222,0.5555,0,0.7778c-0.2222,0.2222-0.5555,0.2222-0.7778,0L12,11.1111z"></path>
</symbol>
<symbol viewBox="0 0 24 14" fill="none" id="trending">
<path d="M1 12.5L8.5 5L13.5 10L22.5 1" stroke="#096C3D" stroke-width="2" stroke-linecap="round"></path>
<path d="M23 6.5V1H17.5" stroke="#096C3D" stroke-width="2" stroke-linecap="round"></path>
</symbol>
<symbol id="tv" x="0px" y="0px" viewBox="0 0 24 24" style="enable-background:new 0 0 24 24;" xml:space="preserve">
<g>
	<path d="M20.5,9h-17C2.1,9,1,10.1,1,11.5v9C1,21.9,2.1,23,3.5,23h17c1.4,0,2.5-1.1,2.5-2.5v-9C23,10.1,21.9,9,20.5,9z M22,20.5
		c0,0.8-0.7,1.5-1.5,1.5h-17C2.7,22,2,21.3,2,20.5v-9C2,10.7,2.7,10,3.5,10h17c0.8,0,1.5,0.7,1.5,1.5V20.5z"></path>
	<path d="M10.9,7H9v2h6V7h-1.9l4.7-5.2c0.2-0.2,0.2-0.5,0-0.7c-0.2-0.2-0.5-0.2-0.7,0L12,6.8L6.9,1.2C6.7,1,6.4,0.9,6.2,1.1
		C6,1.3,6,1.6,6.2,1.8L10.9,7z"></path>
</g>
</symbol>
<symbol id="twitter" x="0px" y="0px" viewBox="0 0 24 24" xml:space="preserve">
<g>
	<g id="social-media-twitter" transform="translate(1.000000, 3.000000)">
		<g id="Shape">
			<path fill="#5AA8DF" d="M8.3399,17c-1.9423,0-4.2224-0.4222-6.8403-1.6045c-0.1689-0.0844-0.2533-0.2533-0.2533-0.5067
				c0.0844-0.1689,0.2533-0.3378,0.4222-0.3378c1.4356,0,2.8712-0.3378,4.2224-1.0134c-1.4356-0.2533-2.5335-0.6756-3.2935-2.1957
				C2.513,11.2575,2.513,11.173,2.513,11.0886s0.1689-0.1689,0.2533-0.2533l0.9289-0.3378c-1.689-0.6756-2.1957-2.1957-2.449-3.3779
				c0-0.1689,0-0.2533,0.0844-0.3378S1.584,6.6129,1.6685,6.6973l1.3512,0.2533C2.344,5.5995,2.1751,4.0794,2.5129,2.2215
				c0-0.1689,0.1689-0.2533,0.3378-0.3378c0.1689-0.0844,0.3378,0,0.4222,0.1689c2.5335,2.8712,4.8136,4.0535,7.2626,3.7157V5.2617
				c0-1.689,1.0134-3.209,2.5335-3.8846c1.4356-0.6756,3.1246-0.4222,4.3913,0.5911l1.8579-0.5067
				c0.1689-0.0844,0.3378,0,0.4222,0.1689s0.1689,0.3378,0.0844,0.4222l-0.5911,1.1823l1.1823,0.2533
				c0.1689,0,0.2533,0.1689,0.3378,0.3378c0,0.1689,0,0.3378-0.1689,0.4222L19.0648,5.515v0.929
				c0,3.5468-1.7734,6.9248-4.7291,8.7826C12.9001,16.24,10.9578,17,8.3399,17z M3.5263,15.311
				c4.9825,1.689,8.276,0.6756,10.3027-0.6756c2.7023-1.7734,4.3069-4.8136,4.3069-8.107V5.4306
				c0-0.0844,0.0844-0.2533,0.1689-0.3378l1.0134-0.8445L18.4737,3.995c-0.0844,0-0.2533-0.0844-0.2533-0.2533
				s-0.0844-0.2533,0-0.3378l0.4222-0.8445l-1.1823,0.3378c-0.1689,0-0.2533,0-0.4222-0.0844
				c-1.0134-0.9289-2.449-1.1823-3.6313-0.5911C12.1401,2.7282,11.38,3.995,11.38,5.3461v0.8445
				c0,0.1689-0.1689,0.3378-0.3378,0.4222C8.4243,7.1195,5.8064,6.0217,3.1885,3.3194c-0.1689,1.689,0.2533,2.9557,1.2667,3.8002
				C4.6241,7.204,4.6241,7.4573,4.5397,7.6262c0,0.0844-0.2533,0.2533-0.4222,0.1689L2.2596,7.4573
				c0.4222,1.5201,1.3512,2.2801,2.8712,2.449c0.1689,0,0.3378,0.1689,0.3378,0.3378s-0.0844,0.3378-0.2533,0.4222l-1.689,0.6756
				c0.6756,1.0978,1.689,1.3512,3.6313,1.5201c0.1689,0,0.3378,0.1689,0.3378,0.3378c0.0844,0.1689,0.0844,0.3378-0.0844,0.4222
				C6.2287,14.4665,4.8775,15.0577,3.5263,15.311z"></path>
		</g>
	</g>
</g>
</symbol>
<symbol id="undo" x="0px" y="0px" viewBox="0 0 24 24" style="enable-background:new 0 0 24 24;" xml:space="preserve">
<style type="text/css">
	.st0{fill:none;}
	.st1{fill:currentColor;}
</style>
<g id="Symbols">
	<g id="content-panel-admin-view" transform="translate(-66.000000, -942.000000)">
		<g id="But-Undo" transform="translate(21.000000, 930.000000)">
			<g id="undo-24px" transform="translate(45.000000, 12.000000)">
				<polygon id="Path" class="st0" points="0,0 24,0 24,24 0,24 				"></polygon>
				<path id="Path_1_" class="st1" d="M12.5,8c-2.6,0-5.1,1-6.9,2.6L2,7v9h9l-3.6-3.6c1.4-1.2,3.2-1.9,5.1-1.9
					c3.5,0,6.5,2.3,7.6,5.5l2.4-0.8C21.1,11,17.1,8,12.5,8z"></path>
			</g>
		</g>
	</g>
</g>
</symbol>
<symbol id="unlock" x="0px" y="0px" viewBox="0 0 24 24" style="enable-background:new 0 0 24 24;" xml:space="preserve">
<path fill="currentColor" d="M18,9.3333h-0.6667h-2.0245h-1.052H8.6667V6.7619c0-1.8909,1.6445-3.4286,3.6666-3.4286
	c1.3346,0,2.1943,0.6768,2.631,1.6758h2.0789C16.3416,2.8824,14.3591,1.3333,12,1.3333c-2.9413,0-5.3333,2.392-5.3333,5.3333v2.6667
	H6c-1.1022,0-2,0.8969-2,2v9.3333c0,1.1031,0.8978,2,2,2h12c1.1022,0,2-0.8969,2-2v-9.3333C20,10.2303,19.1022,9.3333,18,9.3333z
	 M13.1667,16.5237v1.9526c0,0.4731-0.3726,0.8571-0.8334,0.8571S11.5,18.9494,11.5,18.4762v-1.9526
	c-0.4958-0.2974-0.8333-0.8443-0.8333-1.476c0-0.9454,0.7475-1.7143,1.6666-1.7143c0.9192,0,1.6667,0.7689,1.6667,1.7143
	C14,15.6794,13.6625,16.2262,13.1667,16.5237z"></path>
</symbol>
<symbol id="upload-circle" x="0px" y="0px" viewBox="0 0 36 36" style="enable-background:new 0 0 36 36;" xml:space="preserve">
<style type="text/css">
	.st0{fill:#D2D2D2;}
	.st1{fill:currentColor;}
</style>
    <g id="test01b" transform="translate(-142.000000, -531.000000)">
		<g id="upload" transform="translate(142.000000, 531.000000)">
			<circle id="Oval" class="st0" cx="18" cy="18" r="17"></circle>
            <path id="Path" class="st1" d="M26,20.8v4.6c0,0.4-0.3,0.7-0.7,0.7H10.8c-0.4,0-0.7-0.3-0.7-0.7v-4.6H8.6v4.6c0,1.1,1,2,2.2,2
				h14.5c1.2,0,2.2-0.9,2.2-2v-4.6H26z"></path>
            <polygon id="Path_1_" class="st1" points="18,8.6 13.3,13.1 14.4,14.1 17.2,11.3 17.2,22.7 18.8,22.7 18.8,11.3 21.6,14.1
				22.7,13.1 			"></polygon>
		</g>
	</g>
</symbol>
<symbol enable-background="new 0 0 24 24" viewBox="0 0 24 24" fill="#000000" id="upload"><g><rect fill="none" height="24" width="24"></rect></g><g><path d="M18,15v3H6v-3H4v3c0,1.1,0.9,2,2,2h12c1.1,0,2-0.9,2-2v-3H18z M7,9l1.41,1.41L11,7.83V16h2V7.83l2.59,2.58L17,9l-5-5L7,9z"></path></g></symbol>
<symbol id="video-stroke" x="0px" y="0px" viewBox="0 0 24 24" style="enable-background:new 0 0 24 24;" xml:space="preserve">
<style type="text/css">
	.st0{opacity:0.15;}
</style>
    <path fill="currentColor" d="M12,23C5.9,23,1,18.1,1,12C1,5.9,5.9,1,12,1c6.1,0,11,4.9,11,11C23,18.1,18.1,23,12,23z M12,2.7c-5.1,0-9.3,4.2-9.3,9.3
	s4.2,9.3,9.3,9.3s9.3-4.2,9.3-9.3S17.1,2.7,12,2.7z"></path>
    <circle fill="currentColor" class="st0" cx="12" cy="12" r="9.3"></circle>
    <path fill="currentColor" d="M9.3,15.7c-0.2,0.1-0.4,0-0.4-0.2v-7c0-0.3,0.2-0.4,0.4-0.2l5.7,3.5c0.2,0.1,0.2,0.4,0,0.5
	C15,12.3,9.3,15.7,9.3,15.7z"></path>
</symbol>
<symbol id="video" viewBox="0 0 48 48">
  <g transform="translate(2 2)" fill-rule="evenodd" clip-rule="evenodd">
    <circle fill="currentColor" id="Oval-1" cx="22" cy="22" r="22.8" fill-opacity=".32" stroke="#fff" stroke-width="1.6" stroke-opacity=".8"></circle>
    <path id="Fill-1" d="M17.4 29.7c-.5.3-.9.1-.9-.5V14.9c0-.6.4-.8.9-.5l11.7 7.1c.5.3.5.8 0 1.1l-11.7 7.1z" fill="#fff"></path>
  </g>
</symbol>
<symbol id="watch-later-outline" x="0px" y="0px" viewBox="0 0 24 24" xml:space="preserve">
<path fill="currentColor" d="M12.7608,13.3448c-0.0009,0.0284-0.0055,0.0577-0.0092,0.0871c-0.0027,0.022-0.0046,0.044-0.0092,0.0651
	c-0.0055,0.022-0.0138,0.044-0.0202,0.066c-0.0083,0.0275-0.0165,0.0532-0.0275,0.0788c-0.0028,0.0046-0.0028,0.0092-0.0055,0.0138
	c-0.0165,0.0357-0.0357,0.0688-0.0568,0.0999c-0.0018,0.0018-0.0037,0.0046-0.0046,0.0055
	c-0.0238,0.0358-0.0513,0.0669-0.0807,0.0972c-0.0073,0.0083-0.0165,0.0156-0.0247,0.0238
	c-0.0257,0.0248-0.0513,0.0468-0.0807,0.066c-0.0082,0.0055-0.0165,0.0128-0.0266,0.0183
	c-0.0367,0.0238-0.0743,0.0449-0.1146,0.0614c-0.0082,0.0046-0.0174,0.0055-0.0266,0.0092
	c-0.0339,0.0128-0.0678,0.0238-0.1027,0.0321c-0.0128,0.0037-0.0248,0.0055-0.0385,0.0073
	c-0.0449,0.0083-0.0907,0.0138-0.1366,0.0138c-0.0092,0-0.0183-0.0027-0.0275-0.0037c-0.044-0.0018-0.088-0.0055-0.1292-0.0147
	c-0.0138-0.0028-0.0266-0.0083-0.0385-0.0119c-0.0385-0.011-0.0779-0.0229-0.1146-0.0385
	c-0.0046-0.0028-0.0083-0.0028-0.0128-0.0046L7.455,12.0275c-0.3795-0.1797-0.5436-0.6325-0.3639-1.0129
	c0.1797-0.3804,0.6325-0.5436,1.0129-0.3639l3.1322,1.4777V5.5632c0-0.4207,0.341-0.7608,0.7608-0.7608
	c0.4207,0,0.7608,0.341,0.7608,0.7608v7.766l0,0C12.7618,13.3365,12.7608,13.3402,12.7608,13.3448z"></path>
<path fill="currentColor" d="M12,23C5.9347,23,1,18.0658,1,12C1,5.9347,5.9347,1,12,1c6.0658,0,11,4.9347,11,11C23,18.0658,18.0658,23,12,23z M12,2.6978
	c-5.1294,0-9.3022,4.1729-9.3022,9.3022S6.8706,21.3027,12,21.3027S21.3027,17.1294,21.3027,12S17.1294,2.6978,12,2.6978z"></path>
<circle fill="currentColor" opacity="0.15" cx="12" cy="12" r="9.3027"></circle>
</symbol>
<symbol id="watch-later" x="0px" y="0px" viewBox="0 0 24 24" xml:space="preserve">
<g id="Symbols">
	<path fill="currentColor" d="M12,1C5.9243,1,1,5.9243,1,12s4.9243,11,11,11s11-4.9253,11-11S18.0748,1,12,1z M12.7599,13.3448
		c-0.0009,0.0284-0.0055,0.0577-0.0092,0.0871c-0.0028,0.022-0.0046,0.044-0.0092,0.0651c-0.0055,0.022-0.0138,0.044-0.0202,0.066
		c-0.0083,0.0275-0.0165,0.0532-0.0275,0.0788c-0.0028,0.0046-0.0028,0.0092-0.0055,0.0138
		c-0.0165,0.0357-0.0358,0.0688-0.0568,0.0999c-0.0018,0.0018-0.0037,0.0046-0.0046,0.0055
		c-0.0238,0.0358-0.0513,0.0669-0.0807,0.0972c-0.0073,0.0083-0.0165,0.0156-0.0248,0.0238
		c-0.0257,0.0248-0.0513,0.0468-0.0807,0.066c-0.0083,0.0055-0.0165,0.0128-0.0266,0.0183
		c-0.0367,0.0238-0.0743,0.0449-0.1146,0.0614c-0.0082,0.0046-0.0174,0.0055-0.0266,0.0092
		c-0.0339,0.0128-0.0678,0.0238-0.1027,0.0321c-0.0128,0.0037-0.0247,0.0055-0.0385,0.0073
		c-0.0449,0.0083-0.0907,0.0138-0.1366,0.0138c-0.0092,0-0.0183-0.0027-0.0275-0.0037c-0.044-0.0018-0.088-0.0055-0.1292-0.0147
		c-0.0138-0.0028-0.0266-0.0083-0.0385-0.0119c-0.0385-0.011-0.0779-0.0229-0.1146-0.0385
		c-0.0046-0.0028-0.0083-0.0028-0.0128-0.0046L7.454,12.0275c-0.3795-0.1797-0.5436-0.6325-0.3639-1.0129
		c0.1797-0.3795,0.6325-0.5436,1.0129-0.3639l3.1322,1.4777V5.5632c0-0.4207,0.341-0.7608,0.7608-0.7608
		c0.4207,0,0.7608,0.341,0.7608,0.7608v7.766l0,0C12.7608,13.3356,12.7599,13.3402,12.7599,13.3448z"></path>
</g>
</symbol>
<symbol id="webcam" x="0px" y="0px" viewBox="0 0 24 24" xml:space="preserve">
<desc>Created with Sketch.</desc>
<g id="Icons_x2F_Webcam_x5F_Icon_x5F_Filled">
	<path fill="currentColor" d="M15.8,18.4c0.8,0,1.5-0.7,1.5-1.5l0-2.1l5,2.7c0.4,0.2,0.8,0.1,0.8-0.4l0-10.3
		c0-0.4-0.3-0.6-0.8-0.4l-5,2.7l0-2.1c0-0.8-0.7-1.5-1.5-1.5H2.5C1.7,5.6,1,6.2,1,7V17c0,0.8,0.7,1.5,1.5,1.5H15.8z"></path>
</g>
</symbol>
<symbol id="whatsapp" x="0px" y="0px" viewBox="0 0 24 24" xml:space="preserve">
<g>
	<g id="messaging-whatsapp">
		<g id="Shape">
			<path fill="currentColor" d="M12,21.9153c-1.8644,0-3.6441-0.5085-5.339-1.5255l-3.4745,1.1017c-0.1695,0.0847-0.339,0-0.4237-0.0847
				c-0.0847-0.1695-0.1695-0.339-0.0847-0.5085l1.1017-3.3051C2.5932,15.9831,2,13.9492,2,12c0.0847-5.4237,4.4915-9.9153,10-9.9153
				c0,0,0,0,0.0847,0C17.5085,2.0847,22,6.4915,22,12c0,3.6441-2.0339,7.0339-5.2543,8.7288
				C15.2204,21.4915,13.6102,21.9153,12,21.9153z M6.7457,19.4576c0.0847,0,0.1695,0,0.2543,0.0847
				c2.7966,1.8644,6.3559,2.0339,9.322,0.4237s4.8305-4.661,4.8305-7.9661C21.0678,7,17,2.9322,12,2.9322l0,0l0,0
				C7,2.9322,2.9322,7,2.8475,12c0,1.8644,0.5932,3.7288,1.6949,5.2543c0.0847,0.0847,0.0847,0.2543,0.0847,0.4237l-0.9322,2.7119
				l2.8814-0.9322C6.661,19.4576,6.661,19.4576,6.7457,19.4576z M14.2881,17.4237c-0.0847,0-0.2543,0-0.339,0
				C11.1525,17.1695,7.8475,14.7119,6.8305,12c-0.678-1.6949-0.339-3.3051,0.8475-4.5763C8.0169,7.0847,8.5255,6.9153,9.1186,7
				c0.5085,0.0847,0.8475,0.339,0.9322,0.678c0,0.1695,0.0847,0.339,0.1695,0.5932c0.1695,0.4237,0.4237,1.1017,0.5085,1.1865
				c0.1695,0.339,0.1695,0.5932,0,0.9322c-0.0847,0.1695-0.1695,0.2543-0.2543,0.339c-0.0847,0.0847-0.1695,0.1695-0.339,0.2543l0,0
				c0.7627,1.2712,1.9492,2.2034,3.3051,2.7966c0.0847,0,0.0847,0.0847,0.0847,0.0847c0.0847-0.1695,0.339-0.5085,0.5085-0.7627
				c0.339-0.5932,0.9322-0.339,1.1017-0.2543c0.1695,0.0847,0.8475,0.4237,1.6102,0.7627L17,13.6949
				c0.2543,0.0847,0.4237,0.1695,0.5932,0.4237c0,0.0847,0,0.0847,0.0847,0.1695c0.1695,0.5085,0.0847,1.0169-0.1695,1.4406
				C16.7457,16.8305,15.6441,17.4237,14.2881,17.4237z M8.6949,7.8475c-0.1695,0-0.339,0.0847-0.4237,0.1695
				c-1.1865,1.2712-1.0169,2.7119-0.678,3.7288c0.9322,2.3729,3.8983,4.661,6.3559,4.8305c1.2712,0.0847,2.1186-0.339,2.6271-1.2712
				c0.1695-0.2543,0.1695-0.5085,0.1695-0.678c-0.0847,0-0.0847-0.0847-0.1695-0.0847l-0.2543-0.0847
				c-0.339-0.1695-1.3559-0.678-1.5255-0.7627h-0.0847c-0.1695,0.2543-0.4237,0.5932-0.5932,0.8475
				c-0.2543,0.339-0.5932,0.339-1.0169,0.1695c-1.5255-0.678-2.7966-1.7796-3.6441-3.2204c-0.339-0.5085,0-0.8475,0.1695-1.0169
				c0.1695-0.1695,0.2543-0.2543,0.339-0.339c0.0847-0.0847,0.0847-0.0847,0.0847-0.1695C9.9661,9.7966,9.8814,9.5424,9.4576,8.5255
				c-0.0847-0.1695-0.1695-0.339-0.2543-0.5085c0,0-0.0847-0.0847-0.339-0.1695C8.8644,7.8475,8.7796,7.8475,8.6949,7.8475z"></path>
		</g>
	</g>
</g>
</symbol>
<symbol id="youtube" viewBox="0 0 24 24" xml:space="preserve">
<style type="text/css">
	.st1{fill:#E52521;}
	.st2{fill:none;stroke:#E52521;}
</style>
<desc>Created with Sketch.</desc>
<g id="Icons_x2F_Youtube_x5F_Icon_x5F_Outline_x5F_Color">
	<g id="YouTube" transform="translate(0.500000, 4.000000)">
		<polygon id="Fill-4" class="st1" points="9.7,11.3 15.2,8 9.7,4.7 		"></polygon>
		<path id="Fill-1" class="st2" d="M22,2.4c-0.3-1-1-1.8-1.9-2.1c-1.7-0.5-8.6-0.5-8.6-0.5s-6.9,0-8.6,0.5C2,0.6,1.2,1.4,1,2.4
			C0.5,4.2,0.5,8,0.5,8s0,3.8,0.5,5.6c0.3,1,1,1.8,1.9,2.1c1.7,0.5,8.6,0.5,8.6,0.5s6.9,0,8.6-0.5c0.9-0.3,1.7-1.1,1.9-2.1
			c0.5-1.8,0.5-5.6,0.5-5.6S22.5,4.2,22,2.4"></path>
	</g>
</g>
</symbol>
</defs>
</svg>
